<?xml version="1.0" encoding="us-ascii" standalone="no"?><svg xmlns="http://www.w3.org/2000/svg" xmlns:xlink="http://www.w3.org/1999/xlink" contentStyleType="text/css" height="346.8px" preserveAspectRatio="none" style="width:2698px;height:346px;background:#FFFFFF;" version="1.1" viewBox="0 0 2698 346" width="2698.8px" zoomAndPan="magnify"><defs/><g><!--cluster java--><g id="cluster_java"><path d="M162.3,210.6082 L180.3,210.6082 A2.25,2.25 0 0 1 181.8,212.1082 L186,225.3809 L245.7,225.3809 A1.5,1.5 0 0 1 247.2,226.8809 L247.2,301.5082 A1.5,1.5 0 0 1 245.7,303.0082 L162.3,303.0082 A1.5,1.5 0 0 1 160.8,301.5082 L160.8,212.1082 A1.5,1.5 0 0 1 162.3,210.6082 " fill="none" style="stroke:#000000;stroke-width:0.8999999999999999;"/><line style="stroke:#000000;stroke-width:0.8999999999999999;" x1="160.8" x2="186" y1="225.3809" y2="225.3809"/><text fill="#000000" font-family="sans-serif" font-size="8.4" font-weight="bold" lengthAdjust="spacing" textLength="17.4" x="163.2" y="220.8727">java</text></g><!--cluster util--><g id="cluster_util"><path d="M176.7,237.6082 L190.5,237.6082 A2.25,2.25 0 0 1 192,239.1082 L196.2,252.3809 L231.3,252.3809 A1.5,1.5 0 0 1 232.8,253.8809 L232.8,287.1082 A1.5,1.5 0 0 1 231.3,288.6082 L176.7,288.6082 A1.5,1.5 0 0 1 175.2,287.1082 L175.2,239.1082 A1.5,1.5 0 0 1 176.7,237.6082 " fill="none" style="stroke:#000000;stroke-width:0.8999999999999999;"/><line style="stroke:#000000;stroke-width:0.8999999999999999;" x1="175.2" x2="196.2" y1="252.3809" y2="252.3809"/><text fill="#000000" font-family="sans-serif" font-size="8.4" font-weight="bold" lengthAdjust="spacing" textLength="13.2" x="177.6" y="247.8727">util</text></g><!--cluster querydsl--><g id="cluster_querydsl"><path d="M263.1,183.6082 L300.3,183.6082 A2.25,2.25 0 0 1 301.8,185.1082 L306,198.3809 L400.5,198.3809 A1.5,1.5 0 0 1 402,199.8809 L402,315.9082 A1.5,1.5 0 0 1 400.5,317.4082 L263.1,317.4082 A1.5,1.5 0 0 1 261.6,315.9082 L261.6,185.1082 A1.5,1.5 0 0 1 263.1,183.6082 " fill="none" style="stroke:#000000;stroke-width:0.8999999999999999;"/><line style="stroke:#000000;stroke-width:0.8999999999999999;" x1="261.6" x2="306" y1="198.3809" y2="198.3809"/><text fill="#000000" font-family="sans-serif" font-size="8.4" font-weight="bold" lengthAdjust="spacing" textLength="36.6" x="264" y="193.8727">querydsl</text></g><!--cluster core--><g id="cluster_core"><path d="M277.5,210.6082 L297.3,210.6082 A2.25,2.25 0 0 1 298.8,212.1082 L303,225.3809 L386.1,225.3809 A1.5,1.5 0 0 1 387.6,226.8809 L387.6,301.5082 A1.5,1.5 0 0 1 386.1,303.0082 L277.5,303.0082 A1.5,1.5 0 0 1 276,301.5082 L276,212.1082 A1.5,1.5 0 0 1 277.5,210.6082 " fill="none" style="stroke:#000000;stroke-width:0.8999999999999999;"/><line style="stroke:#000000;stroke-width:0.8999999999999999;" x1="276" x2="303" y1="225.3809" y2="225.3809"/><text fill="#000000" font-family="sans-serif" font-size="8.4" font-weight="bold" lengthAdjust="spacing" textLength="19.2" x="278.4" y="220.8727">core</text></g><!--cluster annotations--><g id="cluster_annotations"><path d="M291.9,237.6082 L342.3,237.6082 A2.25,2.25 0 0 1 343.8,239.1082 L348,252.3809 L371.7,252.3809 A1.5,1.5 0 0 1 373.2,253.8809 L373.2,287.1082 A1.5,1.5 0 0 1 371.7,288.6082 L291.9,288.6082 A1.5,1.5 0 0 1 290.4,287.1082 L290.4,239.1082 A1.5,1.5 0 0 1 291.9,237.6082 " fill="none" style="stroke:#000000;stroke-width:0.8999999999999999;"/><line style="stroke:#000000;stroke-width:0.8999999999999999;" x1="290.4" x2="348" y1="252.3809" y2="252.3809"/><text fill="#000000" font-family="sans-serif" font-size="8.4" font-weight="bold" lengthAdjust="spacing" textLength="49.8" x="292.8" y="247.8727">annotations</text></g><!--cluster jakarta--><g id="cluster_jakarta"><path d="M417.9,183.6082 L446.7,183.6082 A2.25,2.25 0 0 1 448.2,185.1082 L452.4,198.3809 L1773.9,198.3809 A1.5,1.5 0 0 1 1775.4,199.8809 L1775.4,315.9082 A1.5,1.5 0 0 1 1773.9,317.4082 L417.9,317.4082 A1.5,1.5 0 0 1 416.4,315.9082 L416.4,185.1082 A1.5,1.5 0 0 1 417.9,183.6082 " fill="none" style="stroke:#000000;stroke-width:0.8999999999999999;"/><line style="stroke:#000000;stroke-width:0.8999999999999999;" x1="416.4" x2="452.4" y1="198.3809" y2="198.3809"/><text fill="#000000" font-family="sans-serif" font-size="8.4" font-weight="bold" lengthAdjust="spacing" textLength="28.2" x="418.8" y="193.8727">jakarta</text></g><!--cluster validation--><g id="cluster_validation"><path d="M432.3,210.6082 L474.3,210.6082 A2.25,2.25 0 0 1 475.8,212.1082 L480,225.3809 L707.1,225.3809 A1.5,1.5 0 0 1 708.6,226.8809 L708.6,301.5082 A1.5,1.5 0 0 1 707.1,303.0082 L432.3,303.0082 A1.5,1.5 0 0 1 430.8,301.5082 L430.8,212.1082 A1.5,1.5 0 0 1 432.3,210.6082 " fill="none" style="stroke:#000000;stroke-width:0.8999999999999999;"/><line style="stroke:#000000;stroke-width:0.8999999999999999;" x1="430.8" x2="480" y1="225.3809" y2="225.3809"/><text fill="#000000" font-family="sans-serif" font-size="8.4" font-weight="bold" lengthAdjust="spacing" textLength="41.4" x="433.2" y="220.8727">validation</text></g><!--cluster constraints--><g id="cluster_constraints"><path d="M446.7,237.6082 L494.7,237.6082 A2.25,2.25 0 0 1 496.2,239.1082 L500.4,252.3809 L692.7,252.3809 A1.5,1.5 0 0 1 694.2,253.8809 L694.2,287.1082 A1.5,1.5 0 0 1 692.7,288.6082 L446.7,288.6082 A1.5,1.5 0 0 1 445.2,287.1082 L445.2,239.1082 A1.5,1.5 0 0 1 446.7,237.6082 " fill="none" style="stroke:#000000;stroke-width:0.8999999999999999;"/><line style="stroke:#000000;stroke-width:0.8999999999999999;" x1="445.2" x2="500.4" y1="252.3809" y2="252.3809"/><text fill="#000000" font-family="sans-serif" font-size="8.4" font-weight="bold" lengthAdjust="spacing" textLength="47.4" x="447.6" y="247.8727">constraints</text></g><!--cluster persistence--><g id="cluster_persistence"><path d="M724.5,210.6082 L775.5,210.6082 A2.25,2.25 0 0 1 777,212.1082 L781.2,225.3809 L1759.5,225.3809 A1.5,1.5 0 0 1 1761,226.8809 L1761,301.5082 A1.5,1.5 0 0 1 1759.5,303.0082 L724.5,303.0082 A1.5,1.5 0 0 1 723,301.5082 L723,212.1082 A1.5,1.5 0 0 1 724.5,210.6082 " fill="none" style="stroke:#000000;stroke-width:0.8999999999999999;"/><line style="stroke:#000000;stroke-width:0.8999999999999999;" x1="723" x2="781.2" y1="225.3809" y2="225.3809"/><text fill="#000000" font-family="sans-serif" font-size="8.4" font-weight="bold" lengthAdjust="spacing" textLength="50.4" x="725.4" y="220.8727">persistence</text></g><!--cluster CascadeType--><g id="cluster_CascadeType"><path d="M1525.5,237.6082 L1581.9,237.6082 A2.25,2.25 0 0 1 1583.4,239.1082 L1587.6,252.3809 L1671.9,252.3809 A1.5,1.5 0 0 1 1673.4,253.8809 L1673.4,287.1082 A1.5,1.5 0 0 1 1671.9,288.6082 L1525.5,288.6082 A1.5,1.5 0 0 1 1524,287.1082 L1524,239.1082 A1.5,1.5 0 0 1 1525.5,237.6082 " fill="none" style="stroke:#000000;stroke-width:0.8999999999999999;"/><line style="stroke:#000000;stroke-width:0.8999999999999999;" x1="1524" x2="1587.6" y1="252.3809" y2="252.3809"/><text fill="#000000" font-family="sans-serif" font-size="8.4" font-weight="bold" lengthAdjust="spacing" textLength="55.8" x="1526.4" y="247.8727">CascadeType</text></g><!--cluster FetchType--><g id="cluster_FetchType"><path d="M1689.3,237.6082 L1733.7,237.6082 A2.25,2.25 0 0 1 1735.2,239.1082 L1739.4,252.3809 L1745.1,252.3809 A1.5,1.5 0 0 1 1746.6,253.8809 L1746.6,287.1082 A1.5,1.5 0 0 1 1745.1,288.6082 L1689.3,288.6082 A1.5,1.5 0 0 1 1687.8,287.1082 L1687.8,239.1082 A1.5,1.5 0 0 1 1689.3,237.6082 " fill="none" style="stroke:#000000;stroke-width:0.8999999999999999;"/><line style="stroke:#000000;stroke-width:0.8999999999999999;" x1="1687.8" x2="1739.4" y1="252.3809" y2="252.3809"/><text fill="#000000" font-family="sans-serif" font-size="8.4" font-weight="bold" lengthAdjust="spacing" textLength="43.8" x="1690.2" y="247.8727">FetchType</text></g><!--cluster lombok--><g id="cluster_lombok"><path d="M1791.3,237.6082 L1822.5,237.6082 A2.25,2.25 0 0 1 1824,239.1082 L1828.2,252.3809 L2399.1,252.3809 A1.5,1.5 0 0 1 2400.6,253.8809 L2400.6,287.1082 A1.5,1.5 0 0 1 2399.1,288.6082 L1791.3,288.6082 A1.5,1.5 0 0 1 1789.8,287.1082 L1789.8,239.1082 A1.5,1.5 0 0 1 1791.3,237.6082 " fill="none" style="stroke:#000000;stroke-width:0.8999999999999999;"/><line style="stroke:#000000;stroke-width:0.8999999999999999;" x1="1789.8" x2="1828.2" y1="252.3809" y2="252.3809"/><text fill="#000000" font-family="sans-serif" font-size="8.4" font-weight="bold" lengthAdjust="spacing" textLength="30.6" x="1792.2" y="247.8727">lombok</text></g><!--cluster org--><g id="cluster_org"><path d="M2416.5,183.6082 L2431.5,183.6082 A2.25,2.25 0 0 1 2433,185.1082 L2437.2,198.3809 L2693.1,198.3809 A1.5,1.5 0 0 1 2694.6,199.8809 L2694.6,315.9082 A1.5,1.5 0 0 1 2693.1,317.4082 L2416.5,317.4082 A1.5,1.5 0 0 1 2415,315.9082 L2415,185.1082 A1.5,1.5 0 0 1 2416.5,183.6082 " fill="none" style="stroke:#000000;stroke-width:0.8999999999999999;"/><line style="stroke:#000000;stroke-width:0.8999999999999999;" x1="2415" x2="2437.2" y1="198.3809" y2="198.3809"/><text fill="#000000" font-family="sans-serif" font-size="8.4" font-weight="bold" lengthAdjust="spacing" textLength="14.4" x="2417.4" y="193.8727">org</text></g><!--cluster hibernate--><g id="cluster_hibernate"><path d="M2430.9,210.6082 L2472.3,210.6082 A2.25,2.25 0 0 1 2473.8,212.1082 L2478,225.3809 L2678.7,225.3809 A1.5,1.5 0 0 1 2680.2,226.8809 L2680.2,301.5082 A1.5,1.5 0 0 1 2678.7,303.0082 L2430.9,303.0082 A1.5,1.5 0 0 1 2429.4,301.5082 L2429.4,212.1082 A1.5,1.5 0 0 1 2430.9,210.6082 " fill="none" style="stroke:#000000;stroke-width:0.8999999999999999;"/><line style="stroke:#000000;stroke-width:0.8999999999999999;" x1="2429.4" x2="2478" y1="225.3809" y2="225.3809"/><text fill="#000000" font-family="sans-serif" font-size="8.4" font-weight="bold" lengthAdjust="spacing" textLength="40.8" x="2431.8" y="220.8727">hibernate</text></g><!--cluster annotations--><g id="cluster_annotations"><path d="M2445.3,237.6082 L2495.7,237.6082 A2.25,2.25 0 0 1 2497.2,239.1082 L2501.4,252.3809 L2664.3,252.3809 A1.5,1.5 0 0 1 2665.8,253.8809 L2665.8,287.1082 A1.5,1.5 0 0 1 2664.3,288.6082 L2445.3,288.6082 A1.5,1.5 0 0 1 2443.8,287.1082 L2443.8,239.1082 A1.5,1.5 0 0 1 2445.3,237.6082 " fill="none" style="stroke:#000000;stroke-width:0.8999999999999999;"/><line style="stroke:#000000;stroke-width:0.8999999999999999;" x1="2443.8" x2="2501.4" y1="252.3809" y2="252.3809"/><text fill="#000000" font-family="sans-serif" font-size="8.4" font-weight="bold" lengthAdjust="spacing" textLength="49.8" x="2446.2" y="247.8727">annotations</text></g><!--cluster zspace--><g id="cluster_zspace"><path d="M5.1,3.6082 L35.1,3.6082 A2.25,2.25 0 0 1 36.6,5.1082 L40.8,18.3809 L144.9,18.3809 A1.5,1.5 0 0 1 146.4,19.8809 L146.4,329.4082 A1.5,1.5 0 0 1 144.9,330.9082 L5.1,330.9082 A1.5,1.5 0 0 1 3.6,329.4082 L3.6,5.1082 A1.5,1.5 0 0 1 5.1,3.6082 " fill="none" style="stroke:#000000;stroke-width:0.8999999999999999;"/><line style="stroke:#000000;stroke-width:0.8999999999999999;" x1="3.6" x2="40.8" y1="18.3809" y2="18.3809"/><text fill="#000000" font-family="sans-serif" font-size="8.4" font-weight="bold" lengthAdjust="spacing" textLength="29.4" x="6" y="13.8727">zspace</text></g><!--cluster zulieferer--><g id="cluster_zulieferer"><path d="M19.5,30.6082 L60.9,30.6082 A2.25,2.25 0 0 1 62.4,32.1082 L66.6,45.3809 L130.5,45.3809 A1.5,1.5 0 0 1 132,46.8809 L132,315.0082 A1.5,1.5 0 0 1 130.5,316.5082 L19.5,316.5082 A1.5,1.5 0 0 1 18,315.0082 L18,32.1082 A1.5,1.5 0 0 1 19.5,30.6082 " fill="none" style="stroke:#000000;stroke-width:0.8999999999999999;"/><line style="stroke:#000000;stroke-width:0.8999999999999999;" x1="18" x2="66.6" y1="45.3809" y2="45.3809"/><text fill="#000000" font-family="sans-serif" font-size="8.4" font-weight="bold" lengthAdjust="spacing" textLength="40.8" x="20.4" y="40.8727">zulieferer</text></g><!--cluster entity--><g id="cluster_entity"><path d="M33.9,57.6082 L57.9,57.6082 A2.25,2.25 0 0 1 59.4,59.1082 L63.6,72.3809 L116.1,72.3809 A1.5,1.5 0 0 1 117.6,73.8809 L117.6,300.6082 A1.5,1.5 0 0 1 116.1,302.1082 L33.9,302.1082 A1.5,1.5 0 0 1 32.4,300.6082 L32.4,59.1082 A1.5,1.5 0 0 1 33.9,57.6082 " fill="#DDDDDD" style="stroke:#000000;stroke-width:0.8999999999999999;"/><line style="stroke:#000000;stroke-width:0.8999999999999999;" x1="32.4" x2="63.6" y1="72.3809" y2="72.3809"/><text fill="#000000" font-family="sans-serif" font-size="8.4" font-weight="bold" lengthAdjust="spacing" textLength="23.4" x="34.8" y="67.8727">entity</text></g><!--class UUID--><g id="elem_UUID"><rect codeLine="7" fill="#F1F1F1" height="19.2" id="UUID" rx="1.5" ry="1.5" style="stroke:#181818;stroke-width:0.3;" width="37.8" x="185.1" y="259.8082"/><ellipse cx="194.1" cy="269.4082" fill="#ADD1B2" rx="6.6" ry="6.6" style="stroke:#181818;stroke-width:0.6;"/><path d="M195.7594,266.9332 Q195.8531,266.802 195.9656,266.7363 Q196.0781,266.6707 196.2094,266.6707 Q196.4344,266.6707 196.575,266.8301 Q196.7156,266.9801 196.7156,267.3457 L196.7156,268.2176 Q196.7156,268.5832 196.575,268.7426 Q196.4344,268.902 196.2094,268.902 Q196.0031,268.902 195.8813,268.7801 Q195.7594,268.6676 195.6938,268.3582 Q195.6656,268.1426 195.5531,268.0301 Q195.3563,267.8051 194.9906,267.6738 Q194.625,267.5426 194.25,267.5426 Q193.7906,267.5426 193.4063,267.7395 Q193.0313,267.9363 192.7313,268.3863 Q192.4406,268.8363 192.4406,269.4551 L192.4406,270.1113 Q192.4406,270.852 192.975,271.3488 Q193.5094,271.8363 194.4656,271.8363 Q195.0281,271.8363 195.4219,271.6863 Q195.6563,271.5926 195.9094,271.3301 Q196.0688,271.1707 196.1531,271.1238 Q196.2469,271.077 196.3688,271.077 Q196.5656,271.077 196.7156,271.2363 Q196.875,271.3863 196.875,271.5926 Q196.875,271.7988 196.6688,272.0426 Q196.3688,272.3895 195.8906,272.5863 Q195.2438,272.8582 194.4656,272.8582 Q193.5563,272.8582 192.8344,272.4832 Q192.2438,272.1832 191.8312,271.5457 Q191.4188,270.8988 191.4188,270.1301 L191.4188,269.4363 Q191.4188,268.6395 191.7844,267.9551 Q192.1594,267.2613 192.8156,266.8957 Q193.4719,266.5207 194.2125,266.5207 Q194.6531,266.5207 195.0375,266.6238 Q195.4313,266.7176 195.7594,266.9332 Z " fill="#000000"/><text fill="#000000" font-family="sans-serif" font-size="8.4" lengthAdjust="spacing" textLength="18.6" x="202.5" y="272.8863">UUID</text></g><!--class QueryEntity--><g id="elem_QueryEntity"><rect codeLine="14" fill="#F1F1F1" height="19.2" id="QueryEntity" rx="1.5" ry="1.5" style="stroke:#181818;stroke-width:0.3;" width="63.6" x="300" y="259.8082"/><ellipse cx="309" cy="269.4082" fill="#ADD1B2" rx="6.6" ry="6.6" style="stroke:#181818;stroke-width:0.6;"/><path d="M310.6594,266.9332 Q310.7531,266.802 310.8656,266.7363 Q310.9781,266.6707 311.1094,266.6707 Q311.3344,266.6707 311.475,266.8301 Q311.6156,266.9801 311.6156,267.3457 L311.6156,268.2176 Q311.6156,268.5832 311.475,268.7426 Q311.3344,268.902 311.1094,268.902 Q310.9031,268.902 310.7813,268.7801 Q310.6594,268.6676 310.5938,268.3582 Q310.5656,268.1426 310.4531,268.0301 Q310.2562,267.8051 309.8906,267.6738 Q309.525,267.5426 309.15,267.5426 Q308.6906,267.5426 308.3063,267.7395 Q307.9313,267.9363 307.6312,268.3863 Q307.3406,268.8363 307.3406,269.4551 L307.3406,270.1113 Q307.3406,270.852 307.875,271.3488 Q308.4094,271.8363 309.3656,271.8363 Q309.9281,271.8363 310.3219,271.6863 Q310.5563,271.5926 310.8094,271.3301 Q310.9688,271.1707 311.0531,271.1238 Q311.1469,271.077 311.2688,271.077 Q311.4656,271.077 311.6156,271.2363 Q311.775,271.3863 311.775,271.5926 Q311.775,271.7988 311.5687,272.0426 Q311.2688,272.3895 310.7906,272.5863 Q310.1438,272.8582 309.3656,272.8582 Q308.4563,272.8582 307.7344,272.4832 Q307.1438,272.1832 306.7313,271.5457 Q306.3187,270.8988 306.3187,270.1301 L306.3187,269.4363 Q306.3187,268.6395 306.6844,267.9551 Q307.0594,267.2613 307.7156,266.8957 Q308.3719,266.5207 309.1125,266.5207 Q309.5531,266.5207 309.9375,266.6238 Q310.3313,266.7176 310.6594,266.9332 Z " fill="#000000"/><text fill="#000000" font-family="sans-serif" font-size="8.4" lengthAdjust="spacing" textLength="44.4" x="317.4" y="272.8863">QueryEntity</text></g><!--class NotNull--><g id="elem_NotNull"><rect codeLine="22" fill="#F1F1F1" height="19.2" id="NotNull" rx="1.5" ry="1.5" style="stroke:#181818;stroke-width:0.3;" width="45.6" x="454.8" y="259.8082"/><ellipse cx="463.8" cy="269.4082" fill="#ADD1B2" rx="6.6" ry="6.6" style="stroke:#181818;stroke-width:0.6;"/><path d="M465.4594,266.9332 Q465.5531,266.802 465.6656,266.7363 Q465.7781,266.6707 465.9094,266.6707 Q466.1344,266.6707 466.275,266.8301 Q466.4156,266.9801 466.4156,267.3457 L466.4156,268.2176 Q466.4156,268.5832 466.275,268.7426 Q466.1344,268.902 465.9094,268.902 Q465.7031,268.902 465.5812,268.7801 Q465.4594,268.6676 465.3937,268.3582 Q465.3656,268.1426 465.2531,268.0301 Q465.0563,267.8051 464.6906,267.6738 Q464.325,267.5426 463.95,267.5426 Q463.4906,267.5426 463.1063,267.7395 Q462.7313,267.9363 462.4313,268.3863 Q462.1406,268.8363 462.1406,269.4551 L462.1406,270.1113 Q462.1406,270.852 462.675,271.3488 Q463.2094,271.8363 464.1656,271.8363 Q464.7281,271.8363 465.1219,271.6863 Q465.3563,271.5926 465.6094,271.3301 Q465.7687,271.1707 465.8531,271.1238 Q465.9469,271.077 466.0687,271.077 Q466.2656,271.077 466.4156,271.2363 Q466.575,271.3863 466.575,271.5926 Q466.575,271.7988 466.3688,272.0426 Q466.0687,272.3895 465.5906,272.5863 Q464.9437,272.8582 464.1656,272.8582 Q463.2562,272.8582 462.5344,272.4832 Q461.9437,272.1832 461.5313,271.5457 Q461.1188,270.8988 461.1188,270.1301 L461.1188,269.4363 Q461.1188,268.6395 461.4844,267.9551 Q461.8594,267.2613 462.5156,266.8957 Q463.1719,266.5207 463.9125,266.5207 Q464.3531,266.5207 464.7375,266.6238 Q465.1312,266.7176 465.4594,266.9332 Z " fill="#000000"/><text fill="#000000" font-family="sans-serif" font-size="8.4" lengthAdjust="spacing" textLength="26.4" x="472.2" y="272.8863">NotNull</text></g><!--class Pattern--><g id="elem_Pattern"><rect codeLine="23" fill="#F1F1F1" height="19.2" id="Pattern" rx="1.5" ry="1.5" style="stroke:#181818;stroke-width:0.3;" width="46.8" x="521.4" y="259.8082"/><ellipse cx="530.4" cy="269.4082" fill="#ADD1B2" rx="6.6" ry="6.6" style="stroke:#181818;stroke-width:0.6;"/><path d="M532.0594,266.9332 Q532.1531,266.802 532.2656,266.7363 Q532.3781,266.6707 532.5094,266.6707 Q532.7344,266.6707 532.875,266.8301 Q533.0156,266.9801 533.0156,267.3457 L533.0156,268.2176 Q533.0156,268.5832 532.875,268.7426 Q532.7344,268.902 532.5094,268.902 Q532.3031,268.902 532.1813,268.7801 Q532.0594,268.6676 531.9938,268.3582 Q531.9656,268.1426 531.8531,268.0301 Q531.6563,267.8051 531.2906,267.6738 Q530.925,267.5426 530.55,267.5426 Q530.0906,267.5426 529.7063,267.7395 Q529.3313,267.9363 529.0313,268.3863 Q528.7406,268.8363 528.7406,269.4551 L528.7406,270.1113 Q528.7406,270.852 529.275,271.3488 Q529.8094,271.8363 530.7656,271.8363 Q531.3281,271.8363 531.7219,271.6863 Q531.9563,271.5926 532.2094,271.3301 Q532.3688,271.1707 532.4531,271.1238 Q532.5469,271.077 532.6687,271.077 Q532.8656,271.077 533.0156,271.2363 Q533.175,271.3863 533.175,271.5926 Q533.175,271.7988 532.9688,272.0426 Q532.6687,272.3895 532.1906,272.5863 Q531.5437,272.8582 530.7656,272.8582 Q529.8562,272.8582 529.1344,272.4832 Q528.5437,272.1832 528.1313,271.5457 Q527.7188,270.8988 527.7188,270.1301 L527.7188,269.4363 Q527.7188,268.6395 528.0844,267.9551 Q528.4594,267.2613 529.1156,266.8957 Q529.7719,266.5207 530.5125,266.5207 Q530.9531,266.5207 531.3375,266.6238 Q531.7312,266.7176 532.0594,266.9332 Z " fill="#000000"/><text fill="#000000" font-family="sans-serif" font-size="8.4" lengthAdjust="spacing" textLength="27.6" x="538.8" y="272.8863">Pattern</text></g><!--class email--><g id="elem_email"><rect codeLine="24" fill="#F1F1F1" height="19.2" id="email" rx="1.5" ry="1.5" style="stroke:#181818;stroke-width:0.3;" width="39" x="589.5" y="259.8082"/><ellipse cx="598.5" cy="269.4082" fill="#ADD1B2" rx="6.6" ry="6.6" style="stroke:#181818;stroke-width:0.6;"/><path d="M600.1594,266.9332 Q600.2531,266.802 600.3656,266.7363 Q600.4781,266.6707 600.6094,266.6707 Q600.8344,266.6707 600.975,266.8301 Q601.1156,266.9801 601.1156,267.3457 L601.1156,268.2176 Q601.1156,268.5832 600.975,268.7426 Q600.8344,268.902 600.6094,268.902 Q600.4031,268.902 600.2813,268.7801 Q600.1594,268.6676 600.0938,268.3582 Q600.0656,268.1426 599.9531,268.0301 Q599.7563,267.8051 599.3906,267.6738 Q599.025,267.5426 598.65,267.5426 Q598.1906,267.5426 597.8063,267.7395 Q597.4313,267.9363 597.1313,268.3863 Q596.8406,268.8363 596.8406,269.4551 L596.8406,270.1113 Q596.8406,270.852 597.375,271.3488 Q597.9094,271.8363 598.8656,271.8363 Q599.4281,271.8363 599.8219,271.6863 Q600.0563,271.5926 600.3094,271.3301 Q600.4688,271.1707 600.5531,271.1238 Q600.6469,271.077 600.7688,271.077 Q600.9656,271.077 601.1156,271.2363 Q601.275,271.3863 601.275,271.5926 Q601.275,271.7988 601.0688,272.0426 Q600.7688,272.3895 600.2906,272.5863 Q599.6438,272.8582 598.8656,272.8582 Q597.9563,272.8582 597.2344,272.4832 Q596.6438,272.1832 596.2312,271.5457 Q595.8188,270.8988 595.8188,270.1301 L595.8188,269.4363 Q595.8188,268.6395 596.1844,267.9551 Q596.5594,267.2613 597.2156,266.8957 Q597.8719,266.5207 598.6125,266.5207 Q599.0531,266.5207 599.4375,266.6238 Q599.8313,266.7176 600.1594,266.9332 Z " fill="#000000"/><text fill="#000000" font-family="sans-serif" font-size="8.4" lengthAdjust="spacing" textLength="19.8" x="606.9" y="272.8863">email</text></g><!--class Size--><g id="elem_Size"><rect codeLine="25" fill="#F1F1F1" height="19.2" id="Size" rx="1.5" ry="1.5" style="stroke:#181818;stroke-width:0.3;" width="34.8" x="649.8" y="259.8082"/><ellipse cx="658.8" cy="269.4082" fill="#ADD1B2" rx="6.6" ry="6.6" style="stroke:#181818;stroke-width:0.6;"/><path d="M660.4594,266.9332 Q660.5531,266.802 660.6656,266.7363 Q660.7781,266.6707 660.9094,266.6707 Q661.1344,266.6707 661.275,266.8301 Q661.4156,266.9801 661.4156,267.3457 L661.4156,268.2176 Q661.4156,268.5832 661.275,268.7426 Q661.1344,268.902 660.9094,268.902 Q660.7031,268.902 660.5813,268.7801 Q660.4594,268.6676 660.3938,268.3582 Q660.3656,268.1426 660.2531,268.0301 Q660.0563,267.8051 659.6906,267.6738 Q659.325,267.5426 658.95,267.5426 Q658.4906,267.5426 658.1062,267.7395 Q657.7312,267.9363 657.4313,268.3863 Q657.1406,268.8363 657.1406,269.4551 L657.1406,270.1113 Q657.1406,270.852 657.675,271.3488 Q658.2094,271.8363 659.1656,271.8363 Q659.7281,271.8363 660.1219,271.6863 Q660.3562,271.5926 660.6094,271.3301 Q660.7688,271.1707 660.8531,271.1238 Q660.9469,271.077 661.0688,271.077 Q661.2656,271.077 661.4156,271.2363 Q661.575,271.3863 661.575,271.5926 Q661.575,271.7988 661.3688,272.0426 Q661.0688,272.3895 660.5906,272.5863 Q659.9438,272.8582 659.1656,272.8582 Q658.2563,272.8582 657.5344,272.4832 Q656.9438,272.1832 656.5313,271.5457 Q656.1188,270.8988 656.1188,270.1301 L656.1188,269.4363 Q656.1188,268.6395 656.4844,267.9551 Q656.8594,267.2613 657.5156,266.8957 Q658.1719,266.5207 658.9125,266.5207 Q659.3531,266.5207 659.7375,266.6238 Q660.1313,266.7176 660.4594,266.9332 Z " fill="#000000"/><text fill="#000000" font-family="sans-serif" font-size="8.4" lengthAdjust="spacing" textLength="15.6" x="667.2" y="272.8863">Size</text></g><!--class Column--><g id="elem_Column"><rect codeLine="32" fill="#F1F1F1" height="19.2" id="Column" rx="1.5" ry="1.5" style="stroke:#181818;stroke-width:0.3;" width="48" x="732.6" y="259.8082"/><ellipse cx="741.6" cy="269.4082" fill="#ADD1B2" rx="6.6" ry="6.6" style="stroke:#181818;stroke-width:0.6;"/><path d="M743.2594,266.9332 Q743.3531,266.802 743.4656,266.7363 Q743.5781,266.6707 743.7094,266.6707 Q743.9344,266.6707 744.075,266.8301 Q744.2156,266.9801 744.2156,267.3457 L744.2156,268.2176 Q744.2156,268.5832 744.075,268.7426 Q743.9344,268.902 743.7094,268.902 Q743.5031,268.902 743.3813,268.7801 Q743.2594,268.6676 743.1938,268.3582 Q743.1656,268.1426 743.0531,268.0301 Q742.8562,267.8051 742.4906,267.6738 Q742.125,267.5426 741.75,267.5426 Q741.2906,267.5426 740.9063,267.7395 Q740.5313,267.9363 740.2312,268.3863 Q739.9406,268.8363 739.9406,269.4551 L739.9406,270.1113 Q739.9406,270.852 740.475,271.3488 Q741.0094,271.8363 741.9656,271.8363 Q742.5281,271.8363 742.9219,271.6863 Q743.1563,271.5926 743.4094,271.3301 Q743.5688,271.1707 743.6531,271.1238 Q743.7469,271.077 743.8688,271.077 Q744.0656,271.077 744.2156,271.2363 Q744.375,271.3863 744.375,271.5926 Q744.375,271.7988 744.1687,272.0426 Q743.8688,272.3895 743.3906,272.5863 Q742.7438,272.8582 741.9656,272.8582 Q741.0563,272.8582 740.3344,272.4832 Q739.7438,272.1832 739.3313,271.5457 Q738.9187,270.8988 738.9187,270.1301 L738.9187,269.4363 Q738.9187,268.6395 739.2844,267.9551 Q739.6594,267.2613 740.3156,266.8957 Q740.9719,266.5207 741.7125,266.5207 Q742.1531,266.5207 742.5375,266.6238 Q742.9313,266.7176 743.2594,266.9332 Z " fill="#000000"/><text fill="#000000" font-family="sans-serif" font-size="8.4" lengthAdjust="spacing" textLength="28.8" x="750" y="272.8863">Column</text></g><!--class Entity--><g id="elem_Entity"><rect codeLine="33" fill="#F1F1F1" height="19.2" id="Entity" rx="1.5" ry="1.5" style="stroke:#181818;stroke-width:0.3;" width="40.2" x="801.9" y="259.8082"/><ellipse cx="810.9" cy="269.4082" fill="#ADD1B2" rx="6.6" ry="6.6" style="stroke:#181818;stroke-width:0.6;"/><path d="M812.5594,266.9332 Q812.6531,266.802 812.7656,266.7363 Q812.8781,266.6707 813.0094,266.6707 Q813.2344,266.6707 813.375,266.8301 Q813.5156,266.9801 813.5156,267.3457 L813.5156,268.2176 Q813.5156,268.5832 813.375,268.7426 Q813.2344,268.902 813.0094,268.902 Q812.8031,268.902 812.6813,268.7801 Q812.5594,268.6676 812.4938,268.3582 Q812.4656,268.1426 812.3531,268.0301 Q812.1563,267.8051 811.7906,267.6738 Q811.425,267.5426 811.05,267.5426 Q810.5906,267.5426 810.2063,267.7395 Q809.8313,267.9363 809.5313,268.3863 Q809.2406,268.8363 809.2406,269.4551 L809.2406,270.1113 Q809.2406,270.852 809.775,271.3488 Q810.3094,271.8363 811.2656,271.8363 Q811.8281,271.8363 812.2219,271.6863 Q812.4563,271.5926 812.7094,271.3301 Q812.8688,271.1707 812.9531,271.1238 Q813.0469,271.077 813.1687,271.077 Q813.3656,271.077 813.5156,271.2363 Q813.675,271.3863 813.675,271.5926 Q813.675,271.7988 813.4688,272.0426 Q813.1687,272.3895 812.6906,272.5863 Q812.0437,272.8582 811.2656,272.8582 Q810.3562,272.8582 809.6344,272.4832 Q809.0437,272.1832 808.6313,271.5457 Q808.2188,270.8988 808.2188,270.1301 L808.2188,269.4363 Q808.2188,268.6395 808.5844,267.9551 Q808.9594,267.2613 809.6156,266.8957 Q810.2719,266.5207 811.0125,266.5207 Q811.4531,266.5207 811.8375,266.6238 Q812.2312,266.7176 812.5594,266.9332 Z " fill="#000000"/><text fill="#000000" font-family="sans-serif" font-size="8.4" lengthAdjust="spacing" textLength="21" x="819.3" y="272.8863">Entity</text></g><!--class GeneratedValue--><g id="elem_GeneratedValue"><rect codeLine="34" fill="#F1F1F1" height="19.2" id="GeneratedValue" rx="1.5" ry="1.5" style="stroke:#181818;stroke-width:0.3;" width="81.6" x="863.4" y="259.8082"/><ellipse cx="872.4" cy="269.4082" fill="#ADD1B2" rx="6.6" ry="6.6" style="stroke:#181818;stroke-width:0.6;"/><path d="M874.0594,266.9332 Q874.1531,266.802 874.2656,266.7363 Q874.3781,266.6707 874.5094,266.6707 Q874.7344,266.6707 874.875,266.8301 Q875.0156,266.9801 875.0156,267.3457 L875.0156,268.2176 Q875.0156,268.5832 874.875,268.7426 Q874.7344,268.902 874.5094,268.902 Q874.3031,268.902 874.1813,268.7801 Q874.0594,268.6676 873.9938,268.3582 Q873.9656,268.1426 873.8531,268.0301 Q873.6563,267.8051 873.2906,267.6738 Q872.925,267.5426 872.55,267.5426 Q872.0906,267.5426 871.7063,267.7395 Q871.3313,267.9363 871.0313,268.3863 Q870.7406,268.8363 870.7406,269.4551 L870.7406,270.1113 Q870.7406,270.852 871.275,271.3488 Q871.8094,271.8363 872.7656,271.8363 Q873.3281,271.8363 873.7219,271.6863 Q873.9563,271.5926 874.2094,271.3301 Q874.3688,271.1707 874.4531,271.1238 Q874.5469,271.077 874.6687,271.077 Q874.8656,271.077 875.0156,271.2363 Q875.175,271.3863 875.175,271.5926 Q875.175,271.7988 874.9688,272.0426 Q874.6687,272.3895 874.1906,272.5863 Q873.5437,272.8582 872.7656,272.8582 Q871.8562,272.8582 871.1344,272.4832 Q870.5437,272.1832 870.1313,271.5457 Q869.7188,270.8988 869.7188,270.1301 L869.7188,269.4363 Q869.7188,268.6395 870.0844,267.9551 Q870.4594,267.2613 871.1156,266.8957 Q871.7719,266.5207 872.5125,266.5207 Q872.9531,266.5207 873.3375,266.6238 Q873.7312,266.7176 874.0594,266.9332 Z " fill="#000000"/><text fill="#000000" font-family="sans-serif" font-size="8.4" lengthAdjust="spacing" textLength="62.4" x="880.8" y="272.8863">GeneratedValue</text></g><!--class Id--><g id="elem_Id"><rect codeLine="35" fill="#F1F1F1" height="19.2" id="Id" rx="1.5" ry="1.5" style="stroke:#181818;stroke-width:0.3;" width="25.8" x="966.3" y="259.8082"/><ellipse cx="975.3" cy="269.4082" fill="#ADD1B2" rx="6.6" ry="6.6" style="stroke:#181818;stroke-width:0.6;"/><path d="M976.9594,266.9332 Q977.0531,266.802 977.1656,266.7363 Q977.2781,266.6707 977.4094,266.6707 Q977.6344,266.6707 977.775,266.8301 Q977.9156,266.9801 977.9156,267.3457 L977.9156,268.2176 Q977.9156,268.5832 977.775,268.7426 Q977.6344,268.902 977.4094,268.902 Q977.2031,268.902 977.0813,268.7801 Q976.9594,268.6676 976.8938,268.3582 Q976.8656,268.1426 976.7531,268.0301 Q976.5563,267.8051 976.1906,267.6738 Q975.825,267.5426 975.45,267.5426 Q974.9906,267.5426 974.6062,267.7395 Q974.2312,267.9363 973.9313,268.3863 Q973.6406,268.8363 973.6406,269.4551 L973.6406,270.1113 Q973.6406,270.852 974.175,271.3488 Q974.7094,271.8363 975.6656,271.8363 Q976.2281,271.8363 976.6219,271.6863 Q976.8562,271.5926 977.1094,271.3301 Q977.2688,271.1707 977.3531,271.1238 Q977.4469,271.077 977.5687,271.077 Q977.7656,271.077 977.9156,271.2363 Q978.075,271.3863 978.075,271.5926 Q978.075,271.7988 977.8688,272.0426 Q977.5687,272.3895 977.0906,272.5863 Q976.4437,272.8582 975.6656,272.8582 Q974.7562,272.8582 974.0344,272.4832 Q973.4437,272.1832 973.0313,271.5457 Q972.6188,270.8988 972.6188,270.1301 L972.6188,269.4363 Q972.6188,268.6395 972.9844,267.9551 Q973.3594,267.2613 974.0156,266.8957 Q974.6719,266.5207 975.4125,266.5207 Q975.8531,266.5207 976.2375,266.6238 Q976.6312,266.7176 976.9594,266.9332 Z " fill="#000000"/><text fill="#000000" font-family="sans-serif" font-size="8.4" lengthAdjust="spacing" textLength="6.6" x="983.7" y="272.8863">Id</text></g><!--class NamedAttributeNode--><g id="elem_NamedAttributeNode"><rect codeLine="36" fill="#F1F1F1" height="19.2" id="NamedAttributeNode" rx="1.5" ry="1.5" style="stroke:#181818;stroke-width:0.3;" width="97.2" x="1013.4" y="259.8082"/><ellipse cx="1022.4" cy="269.4082" fill="#ADD1B2" rx="6.6" ry="6.6" style="stroke:#181818;stroke-width:0.6;"/><path d="M1024.0594,266.9332 Q1024.1531,266.802 1024.2656,266.7363 Q1024.3781,266.6707 1024.5094,266.6707 Q1024.7344,266.6707 1024.875,266.8301 Q1025.0156,266.9801 1025.0156,267.3457 L1025.0156,268.2176 Q1025.0156,268.5832 1024.875,268.7426 Q1024.7344,268.902 1024.5094,268.902 Q1024.3031,268.902 1024.1812,268.7801 Q1024.0594,268.6676 1023.9938,268.3582 Q1023.9656,268.1426 1023.8531,268.0301 Q1023.6563,267.8051 1023.2906,267.6738 Q1022.925,267.5426 1022.55,267.5426 Q1022.0906,267.5426 1021.7063,267.7395 Q1021.3313,267.9363 1021.0313,268.3863 Q1020.7406,268.8363 1020.7406,269.4551 L1020.7406,270.1113 Q1020.7406,270.852 1021.275,271.3488 Q1021.8094,271.8363 1022.7656,271.8363 Q1023.3281,271.8363 1023.7219,271.6863 Q1023.9563,271.5926 1024.2094,271.3301 Q1024.3687,271.1707 1024.4531,271.1238 Q1024.5469,271.077 1024.6688,271.077 Q1024.8656,271.077 1025.0156,271.2363 Q1025.175,271.3863 1025.175,271.5926 Q1025.175,271.7988 1024.9688,272.0426 Q1024.6688,272.3895 1024.1906,272.5863 Q1023.5437,272.8582 1022.7656,272.8582 Q1021.8562,272.8582 1021.1344,272.4832 Q1020.5437,272.1832 1020.1312,271.5457 Q1019.7188,270.8988 1019.7188,270.1301 L1019.7188,269.4363 Q1019.7188,268.6395 1020.0844,267.9551 Q1020.4594,267.2613 1021.1156,266.8957 Q1021.7719,266.5207 1022.5125,266.5207 Q1022.9531,266.5207 1023.3375,266.6238 Q1023.7312,266.7176 1024.0594,266.9332 Z " fill="#000000"/><text fill="#000000" font-family="sans-serif" font-size="8.4" lengthAdjust="spacing" textLength="78" x="1030.8" y="272.8863">NamedAttributeNode</text></g><!--class NamedEntityGraph--><g id="elem_NamedEntityGraph"><rect codeLine="37" fill="#F1F1F1" height="19.2" id="NamedEntityGraph" rx="1.5" ry="1.5" style="stroke:#181818;stroke-width:0.3;" width="90.6" x="1131.9" y="259.8082"/><ellipse cx="1140.9" cy="269.4082" fill="#ADD1B2" rx="6.6" ry="6.6" style="stroke:#181818;stroke-width:0.6;"/><path d="M1142.5594,266.9332 Q1142.6531,266.802 1142.7656,266.7363 Q1142.8781,266.6707 1143.0094,266.6707 Q1143.2344,266.6707 1143.375,266.8301 Q1143.5156,266.9801 1143.5156,267.3457 L1143.5156,268.2176 Q1143.5156,268.5832 1143.375,268.7426 Q1143.2344,268.902 1143.0094,268.902 Q1142.8031,268.902 1142.6812,268.7801 Q1142.5594,268.6676 1142.4937,268.3582 Q1142.4656,268.1426 1142.3531,268.0301 Q1142.1563,267.8051 1141.7906,267.6738 Q1141.425,267.5426 1141.05,267.5426 Q1140.5906,267.5426 1140.2063,267.7395 Q1139.8313,267.9363 1139.5313,268.3863 Q1139.2406,268.8363 1139.2406,269.4551 L1139.2406,270.1113 Q1139.2406,270.852 1139.775,271.3488 Q1140.3094,271.8363 1141.2656,271.8363 Q1141.8281,271.8363 1142.2219,271.6863 Q1142.4563,271.5926 1142.7094,271.3301 Q1142.8687,271.1707 1142.9531,271.1238 Q1143.0469,271.077 1143.1688,271.077 Q1143.3656,271.077 1143.5156,271.2363 Q1143.675,271.3863 1143.675,271.5926 Q1143.675,271.7988 1143.4688,272.0426 Q1143.1688,272.3895 1142.6906,272.5863 Q1142.0438,272.8582 1141.2656,272.8582 Q1140.3563,272.8582 1139.6344,272.4832 Q1139.0438,272.1832 1138.6313,271.5457 Q1138.2188,270.8988 1138.2188,270.1301 L1138.2188,269.4363 Q1138.2188,268.6395 1138.5844,267.9551 Q1138.9594,267.2613 1139.6156,266.8957 Q1140.2719,266.5207 1141.0125,266.5207 Q1141.4531,266.5207 1141.8375,266.6238 Q1142.2313,266.7176 1142.5594,266.9332 Z " fill="#000000"/><text fill="#000000" font-family="sans-serif" font-size="8.4" lengthAdjust="spacing" textLength="71.4" x="1149.3" y="272.8863">NamedEntityGraph</text></g><!--class OneToOne--><g id="elem_OneToOne"><rect codeLine="38" fill="#F1F1F1" height="19.2" id="OneToOne" rx="1.5" ry="1.5" style="stroke:#181818;stroke-width:0.3;" width="61.8" x="1243.5" y="259.8082"/><ellipse cx="1252.5" cy="269.4082" fill="#ADD1B2" rx="6.6" ry="6.6" style="stroke:#181818;stroke-width:0.6;"/><path d="M1254.1594,266.9332 Q1254.2531,266.802 1254.3656,266.7363 Q1254.4781,266.6707 1254.6094,266.6707 Q1254.8344,266.6707 1254.975,266.8301 Q1255.1156,266.9801 1255.1156,267.3457 L1255.1156,268.2176 Q1255.1156,268.5832 1254.975,268.7426 Q1254.8344,268.902 1254.6094,268.902 Q1254.4031,268.902 1254.2813,268.7801 Q1254.1594,268.6676 1254.0938,268.3582 Q1254.0656,268.1426 1253.9531,268.0301 Q1253.7563,267.8051 1253.3906,267.6738 Q1253.025,267.5426 1252.65,267.5426 Q1252.1906,267.5426 1251.8062,267.7395 Q1251.4312,267.9363 1251.1313,268.3863 Q1250.8406,268.8363 1250.8406,269.4551 L1250.8406,270.1113 Q1250.8406,270.852 1251.375,271.3488 Q1251.9094,271.8363 1252.8656,271.8363 Q1253.4281,271.8363 1253.8219,271.6863 Q1254.0562,271.5926 1254.3094,271.3301 Q1254.4688,271.1707 1254.5531,271.1238 Q1254.6469,271.077 1254.7688,271.077 Q1254.9656,271.077 1255.1156,271.2363 Q1255.275,271.3863 1255.275,271.5926 Q1255.275,271.7988 1255.0688,272.0426 Q1254.7688,272.3895 1254.2906,272.5863 Q1253.6438,272.8582 1252.8656,272.8582 Q1251.9563,272.8582 1251.2344,272.4832 Q1250.6438,272.1832 1250.2313,271.5457 Q1249.8188,270.8988 1249.8188,270.1301 L1249.8188,269.4363 Q1249.8188,268.6395 1250.1844,267.9551 Q1250.5594,267.2613 1251.2156,266.8957 Q1251.8719,266.5207 1252.6125,266.5207 Q1253.0531,266.5207 1253.4375,266.6238 Q1253.8313,266.7176 1254.1594,266.9332 Z " fill="#000000"/><text fill="#000000" font-family="sans-serif" font-size="8.4" lengthAdjust="spacing" textLength="42.6" x="1260.9" y="272.8863">OneToOne</text></g><!--class Table--><g id="elem_Table"><rect codeLine="39" fill="#F1F1F1" height="19.2" id="Table" rx="1.5" ry="1.5" style="stroke:#181818;stroke-width:0.3;" width="40.8" x="1326.6" y="259.8082"/><ellipse cx="1335.6" cy="269.4082" fill="#ADD1B2" rx="6.6" ry="6.6" style="stroke:#181818;stroke-width:0.6;"/><path d="M1337.2594,266.9332 Q1337.3531,266.802 1337.4656,266.7363 Q1337.5781,266.6707 1337.7094,266.6707 Q1337.9344,266.6707 1338.075,266.8301 Q1338.2156,266.9801 1338.2156,267.3457 L1338.2156,268.2176 Q1338.2156,268.5832 1338.075,268.7426 Q1337.9344,268.902 1337.7094,268.902 Q1337.5031,268.902 1337.3813,268.7801 Q1337.2594,268.6676 1337.1938,268.3582 Q1337.1656,268.1426 1337.0531,268.0301 Q1336.8563,267.8051 1336.4906,267.6738 Q1336.125,267.5426 1335.75,267.5426 Q1335.2906,267.5426 1334.9063,267.7395 Q1334.5313,267.9363 1334.2313,268.3863 Q1333.9406,268.8363 1333.9406,269.4551 L1333.9406,270.1113 Q1333.9406,270.852 1334.475,271.3488 Q1335.0094,271.8363 1335.9656,271.8363 Q1336.5281,271.8363 1336.9219,271.6863 Q1337.1563,271.5926 1337.4094,271.3301 Q1337.5688,271.1707 1337.6531,271.1238 Q1337.7469,271.077 1337.8687,271.077 Q1338.0656,271.077 1338.2156,271.2363 Q1338.375,271.3863 1338.375,271.5926 Q1338.375,271.7988 1338.1688,272.0426 Q1337.8687,272.3895 1337.3906,272.5863 Q1336.7437,272.8582 1335.9656,272.8582 Q1335.0562,272.8582 1334.3344,272.4832 Q1333.7437,272.1832 1333.3313,271.5457 Q1332.9188,270.8988 1332.9188,270.1301 L1332.9188,269.4363 Q1332.9188,268.6395 1333.2844,267.9551 Q1333.6594,267.2613 1334.3156,266.8957 Q1334.9719,266.5207 1335.7125,266.5207 Q1336.1531,266.5207 1336.5375,266.6238 Q1336.9312,266.7176 1337.2594,266.9332 Z " fill="#000000"/><text fill="#000000" font-family="sans-serif" font-size="8.4" lengthAdjust="spacing" textLength="21.6" x="1344" y="272.8863">Table</text></g><!--class Transient--><g id="elem_Transient"><rect codeLine="40" fill="#F1F1F1" height="19.2" id="Transient" rx="1.5" ry="1.5" style="stroke:#181818;stroke-width:0.3;" width="55.2" x="1388.4" y="259.8082"/><ellipse cx="1397.4" cy="269.4082" fill="#ADD1B2" rx="6.6" ry="6.6" style="stroke:#181818;stroke-width:0.6;"/><path d="M1399.0594,266.9332 Q1399.1531,266.802 1399.2656,266.7363 Q1399.3781,266.6707 1399.5094,266.6707 Q1399.7344,266.6707 1399.875,266.8301 Q1400.0156,266.9801 1400.0156,267.3457 L1400.0156,268.2176 Q1400.0156,268.5832 1399.875,268.7426 Q1399.7344,268.902 1399.5094,268.902 Q1399.3031,268.902 1399.1812,268.7801 Q1399.0594,268.6676 1398.9937,268.3582 Q1398.9656,268.1426 1398.8531,268.0301 Q1398.6563,267.8051 1398.2906,267.6738 Q1397.925,267.5426 1397.55,267.5426 Q1397.0906,267.5426 1396.7063,267.7395 Q1396.3313,267.9363 1396.0313,268.3863 Q1395.7406,268.8363 1395.7406,269.4551 L1395.7406,270.1113 Q1395.7406,270.852 1396.275,271.3488 Q1396.8094,271.8363 1397.7656,271.8363 Q1398.3281,271.8363 1398.7219,271.6863 Q1398.9563,271.5926 1399.2094,271.3301 Q1399.3687,271.1707 1399.4531,271.1238 Q1399.5469,271.077 1399.6688,271.077 Q1399.8656,271.077 1400.0156,271.2363 Q1400.175,271.3863 1400.175,271.5926 Q1400.175,271.7988 1399.9688,272.0426 Q1399.6688,272.3895 1399.1906,272.5863 Q1398.5438,272.8582 1397.7656,272.8582 Q1396.8563,272.8582 1396.1344,272.4832 Q1395.5438,272.1832 1395.1313,271.5457 Q1394.7188,270.8988 1394.7188,270.1301 L1394.7188,269.4363 Q1394.7188,268.6395 1395.0844,267.9551 Q1395.4594,267.2613 1396.1156,266.8957 Q1396.7719,266.5207 1397.5125,266.5207 Q1397.9531,266.5207 1398.3375,266.6238 Q1398.7313,266.7176 1399.0594,266.9332 Z " fill="#000000"/><text fill="#000000" font-family="sans-serif" font-size="8.4" lengthAdjust="spacing" textLength="36" x="1405.8" y="272.8863">Transient</text></g><!--class Version--><g id="elem_Version"><rect codeLine="41" fill="#F1F1F1" height="19.2" id="Version" rx="1.5" ry="1.5" style="stroke:#181818;stroke-width:0.3;" width="48" x="1464.6" y="259.8082"/><ellipse cx="1473.6" cy="269.4082" fill="#ADD1B2" rx="6.6" ry="6.6" style="stroke:#181818;stroke-width:0.6;"/><path d="M1475.2594,266.9332 Q1475.3531,266.802 1475.4656,266.7363 Q1475.5781,266.6707 1475.7094,266.6707 Q1475.9344,266.6707 1476.075,266.8301 Q1476.2156,266.9801 1476.2156,267.3457 L1476.2156,268.2176 Q1476.2156,268.5832 1476.075,268.7426 Q1475.9344,268.902 1475.7094,268.902 Q1475.5031,268.902 1475.3813,268.7801 Q1475.2594,268.6676 1475.1938,268.3582 Q1475.1656,268.1426 1475.0531,268.0301 Q1474.8563,267.8051 1474.4906,267.6738 Q1474.125,267.5426 1473.75,267.5426 Q1473.2906,267.5426 1472.9063,267.7395 Q1472.5313,267.9363 1472.2313,268.3863 Q1471.9406,268.8363 1471.9406,269.4551 L1471.9406,270.1113 Q1471.9406,270.852 1472.475,271.3488 Q1473.0094,271.8363 1473.9656,271.8363 Q1474.5281,271.8363 1474.9219,271.6863 Q1475.1563,271.5926 1475.4094,271.3301 Q1475.5688,271.1707 1475.6531,271.1238 Q1475.7469,271.077 1475.8687,271.077 Q1476.0656,271.077 1476.2156,271.2363 Q1476.375,271.3863 1476.375,271.5926 Q1476.375,271.7988 1476.1688,272.0426 Q1475.8687,272.3895 1475.3906,272.5863 Q1474.7437,272.8582 1473.9656,272.8582 Q1473.0562,272.8582 1472.3344,272.4832 Q1471.7437,272.1832 1471.3313,271.5457 Q1470.9188,270.8988 1470.9188,270.1301 L1470.9188,269.4363 Q1470.9188,268.6395 1471.2844,267.9551 Q1471.6594,267.2613 1472.3156,266.8957 Q1472.9719,266.5207 1473.7125,266.5207 Q1474.1531,266.5207 1474.5375,266.6238 Q1474.9312,266.7176 1475.2594,266.9332 Z " fill="#000000"/><text fill="#000000" font-family="sans-serif" font-size="8.4" lengthAdjust="spacing" textLength="28.8" x="1482" y="272.8863">Version</text></g><!--class PERSIST--><g id="elem_PERSIST"><rect codeLine="43" fill="#F1F1F1" height="19.2" id="PERSIST" rx="1.5" ry="1.5" style="stroke:#181818;stroke-width:0.3;" width="54" x="1533.6" y="259.8082"/><ellipse cx="1542.6" cy="269.4082" fill="#EB937F" rx="6.6" ry="6.6" style="stroke:#181818;stroke-width:0.6;"/><path d="M1541.9156,269.8863 L1541.9156,271.3863 L1544.5125,271.3863 L1544.5125,270.8332 Q1544.5125,270.4676 1544.6531,270.3082 Q1544.8031,270.1488 1545.0281,270.1488 Q1545.2531,270.1488 1545.3938,270.3082 Q1545.5344,270.4676 1545.5344,270.8332 L1545.5344,272.4082 L1540.7344,272.4082 Q1540.3594,272.4082 1540.2,272.2676 Q1540.05,272.127 1540.05,271.8926 Q1540.05,271.6676 1540.2094,271.527 Q1540.3687,271.3863 1540.7344,271.3863 L1540.8938,271.3863 L1540.8938,267.3926 L1540.7344,267.3926 Q1540.3594,267.3926 1540.2,267.252 Q1540.05,267.1113 1540.05,266.877 Q1540.05,266.652 1540.2,266.5113 Q1540.3594,266.3707 1540.7344,266.3707 L1545.3094,266.3707 L1545.3094,267.927 Q1545.3094,268.2926 1545.1688,268.452 Q1545.0375,268.602 1544.8031,268.602 Q1544.5781,268.602 1544.4375,268.452 Q1544.2969,268.2926 1544.2969,267.927 L1544.2969,267.3926 L1541.9156,267.3926 L1541.9156,268.8645 L1542.8062,268.8645 Q1542.8062,268.4707 1542.8813,268.3582 Q1543.0406,268.1145 1543.3219,268.1145 Q1543.5469,268.1145 1543.6875,268.2738 Q1543.8281,268.4238 1543.8281,268.7895 L1543.8281,269.9707 Q1543.8281,270.2988 1543.7531,270.4113 Q1543.5938,270.6457 1543.3219,270.6457 Q1543.0406,270.6457 1542.8813,270.402 Q1542.8062,270.2895 1542.8062,269.8863 L1541.9156,269.8863 Z " fill="#000000"/><text fill="#000000" font-family="sans-serif" font-size="8.4" lengthAdjust="spacing" textLength="34.8" x="1551" y="272.8863">PERSIST</text></g><!--class REMOVE--><g id="elem_REMOVE"><rect codeLine="44" fill="#F1F1F1" height="19.2" id="REMOVE" rx="1.5" ry="1.5" style="stroke:#181818;stroke-width:0.3;" width="54.6" x="1608.9" y="259.8082"/><ellipse cx="1617.9" cy="269.4082" fill="#EB937F" rx="6.6" ry="6.6" style="stroke:#181818;stroke-width:0.6;"/><path d="M1617.2156,269.8863 L1617.2156,271.3863 L1619.8125,271.3863 L1619.8125,270.8332 Q1619.8125,270.4676 1619.9531,270.3082 Q1620.1031,270.1488 1620.3281,270.1488 Q1620.5531,270.1488 1620.6938,270.3082 Q1620.8344,270.4676 1620.8344,270.8332 L1620.8344,272.4082 L1616.0344,272.4082 Q1615.6594,272.4082 1615.5,272.2676 Q1615.35,272.127 1615.35,271.8926 Q1615.35,271.6676 1615.5094,271.527 Q1615.6688,271.3863 1616.0344,271.3863 L1616.1938,271.3863 L1616.1938,267.3926 L1616.0344,267.3926 Q1615.6594,267.3926 1615.5,267.252 Q1615.35,267.1113 1615.35,266.877 Q1615.35,266.652 1615.5,266.5113 Q1615.6594,266.3707 1616.0344,266.3707 L1620.6094,266.3707 L1620.6094,267.927 Q1620.6094,268.2926 1620.4688,268.452 Q1620.3375,268.602 1620.1031,268.602 Q1619.8781,268.602 1619.7375,268.452 Q1619.5969,268.2926 1619.5969,267.927 L1619.5969,267.3926 L1617.2156,267.3926 L1617.2156,268.8645 L1618.1063,268.8645 Q1618.1063,268.4707 1618.1812,268.3582 Q1618.3406,268.1145 1618.6219,268.1145 Q1618.8469,268.1145 1618.9875,268.2738 Q1619.1281,268.4238 1619.1281,268.7895 L1619.1281,269.9707 Q1619.1281,270.2988 1619.0531,270.4113 Q1618.8938,270.6457 1618.6219,270.6457 Q1618.3406,270.6457 1618.1812,270.402 Q1618.1063,270.2895 1618.1063,269.8863 L1617.2156,269.8863 Z " fill="#000000"/><text fill="#000000" font-family="sans-serif" font-size="8.4" lengthAdjust="spacing" textLength="35.4" x="1626.3" y="272.8863">REMOVE</text></g><!--class LAZY--><g id="elem_LAZY"><rect codeLine="47" fill="#F1F1F1" height="19.2" id="LAZY" rx="1.5" ry="1.5" style="stroke:#181818;stroke-width:0.3;" width="39.6" x="1697.4" y="259.8082"/><ellipse cx="1706.4" cy="269.4082" fill="#EB937F" rx="6.6" ry="6.6" style="stroke:#181818;stroke-width:0.6;"/><path d="M1705.7156,269.8863 L1705.7156,271.3863 L1708.3125,271.3863 L1708.3125,270.8332 Q1708.3125,270.4676 1708.4531,270.3082 Q1708.6031,270.1488 1708.8281,270.1488 Q1709.0531,270.1488 1709.1938,270.3082 Q1709.3344,270.4676 1709.3344,270.8332 L1709.3344,272.4082 L1704.5344,272.4082 Q1704.1594,272.4082 1704,272.2676 Q1703.85,272.127 1703.85,271.8926 Q1703.85,271.6676 1704.0094,271.527 Q1704.1688,271.3863 1704.5344,271.3863 L1704.6938,271.3863 L1704.6938,267.3926 L1704.5344,267.3926 Q1704.1594,267.3926 1704,267.252 Q1703.85,267.1113 1703.85,266.877 Q1703.85,266.652 1704,266.5113 Q1704.1594,266.3707 1704.5344,266.3707 L1709.1094,266.3707 L1709.1094,267.927 Q1709.1094,268.2926 1708.9688,268.452 Q1708.8375,268.602 1708.6031,268.602 Q1708.3781,268.602 1708.2375,268.452 Q1708.0969,268.2926 1708.0969,267.927 L1708.0969,267.3926 L1705.7156,267.3926 L1705.7156,268.8645 L1706.6063,268.8645 Q1706.6063,268.4707 1706.6812,268.3582 Q1706.8406,268.1145 1707.1219,268.1145 Q1707.3469,268.1145 1707.4875,268.2738 Q1707.6281,268.4238 1707.6281,268.7895 L1707.6281,269.9707 Q1707.6281,270.2988 1707.5531,270.4113 Q1707.3938,270.6457 1707.1219,270.6457 Q1706.8406,270.6457 1706.6812,270.402 Q1706.6063,270.2895 1706.6063,269.8863 L1705.7156,269.8863 Z " fill="#000000"/><text fill="#000000" font-family="sans-serif" font-size="8.4" lengthAdjust="spacing" textLength="20.4" x="1714.8" y="272.8863">LAZY</text></g><!--class Builder--><g id="elem_Builder"><rect codeLine="53" fill="#F1F1F1" height="19.2" id="Builder" rx="1.5" ry="1.5" style="stroke:#181818;stroke-width:0.3;" width="45.6" x="1799.4" y="259.8082"/><ellipse cx="1808.4" cy="269.4082" fill="#B4A7E5" rx="6.6" ry="6.6" style="stroke:#181818;stroke-width:0.6;"/><path d="M1808.9719,267.3926 L1808.9719,271.3863 L1810.0031,271.3863 Q1810.3687,271.3863 1810.5281,271.527 Q1810.6875,271.6676 1810.6875,271.902 Q1810.6875,272.127 1810.5281,272.2676 Q1810.3687,272.4082 1810.0031,272.4082 L1806.9188,272.4082 Q1806.5531,272.4082 1806.3938,272.2676 Q1806.2344,272.127 1806.2344,271.8926 Q1806.2344,271.6676 1806.3938,271.527 Q1806.5531,271.3863 1806.9188,271.3863 L1807.95,271.3863 L1807.95,267.3926 L1806.9188,267.3926 Q1806.5531,267.3926 1806.3938,267.252 Q1806.2344,267.1113 1806.2344,266.877 Q1806.2344,266.652 1806.3938,266.5113 Q1806.5531,266.3707 1806.9188,266.3707 L1810.0031,266.3707 Q1810.3687,266.3707 1810.5281,266.5113 Q1810.6875,266.652 1810.6875,266.877 Q1810.6875,267.1113 1810.5281,267.252 Q1810.3687,267.3926 1810.0031,267.3926 L1808.9719,267.3926 Z " fill="#000000"/><text fill="#000000" font-family="sans-serif" font-size="8.4" font-style="italic" lengthAdjust="spacing" textLength="26.4" x="1816.8" y="272.8863">Builder</text></g><!--class EqualsAndHashCode--><g id="elem_EqualsAndHashCode"><rect codeLine="54" fill="#F1F1F1" height="19.2" id="EqualsAndHashCode" rx="1.5" ry="1.5" style="stroke:#181818;stroke-width:0.3;" width="100.2" x="1866.3" y="259.8082"/><ellipse cx="1875.3" cy="269.4082" fill="#B4A7E5" rx="6.6" ry="6.6" style="stroke:#181818;stroke-width:0.6;"/><path d="M1875.8719,267.3926 L1875.8719,271.3863 L1876.9031,271.3863 Q1877.2688,271.3863 1877.4281,271.527 Q1877.5875,271.6676 1877.5875,271.902 Q1877.5875,272.127 1877.4281,272.2676 Q1877.2688,272.4082 1876.9031,272.4082 L1873.8188,272.4082 Q1873.4531,272.4082 1873.2937,272.2676 Q1873.1344,272.127 1873.1344,271.8926 Q1873.1344,271.6676 1873.2937,271.527 Q1873.4531,271.3863 1873.8188,271.3863 L1874.85,271.3863 L1874.85,267.3926 L1873.8188,267.3926 Q1873.4531,267.3926 1873.2937,267.252 Q1873.1344,267.1113 1873.1344,266.877 Q1873.1344,266.652 1873.2937,266.5113 Q1873.4531,266.3707 1873.8188,266.3707 L1876.9031,266.3707 Q1877.2688,266.3707 1877.4281,266.5113 Q1877.5875,266.652 1877.5875,266.877 Q1877.5875,267.1113 1877.4281,267.252 Q1877.2688,267.3926 1876.9031,267.3926 L1875.8719,267.3926 Z " fill="#000000"/><text fill="#000000" font-family="sans-serif" font-size="8.4" font-style="italic" lengthAdjust="spacing" textLength="81" x="1883.7" y="272.8863">EqualsAndHashCode</text></g><!--class Getter--><g id="elem_Getter"><rect codeLine="55" fill="#F1F1F1" height="19.2" id="Getter" rx="1.5" ry="1.5" style="stroke:#181818;stroke-width:0.3;" width="43.2" x="1987.8" y="259.8082"/><ellipse cx="1996.8" cy="269.4082" fill="#B4A7E5" rx="6.6" ry="6.6" style="stroke:#181818;stroke-width:0.6;"/><path d="M1997.3719,267.3926 L1997.3719,271.3863 L1998.4031,271.3863 Q1998.7688,271.3863 1998.9281,271.527 Q1999.0875,271.6676 1999.0875,271.902 Q1999.0875,272.127 1998.9281,272.2676 Q1998.7688,272.4082 1998.4031,272.4082 L1995.3188,272.4082 Q1994.9531,272.4082 1994.7937,272.2676 Q1994.6344,272.127 1994.6344,271.8926 Q1994.6344,271.6676 1994.7937,271.527 Q1994.9531,271.3863 1995.3188,271.3863 L1996.35,271.3863 L1996.35,267.3926 L1995.3188,267.3926 Q1994.9531,267.3926 1994.7937,267.252 Q1994.6344,267.1113 1994.6344,266.877 Q1994.6344,266.652 1994.7937,266.5113 Q1994.9531,266.3707 1995.3188,266.3707 L1998.4031,266.3707 Q1998.7688,266.3707 1998.9281,266.5113 Q1999.0875,266.652 1999.0875,266.877 Q1999.0875,267.1113 1998.9281,267.252 Q1998.7688,267.3926 1998.4031,267.3926 L1997.3719,267.3926 Z " fill="#000000"/><text fill="#000000" font-family="sans-serif" font-size="8.4" font-style="italic" lengthAdjust="spacing" textLength="24" x="2005.2" y="272.8863">Getter</text></g><!--class Setter--><g id="elem_Setter"><rect codeLine="56" fill="#F1F1F1" height="19.2" id="Setter" rx="1.5" ry="1.5" style="stroke:#181818;stroke-width:0.3;" width="42" x="2052" y="259.8082"/><ellipse cx="2061" cy="269.4082" fill="#B4A7E5" rx="6.6" ry="6.6" style="stroke:#181818;stroke-width:0.6;"/><path d="M2061.5719,267.3926 L2061.5719,271.3863 L2062.6031,271.3863 Q2062.9688,271.3863 2063.1281,271.527 Q2063.2875,271.6676 2063.2875,271.902 Q2063.2875,272.127 2063.1281,272.2676 Q2062.9688,272.4082 2062.6031,272.4082 L2059.5187,272.4082 Q2059.1531,272.4082 2058.9938,272.2676 Q2058.8344,272.127 2058.8344,271.8926 Q2058.8344,271.6676 2058.9938,271.527 Q2059.1531,271.3863 2059.5187,271.3863 L2060.55,271.3863 L2060.55,267.3926 L2059.5187,267.3926 Q2059.1531,267.3926 2058.9938,267.252 Q2058.8344,267.1113 2058.8344,266.877 Q2058.8344,266.652 2058.9938,266.5113 Q2059.1531,266.3707 2059.5187,266.3707 L2062.6031,266.3707 Q2062.9688,266.3707 2063.1281,266.5113 Q2063.2875,266.652 2063.2875,266.877 Q2063.2875,267.1113 2063.1281,267.252 Q2062.9688,267.3926 2062.6031,267.3926 L2061.5719,267.3926 Z " fill="#000000"/><text fill="#000000" font-family="sans-serif" font-size="8.4" font-style="italic" lengthAdjust="spacing" textLength="22.8" x="2069.4" y="272.8863">Setter</text></g><!--class ToString--><g id="elem_ToString"><rect codeLine="57" fill="#F1F1F1" height="19.2" id="ToString" rx="1.5" ry="1.5" style="stroke:#181818;stroke-width:0.3;" width="51.6" x="2115" y="259.8082"/><ellipse cx="2124" cy="269.4082" fill="#B4A7E5" rx="6.6" ry="6.6" style="stroke:#181818;stroke-width:0.6;"/><path d="M2124.5719,267.3926 L2124.5719,271.3863 L2125.6031,271.3863 Q2125.9688,271.3863 2126.1281,271.527 Q2126.2875,271.6676 2126.2875,271.902 Q2126.2875,272.127 2126.1281,272.2676 Q2125.9688,272.4082 2125.6031,272.4082 L2122.5187,272.4082 Q2122.1531,272.4082 2121.9938,272.2676 Q2121.8344,272.127 2121.8344,271.8926 Q2121.8344,271.6676 2121.9938,271.527 Q2122.1531,271.3863 2122.5187,271.3863 L2123.55,271.3863 L2123.55,267.3926 L2122.5187,267.3926 Q2122.1531,267.3926 2121.9938,267.252 Q2121.8344,267.1113 2121.8344,266.877 Q2121.8344,266.652 2121.9938,266.5113 Q2122.1531,266.3707 2122.5187,266.3707 L2125.6031,266.3707 Q2125.9688,266.3707 2126.1281,266.5113 Q2126.2875,266.652 2126.2875,266.877 Q2126.2875,267.1113 2126.1281,267.252 Q2125.9688,267.3926 2125.6031,267.3926 L2124.5719,267.3926 Z " fill="#000000"/><text fill="#000000" font-family="sans-serif" font-size="8.4" font-style="italic" lengthAdjust="spacing" textLength="32.4" x="2132.4" y="272.8863">ToString</text></g><!--class AllArgsConstructor--><g id="elem_AllArgsConstructor"><rect codeLine="58" fill="#F1F1F1" height="19.2" id="AllArgsConstructor" rx="1.5" ry="1.5" style="stroke:#181818;stroke-width:0.3;" width="90" x="2187.6" y="259.8082"/><ellipse cx="2196.6" cy="269.4082" fill="#B4A7E5" rx="6.6" ry="6.6" style="stroke:#181818;stroke-width:0.6;"/><path d="M2197.1719,267.3926 L2197.1719,271.3863 L2198.2031,271.3863 Q2198.5688,271.3863 2198.7281,271.527 Q2198.8875,271.6676 2198.8875,271.902 Q2198.8875,272.127 2198.7281,272.2676 Q2198.5688,272.4082 2198.2031,272.4082 L2195.1188,272.4082 Q2194.7531,272.4082 2194.5938,272.2676 Q2194.4344,272.127 2194.4344,271.8926 Q2194.4344,271.6676 2194.5938,271.527 Q2194.7531,271.3863 2195.1188,271.3863 L2196.15,271.3863 L2196.15,267.3926 L2195.1188,267.3926 Q2194.7531,267.3926 2194.5938,267.252 Q2194.4344,267.1113 2194.4344,266.877 Q2194.4344,266.652 2194.5938,266.5113 Q2194.7531,266.3707 2195.1188,266.3707 L2198.2031,266.3707 Q2198.5688,266.3707 2198.7281,266.5113 Q2198.8875,266.652 2198.8875,266.877 Q2198.8875,267.1113 2198.7281,267.252 Q2198.5688,267.3926 2198.2031,267.3926 L2197.1719,267.3926 Z " fill="#000000"/><text fill="#000000" font-family="sans-serif" font-size="8.4" font-style="italic" lengthAdjust="spacing" textLength="70.8" x="2205" y="272.8863">AllArgsConstructor</text></g><!--class NoArgsConstructor--><g id="elem_NoArgsConstructor"><rect codeLine="59" fill="#F1F1F1" height="19.2" id="NoArgsConstructor" rx="1.5" ry="1.5" style="stroke:#181818;stroke-width:0.3;" width="91.8" x="2298.9" y="259.8082"/><ellipse cx="2307.9" cy="269.4082" fill="#B4A7E5" rx="6.6" ry="6.6" style="stroke:#181818;stroke-width:0.6;"/><path d="M2308.4719,267.3926 L2308.4719,271.3863 L2309.5031,271.3863 Q2309.8688,271.3863 2310.0281,271.527 Q2310.1875,271.6676 2310.1875,271.902 Q2310.1875,272.127 2310.0281,272.2676 Q2309.8688,272.4082 2309.5031,272.4082 L2306.4188,272.4082 Q2306.0531,272.4082 2305.8937,272.2676 Q2305.7344,272.127 2305.7344,271.8926 Q2305.7344,271.6676 2305.8937,271.527 Q2306.0531,271.3863 2306.4188,271.3863 L2307.45,271.3863 L2307.45,267.3926 L2306.4188,267.3926 Q2306.0531,267.3926 2305.8937,267.252 Q2305.7344,267.1113 2305.7344,266.877 Q2305.7344,266.652 2305.8937,266.5113 Q2306.0531,266.3707 2306.4188,266.3707 L2309.5031,266.3707 Q2309.8688,266.3707 2310.0281,266.5113 Q2310.1875,266.652 2310.1875,266.877 Q2310.1875,267.1113 2310.0281,267.252 Q2309.8688,267.3926 2309.5031,267.3926 L2308.4719,267.3926 Z " fill="#000000"/><text fill="#000000" font-family="sans-serif" font-size="8.4" font-style="italic" lengthAdjust="spacing" textLength="72.6" x="2316.3" y="272.8863">NoArgsConstructor</text></g><!--class CreationTimestamp--><g id="elem_CreationTimestamp"><rect codeLine="65" fill="#F1F1F1" height="19.2" id="CreationTimestamp" rx="1.5" ry="1.5" style="stroke:#181818;stroke-width:0.3;" width="93" x="2453.7" y="259.8082"/><ellipse cx="2462.7" cy="269.4082" fill="#B4A7E5" rx="6.6" ry="6.6" style="stroke:#181818;stroke-width:0.6;"/><path d="M2463.2719,267.3926 L2463.2719,271.3863 L2464.3031,271.3863 Q2464.6688,271.3863 2464.8281,271.527 Q2464.9875,271.6676 2464.9875,271.902 Q2464.9875,272.127 2464.8281,272.2676 Q2464.6688,272.4082 2464.3031,272.4082 L2461.2188,272.4082 Q2460.8531,272.4082 2460.6938,272.2676 Q2460.5344,272.127 2460.5344,271.8926 Q2460.5344,271.6676 2460.6938,271.527 Q2460.8531,271.3863 2461.2188,271.3863 L2462.25,271.3863 L2462.25,267.3926 L2461.2188,267.3926 Q2460.8531,267.3926 2460.6938,267.252 Q2460.5344,267.1113 2460.5344,266.877 Q2460.5344,266.652 2460.6938,266.5113 Q2460.8531,266.3707 2461.2188,266.3707 L2464.3031,266.3707 Q2464.6688,266.3707 2464.8281,266.5113 Q2464.9875,266.652 2464.9875,266.877 Q2464.9875,267.1113 2464.8281,267.252 Q2464.6688,267.3926 2464.3031,267.3926 L2463.2719,267.3926 Z " fill="#000000"/><text fill="#000000" font-family="sans-serif" font-size="8.4" font-style="italic" lengthAdjust="spacing" textLength="73.8" x="2471.1" y="272.8863">CreationTimestamp</text></g><!--class UpdateTimestamp--><g id="elem_UpdateTimestamp"><rect codeLine="66" fill="#F1F1F1" height="19.2" id="UpdateTimestamp" rx="1.5" ry="1.5" style="stroke:#181818;stroke-width:0.3;" width="88.2" x="2567.7" y="259.8082"/><ellipse cx="2576.7" cy="269.4082" fill="#B4A7E5" rx="6.6" ry="6.6" style="stroke:#181818;stroke-width:0.6;"/><path d="M2577.2719,267.3926 L2577.2719,271.3863 L2578.3031,271.3863 Q2578.6688,271.3863 2578.8281,271.527 Q2578.9875,271.6676 2578.9875,271.902 Q2578.9875,272.127 2578.8281,272.2676 Q2578.6688,272.4082 2578.3031,272.4082 L2575.2188,272.4082 Q2574.8531,272.4082 2574.6938,272.2676 Q2574.5344,272.127 2574.5344,271.8926 Q2574.5344,271.6676 2574.6938,271.527 Q2574.8531,271.3863 2575.2188,271.3863 L2576.25,271.3863 L2576.25,267.3926 L2575.2188,267.3926 Q2574.8531,267.3926 2574.6938,267.252 Q2574.5344,267.1113 2574.5344,266.877 Q2574.5344,266.652 2574.6938,266.5113 Q2574.8531,266.3707 2575.2188,266.3707 L2578.3031,266.3707 Q2578.6688,266.3707 2578.8281,266.5113 Q2578.9875,266.652 2578.9875,266.877 Q2578.9875,267.1113 2578.8281,267.252 Q2578.6688,267.3926 2578.3031,267.3926 L2577.2719,267.3926 Z " fill="#000000"/><text fill="#000000" font-family="sans-serif" font-size="8.4" font-style="italic" lengthAdjust="spacing" textLength="69" x="2585.1" y="272.8863">UpdateTimestamp</text></g><!--class Filiale--><g id="elem_Filiale"><rect codeLine="72" fill="#F1F1F1" height="46.3453" id="Filiale" rx="1.5" ry="1.5" style="stroke:#181818;stroke-width:0.3;" width="65.4" x="42.3" y="246.3082"/><ellipse cx="62.1" cy="255.9082" fill="#ADD1B2" rx="6.6" ry="6.6" style="stroke:#181818;stroke-width:0.6;"/><path d="M63.7594,253.4332 Q63.8531,253.302 63.9656,253.2363 Q64.0781,253.1707 64.2094,253.1707 Q64.4344,253.1707 64.575,253.3301 Q64.7156,253.4801 64.7156,253.8457 L64.7156,254.7176 Q64.7156,255.0832 64.575,255.2426 Q64.4344,255.402 64.2094,255.402 Q64.0031,255.402 63.8812,255.2801 Q63.7594,255.1676 63.6937,254.8582 Q63.6656,254.6426 63.5531,254.5301 Q63.3562,254.3051 62.9906,254.1738 Q62.625,254.0426 62.25,254.0426 Q61.7906,254.0426 61.4063,254.2395 Q61.0313,254.4363 60.7312,254.8863 Q60.4406,255.3363 60.4406,255.9551 L60.4406,256.6113 Q60.4406,257.352 60.975,257.8488 Q61.5094,258.3363 62.4656,258.3363 Q63.0281,258.3363 63.4219,258.1863 Q63.6563,258.0926 63.9094,257.8301 Q64.0688,257.6707 64.1531,257.6238 Q64.2469,257.577 64.3687,257.577 Q64.5656,257.577 64.7156,257.7363 Q64.875,257.8863 64.875,258.0926 Q64.875,258.2988 64.6688,258.5426 Q64.3687,258.8895 63.8906,259.0863 Q63.2438,259.3582 62.4656,259.3582 Q61.5563,259.3582 60.8344,258.9832 Q60.2438,258.6832 59.8313,258.0457 Q59.4187,257.3988 59.4187,256.6301 L59.4187,255.9363 Q59.4187,255.1395 59.7844,254.4551 Q60.1594,253.7613 60.8156,253.3957 Q61.4719,253.0207 62.2125,253.0207 Q62.6531,253.0207 63.0375,253.1238 Q63.4313,253.2176 63.7594,253.4332 Z " fill="#000000"/><text fill="#000000" font-family="sans-serif" font-size="8.4" lengthAdjust="spacing" textLength="22.2" x="72.9" y="259.3863">Filiale</text><line style="stroke:#181818;stroke-width:0.3;" x1="42.9" x2="107.1" y1="265.5082" y2="265.5082"/><text fill="#000000" font-family="sans-serif" font-size="8.4" lengthAdjust="spacing" textLength="48" x="45.9" y="276.9727">name: String</text><text fill="#000000" font-family="sans-serif" font-size="8.4" lengthAdjust="spacing" textLength="58.2" x="45.9" y="288.1453">standort: String</text></g><!--class zulieferer--><g id="elem_zulieferer"><rect codeLine="77" fill="#F1F1F1" height="65.0672" id="zulieferer" rx="1.5" ry="1.5" style="stroke:#181818;stroke-width:0.3;" width="57.6" x="50.4" y="79.8082"/><ellipse cx="61.02" cy="93.1828" fill="#ADD1B2" rx="6.6" ry="6.6" style="stroke:#181818;stroke-width:0.6;"/><path d="M62.6794,90.7078 Q62.7731,90.5766 62.8856,90.5109 Q62.9981,90.4453 63.1294,90.4453 Q63.3544,90.4453 63.495,90.6047 Q63.6356,90.7547 63.6356,91.1203 L63.6356,91.9922 Q63.6356,92.3578 63.495,92.5172 Q63.3544,92.6766 63.1294,92.6766 Q62.9231,92.6766 62.8012,92.5547 Q62.6794,92.4422 62.6137,92.1328 Q62.5856,91.9172 62.4731,91.8047 Q62.2763,91.5797 61.9106,91.4484 Q61.545,91.3172 61.17,91.3172 Q60.7106,91.3172 60.3263,91.5141 Q59.9513,91.7109 59.6513,92.1609 Q59.3606,92.6109 59.3606,93.2297 L59.3606,93.8859 Q59.3606,94.6266 59.895,95.1234 Q60.4294,95.6109 61.3856,95.6109 Q61.9481,95.6109 62.3419,95.4609 Q62.5763,95.3672 62.8294,95.1047 Q62.9887,94.9453 63.0731,94.8984 Q63.1669,94.8516 63.2888,94.8516 Q63.4856,94.8516 63.6356,95.0109 Q63.795,95.1609 63.795,95.3672 Q63.795,95.5734 63.5888,95.8172 Q63.2888,96.1641 62.8106,96.3609 Q62.1638,96.6328 61.3856,96.6328 Q60.4763,96.6328 59.7544,96.2578 Q59.1638,95.9578 58.7513,95.3203 Q58.3388,94.6734 58.3388,93.9047 L58.3388,93.2109 Q58.3388,92.4141 58.7044,91.7297 Q59.0794,91.0359 59.7356,90.6703 Q60.3919,90.2953 61.1325,90.2953 Q61.5731,90.2953 61.9575,90.3984 Q62.3513,90.4922 62.6794,90.7078 Z " fill="#000000"/><text fill="#000000" font-family="sans-serif" font-size="7.2" font-style="italic" lengthAdjust="spacing" textLength="25.8" x="74.28" y="90.5777">&#171;entity&#187;</text><text fill="#000000" font-family="sans-serif" font-size="8.4" lengthAdjust="spacing" textLength="34.8" x="69.78" y="101.4492">zulieferer</text><line style="stroke:#181818;stroke-width:0.3;" x1="51" x2="107.4" y1="106.5574" y2="106.5574"/><text fill="#000000" font-family="sans-serif" font-size="8.4" lengthAdjust="spacing" textLength="32.4" x="54" y="118.0219">id : UUID</text><text fill="#000000" font-family="sans-serif" font-size="8.4" lengthAdjust="spacing" textLength="50.4" x="54" y="129.1945">name : String</text><text fill="#000000" font-family="sans-serif" font-size="8.4" lengthAdjust="spacing" textLength="49.2" x="54" y="140.3672">email : String</text></g><!--link zulieferer to Filiale--><g id="link_zulieferer_Filiale"><path codeLine="83" d="M78.108,153.4162 C77.4,179.7142 76.488,213.4402 75.84,237.6322 " fill="none" id="zulieferer-Filiale" style="stroke:#181818;stroke-width:0.6;"/><polygon fill="#181818" points="78.318,145.6642,75.8238,149.1996,78.128,152.8617,80.6221,149.3263,78.318,145.6642" style="stroke:#181818;stroke-width:0.6;"/><polygon fill="#181818" points="75.63,245.3302,78.1717,239.9954,75.7092,242.3312,73.3734,239.8687,75.63,245.3302" style="stroke:#181818;stroke-width:0.6;"/><line style="stroke:#181818;stroke-width:0.6;" x1="75.7092" x2="75.843" y1="242.3312" y2="237.5362"/><text fill="#000000" font-family="sans-serif" font-size="7.8" lengthAdjust="spacing" textLength="17.4" x="78.6" y="171.6252">filiale</text><text fill="#000000" font-family="sans-serif" font-size="7.8" lengthAdjust="spacing" textLength="13.2" x="61.3758" y="239.6035">0..1</text></g><!--link zulieferer to UUID--><g id="link_zulieferer_UUID"><path codeLine="85" d="M104.754,144.7522 C132.396,179.3062 175.062,232.6402 194.166,256.5142 " fill="none" id="zulieferer-to-UUID" style="stroke:#181818;stroke-width:0.6;stroke-dasharray:7.0,7.0;"/><polygon fill="#181818" points="196.026,258.8422,194.5318,253.1249,194.154,256.4979,190.781,256.1201,196.026,258.8422" style="stroke:#181818;stroke-width:0.6;"/></g><!--link zulieferer to Builder--><g id="link_zulieferer_Builder"><path codeLine="87" d="M108.168,112.6942 C263.418,112.2922 1012.566,113.1142 1622.4,162.6082 C1677.888,167.1142 1697.772,152.0722 1746.6,178.8082 C1779.93,197.0602 1804.776,236.3842 1815.84,256.4602 " fill="none" id="zulieferer-to-Builder" style="stroke:#181818;stroke-width:0.6;stroke-dasharray:7.0,7.0;"/><polygon fill="#181818" points="1817.19,258.9502,1816.7179,253.0598,1815.7565,256.3149,1812.5014,255.3535,1817.19,258.9502" style="stroke:#181818;stroke-width:0.6;"/></g><!--link zulieferer to EqualsAndHashCode--><g id="link_zulieferer_EqualsAndHashCode"><path codeLine="88" d="M108.18,112.9522 C267.57,113.9062 1053.666,120.6262 1694.4,162.6082 C1766.34,167.3242 1793.934,141.7942 1855.8,178.8082 C1885.782,196.7422 1904.124,235.9282 1911.96,256.1602 " fill="none" id="zulieferer-to-EqualsAndHashCode" style="stroke:#181818;stroke-width:0.6;stroke-dasharray:7.0,7.0;"/><polygon fill="#181818" points="1912.98,258.8542,1913.3094,252.9541,1911.9163,256.0491,1908.8213,254.656,1912.98,258.8542" style="stroke:#181818;stroke-width:0.6;"/></g><!--link zulieferer to Getter--><g id="link_zulieferer_Getter"><path codeLine="89" d="M108.162,113.0602 C272.622,114.6022 1105.776,124.0702 1785,162.6082 C1870.5,167.4622 1909.068,126.6622 1977,178.8082 C2001.204,197.3902 2007.354,235.6642 2008.896,255.7882 " fill="none" id="zulieferer-to-Getter" style="stroke:#181818;stroke-width:0.6;stroke-dasharray:7.0,7.0;"/><polygon fill="#181818" points="2009.088,258.6562,2011.1287,253.1105,2008.8913,255.6627,2006.3391,253.4252,2009.088,258.6562" style="stroke:#181818;stroke-width:0.6;"/></g><!--link zulieferer to Setter--><g id="link_zulieferer_Setter"><path codeLine="90" d="M108.03,112.7302 C278.16,112.4482 1168.194,113.4802 1892.4,162.6082 C1959.036,167.1262 1989.558,137.1982 2041.8,178.8082 C2065.572,197.7382 2071.29,235.8622 2072.628,255.8722 " fill="none" id="zulieferer-to-Setter" style="stroke:#181818;stroke-width:0.6;stroke-dasharray:7.0,7.0;"/><polygon fill="#181818" points="2072.79,258.7162,2074.8771,253.1877,2072.6184,255.7211,2070.085,253.4624,2072.79,258.7162" style="stroke:#181818;stroke-width:0.6;"/></g><!--link zulieferer to ToString--><g id="link_zulieferer_ToString"><path codeLine="91" d="M108.294,113.1682 C317.226,115.8262 1591.746,133.0522 1977.6,162.6082 C2034.426,166.9582 2059.728,143.9362 2104.8,178.8082 C2129.256,197.7322 2137.152,235.8562 2139.66,255.8722 " fill="none" id="zulieferer-to-ToString" style="stroke:#181818;stroke-width:0.6;stroke-dasharray:7.0,7.0;"/><polygon fill="#181818" points="2139.99,258.7162,2141.7558,253.0769,2139.6465,255.7359,2136.9874,253.6266,2139.99,258.7162" style="stroke:#181818;stroke-width:0.6;"/></g><!--link zulieferer to Pattern--><g id="link_zulieferer_Pattern"><path codeLine="93" d="M108.276,113.5342 C194.778,116.2642 448.32,128.4742 510.6,178.8082 C534.486,198.1162 541.704,236.0722 543.876,255.9622 " fill="none" id="zulieferer-to-Pattern" style="stroke:#181818;stroke-width:0.6;stroke-dasharray:7.0,7.0;"/><polygon fill="#181818" points="544.152,258.7822,545.9996,253.1691,543.8518,255.7973,541.2237,253.6495,544.152,258.7822" style="stroke:#181818;stroke-width:0.6;"/></g><!--link zulieferer to NotNull--><g id="link_zulieferer_NotNull"><path codeLine="94" d="M108.102,114.6382 C162.648,119.0722 283.362,133.6102 373.2,178.8082 C413.136,198.9022 450.378,237.5962 467.598,257.0422 " fill="none" id="zulieferer-to-NotNull" style="stroke:#181818;stroke-width:0.6;stroke-dasharray:7.0,7.0;"/><polygon fill="#181818" points="469.392,259.0882,467.6316,253.4472,467.4122,256.8342,464.0252,256.6148,469.392,259.0882" style="stroke:#181818;stroke-width:0.6;"/></g><!--link zulieferer to QueryEntity--><g id="link_zulieferer_QueryEntity"><path codeLine="96" d="M108.072,121.9762 C140.046,132.8422 192.408,152.8102 232.8,178.8082 C268.584,201.8362 303.852,237.9982 321.018,256.7002 " fill="none" id="zulieferer-to-QueryEntity" style="stroke:#181818;stroke-width:0.6;stroke-dasharray:7.0,7.0;"/><polygon fill="#181818" points="323.004,258.8782,321.141,253.2703,320.9834,256.6607,317.593,256.5032,323.004,258.8782" style="stroke:#181818;stroke-width:0.6;"/></g><!--link zulieferer to Size--><g id="link_zulieferer_Size"><path codeLine="97" d="M108.21,114.0022 C185.448,117.5362 402.318,129.8482 579.6,162.6082 C606.51,167.5822 619.29,159.8242 639,178.8082 C660.468,199.4902 665.664,236.2702 666.876,255.7942 " fill="none" id="zulieferer-to-Size" style="stroke:#181818;stroke-width:0.6;stroke-dasharray:7.0,7.0;"/><polygon fill="#181818" points="667.032,258.7822,669.1507,253.2658,666.8775,255.7862,664.357,253.513,667.032,258.7822" style="stroke:#181818;stroke-width:0.6;"/></g><!--link zulieferer to Column--><g id="link_zulieferer_Column"><path codeLine="98" d="M108.21,114.1402 C189.66,118.1662 427.23,131.8642 622.2,162.6082 C654.6,167.7142 666.996,160.4782 694.2,178.8082 C723.294,198.4102 742.866,236.5102 751.524,256.2622 " fill="none" id="zulieferer-to-Column" style="stroke:#181818;stroke-width:0.6;stroke-dasharray:7.0,7.0;"/><polygon fill="#181818" points="752.658,258.8902,752.7301,252.9813,751.4731,256.1341,748.3204,254.8771,752.658,258.8902" style="stroke:#181818;stroke-width:0.6;"/></g><!--link zulieferer to Entity--><g id="link_zulieferer_Entity"><path codeLine="99" d="M108.126,113.6002 C234.942,117.3202 737.784,134.7682 791.4,178.8082 C814.836,198.0562 820.392,236.0422 821.664,255.9502 " fill="none" id="zulieferer-to-Entity" style="stroke:#181818;stroke-width:0.6;stroke-dasharray:7.0,7.0;"/><polygon fill="#181818" points="821.814,258.7702,823.9169,253.2477,821.6509,255.7746,819.124,253.5087,821.814,258.7702" style="stroke:#181818;stroke-width:0.6;"/></g><!--link zulieferer to GeneratedValue--><g id="link_zulieferer_GeneratedValue"><path codeLine="100" d="M108.264,113.1802 C204.894,114.7642 524.022,122.8762 784.2,162.6082 C815.082,167.3242 827.568,160.1182 852.6,178.8082 C879.12,198.6082 894.15,236.3542 900.528,256.0822 " fill="none" id="zulieferer-to-GeneratedValue" style="stroke:#181818;stroke-width:0.6;stroke-dasharray:7.0,7.0;"/><polygon fill="#181818" points="901.416,258.9082,902.1021,253.0389,900.5241,256.0438,897.5191,254.4659,901.416,258.9082" style="stroke:#181818;stroke-width:0.6;"/></g><!--link zulieferer to Id--><g id="link_zulieferer_Id"><path codeLine="101" d="M108.258,114.0802 C208.596,118.6222 549.744,135.2062 830.4,162.6082 C886.332,168.0682 913.644,141.6502 955.8,178.8082 C978.054,198.4222 980.418,236.2462 979.98,256.0342 " fill="none" id="zulieferer-to-Id" style="stroke:#181818;stroke-width:0.6;stroke-dasharray:7.0,7.0;"/><polygon fill="#181818" points="979.89,258.8362,982.4736,253.5216,979.9928,255.838,977.6764,253.3571,979.89,258.8362" style="stroke:#181818;stroke-width:0.6;"/></g><!--link zulieferer to NamedAttributeNode--><g id="link_zulieferer_NamedAttributeNode"><path codeLine="102" d="M108.174,113.4682 C214.632,116.1142 594.09,127.5982 904.8,162.6082 C948.582,167.5402 965.646,154.8202 1002.6,178.8082 C1031.574,197.6182 1049.64,236.0662 1057.47,256.0762 " fill="none" id="zulieferer-to-NamedAttributeNode" style="stroke:#181818;stroke-width:0.6;stroke-dasharray:7.0,7.0;"/><polygon fill="#181818" points="1058.49,258.7402,1058.8036,252.8392,1057.4188,255.938,1054.3201,254.5531,1058.49,258.7402" style="stroke:#181818;stroke-width:0.6;"/></g><!--link zulieferer to NamedEntityGraph--><g id="link_zulieferer_NamedEntityGraph"><path codeLine="103" d="M108.282,113.9482 C219.516,118.4062 628.626,135.7822 964.8,162.6082 C1034.55,168.1762 1062.096,141.6742 1121.4,178.8082 C1150.296,196.9042 1166.61,236.0122 1173.408,256.1962 " fill="none" id="zulieferer-to-NamedEntityGraph" style="stroke:#181818;stroke-width:0.6;stroke-dasharray:7.0,7.0;"/><polygon fill="#181818" points="1174.284,258.8722,1174.8851,252.9935,1173.3507,256.0211,1170.3232,254.4867,1174.284,258.8722" style="stroke:#181818;stroke-width:0.6;"/></g><!--link zulieferer to OneToOne--><g id="link_zulieferer_OneToOne"><path codeLine="104" d="M108.102,113.8762 C225.744,118.3162 680.022,136.2982 1053,162.6082 C1133.124,168.2602 1167.378,132.4822 1233,178.8082 C1258.95,197.1262 1269.006,235.8562 1272.594,256.0102 " fill="none" id="zulieferer-to-OneToOne" style="stroke:#181818;stroke-width:0.6;stroke-dasharray:7.0,7.0;"/><polygon fill="#181818" points="1273.074,258.8902,1274.5455,253.167,1272.5766,255.9317,1269.812,253.9628,1273.074,258.8902" style="stroke:#181818;stroke-width:0.6;"/></g><!--link zulieferer to Table--><g id="link_zulieferer_Table"><path codeLine="105" d="M108.102,113.5762 C233.094,117.0202 739.5,132.2002 1154.4,162.6082 C1226.298,167.8762 1259.226,134.1202 1315.8,178.8082 C1339.644,197.6422 1345.332,235.8082 1346.646,255.8482 " fill="none" id="zulieferer-to-Table" style="stroke:#181818;stroke-width:0.6;stroke-dasharray:7.0,7.0;"/><polygon fill="#181818" points="1346.802,258.6982,1348.9049,253.1757,1346.6389,255.7026,1344.112,253.4367,1346.802,258.6982" style="stroke:#181818;stroke-width:0.6;"/></g><!--link zulieferer to Transient--><g id="link_zulieferer_Transient"><path codeLine="106" d="M108.138,113.1922 C239.622,115.1002 793.872,125.0902 1246.8,162.6082 C1305.444,167.4682 1331.28,143.2942 1378.2,178.8082 C1403.028,197.6002 1411.692,235.7842 1414.602,255.8422 " fill="none" id="zulieferer-to-Transient" style="stroke:#181818;stroke-width:0.6;stroke-dasharray:7.0,7.0;"/><polygon fill="#181818" points="1414.986,258.6982,1416.6395,253.0249,1414.5833,255.7253,1411.8829,253.6692,1414.986,258.6982" style="stroke:#181818;stroke-width:0.6;"/></g><!--link zulieferer to Version--><g id="link_zulieferer_Version"><path codeLine="107" d="M108.192,113.0782 C244.902,114.5362 838.734,122.9482 1323.6,162.6082 C1381.98,167.3842 1408.32,142.6402 1454.4,178.8082 C1478.562,197.7682 1485.66,235.8802 1487.736,255.8782 " fill="none" id="zulieferer-to-Version" style="stroke:#181818;stroke-width:0.6;stroke-dasharray:7.0,7.0;"/><polygon fill="#181818" points="1488.006,258.7222,1489.8855,253.1197,1487.7228,255.7356,1485.1069,253.5729,1488.006,258.7222" style="stroke:#181818;stroke-width:0.6;"/></g><!--link zulieferer to REMOVE--><g id="link_zulieferer_REMOVE"><path codeLine="108" d="M108.288,112.7962 C255.018,112.9522 928.464,116.2702 1477.2,162.6082 C1531.356,167.1802 1555.236,145.7902 1598.4,178.8082 C1623.132,197.7262 1631.838,235.8562 1634.778,255.8722 " fill="none" id="zulieferer-to-REMOVE" style="stroke:#181818;stroke-width:0.6;stroke-dasharray:7.0,7.0;"/><polygon fill="#181818" points="1635.168,258.7222,1636.8193,253.0483,1634.7642,255.7495,1632.063,253.6944,1635.168,258.7222" style="stroke:#181818;stroke-width:0.6;"/></g><!--link zulieferer to LAZY--><g id="link_zulieferer_LAZY"><path codeLine="109" d="M108.27,112.7602 C259.368,112.7122 970.212,115.1482 1549.2,162.6082 C1604.682,167.1562 1628.214,146.2942 1673.4,178.8082 C1699.32,197.4562 1710.594,235.7062 1714.896,255.8062 " fill="none" id="zulieferer-to-LAZY" style="stroke:#181818;stroke-width:0.6;stroke-dasharray:7.0,7.0;"/><polygon fill="#181818" points="1715.484,258.6802,1716.7557,252.9094,1714.8841,255.7408,1712.0527,253.8692,1715.484,258.6802" style="stroke:#181818;stroke-width:0.6;"/></g><!--link zulieferer to PERSIST--><g id="link_zulieferer_PERSIST"><path codeLine="110" d="M108.078,112.9822 C249.522,114.0262 883.32,120.9202 1400.4,162.6082 C1458.786,167.3182 1485.99,141.5602 1531.2,178.8082 C1554.51,198.0142 1559.502,236.0182 1560.468,255.9382 " fill="none" id="zulieferer-to-PERSIST" style="stroke:#181818;stroke-width:0.6;stroke-dasharray:7.0,7.0;"/><polygon fill="#181818" points="1560.576,258.7642,1562.7583,253.2726,1560.4561,255.7666,1557.9621,253.4644,1560.576,258.7642" style="stroke:#181818;stroke-width:0.6;"/></g><!--link zulieferer to email--><g id="link_zulieferer_email"><path codeLine="111" d="M108.162,112.4782 C204.024,112.0102 508.86,115.5922 578.4,178.8082 C600.726,199.1002 606.768,236.3062 608.4,255.9202 " fill="none" id="zulieferer-to-email" style="stroke:#181818;stroke-width:0.6;stroke-dasharray:7.0,7.0;"/><polygon fill="#181818" points="608.604,258.6922,610.5962,253.1288,608.3811,255.7005,605.8095,253.4854,608.604,258.6922" style="stroke:#181818;stroke-width:0.6;"/></g><!--link zulieferer to AllArgsConstructor--><g id="link_zulieferer_AllArgsConstructor"><path codeLine="113" d="M108.24,113.1262 C321.696,115.5262 1650.792,131.5462 2052.6,162.6082 C2108.364,166.9222 2130.456,148.3942 2177.4,178.8082 C2205.786,197.1982 2221.926,235.8322 2228.73,255.9742 " fill="none" id="zulieferer-to-AllArgsConstructor" style="stroke:#181818;stroke-width:0.6;stroke-dasharray:7.0,7.0;"/><polygon fill="#181818" points="2229.612,258.6502,2230.1971,252.7699,2228.671,255.8016,2225.6393,254.2755,2229.612,258.6502" style="stroke:#181818;stroke-width:0.6;"/></g><!--link zulieferer to NoArgsConstructor--><g id="link_zulieferer_NoArgsConstructor"><path codeLine="114" d="M108.102,112.6942 C290.7,112.1242 1303.176,111.5062 2126.4,162.6082 C2198.622,167.0902 2226.912,140.6602 2288.4,178.8082 C2317.458,196.8382 2334.012,235.9762 2340.93,256.1782 " fill="none" id="zulieferer-to-NoArgsConstructor" style="stroke:#181818;stroke-width:0.6;stroke-dasharray:7.0,7.0;"/><polygon fill="#181818" points="2341.824,258.8602,2342.3879,252.9779,2340.8727,256.015,2337.8356,254.4999,2341.824,258.8602" style="stroke:#181818;stroke-width:0.6;"/></g><!--link zulieferer to CreationTimestamp--><g id="link_zulieferer_CreationTimestamp"><path codeLine="116" d="M108.156,112.7722 C295.512,112.6942 1355.55,114.4642 2217.6,162.6082 C2299.122,167.1622 2325.768,146.1442 2400.6,178.8082 C2440.542,196.2442 2475.276,236.2282 2491.098,256.5142 " fill="none" id="zulieferer-to-CreationTimestamp" style="stroke:#181818;stroke-width:0.6;stroke-dasharray:7.0,7.0;"/><polygon fill="#181818" points="2492.916,258.8782,2491.5239,253.1352,2491.086,256.501,2487.7203,256.0631,2492.916,258.8782" style="stroke:#181818;stroke-width:0.6;"/></g><!--link zulieferer to UpdateTimestamp--><g id="link_zulieferer_UpdateTimestamp"><path codeLine="117" d="M108.252,112.9582 C300.786,114.0502 1412.946,121.9462 2317.8,162.6082 C2424.336,167.3962 2466.09,123.3802 2557.2,178.8082 C2586.156,196.4242 2601.816,235.7482 2608.242,256.0882 " fill="none" id="zulieferer-to-UpdateTimestamp" style="stroke:#181818;stroke-width:0.6;stroke-dasharray:7.0,7.0;"/><polygon fill="#181818" points="2609.07,258.7822,2609.777,252.9153,2608.1883,255.9147,2605.189,254.326,2609.07,258.7822" style="stroke:#181818;stroke-width:0.6;"/></g><text fill="#888888" font-family="sans-serif" font-size="6" lengthAdjust="spacing" textLength="62.4" x="1314" y="340.9828">(c) Ahmad Alabdullah</text><!--SRC=[VLLTR-8m47pFhx1w3_SX5VLUgmg9exI7T4TxXLQwUrlYXVXmxDHsAhKL_xqcaCHP7281qSwmkrwFntOZL046SfPAi7Rad17Bqk4qrMektf1T99-PRKYvLZhDZCwHELDYaXIGRc2Dx3-y07jFc7_gKEc4F8HsJvMVFJvEhwlGDjbzafR-NA9vvRRzImsasc2GfmL0AUt02Qri2BV5_knIJfGJxhN1jqdukmrNi07Zw29UG0fUrOZqfQmp89IpdVRsjMVQpKefZ-Btu1mQTHJ77CGnUxS5f64ojcxRRRn0OuLrgDBkyEhCOotBN4K0CgyMk4M51Xpo9v0bHWXJ7WdE84VUo6gcEVQHzeLl3HHPX7AdSA7zLmHQm596umQK5QXS17lQZKTtrr-FRWms1OwBrmAfhXX3LURiVl8mdyuNSV1XyllkQTB1jj4wD-ZIx4ILNwD_VwDf6ks6sQJEbtf3zjgB4yqAl0P-b49oD3tevBa4QKUA_mIRZUacjRnRtAct1voV0XTwxZMWrZtmICgHMTjnTQRArEc-F3FTnoFpq6RTpg8EPcBf3vyNyNjqHquuIjZ3s615MeWShOEyEC5zBBnzO9ov9QuKkD6RzMyuU2kbm1KQD0EiZWVxT5qzXttUY_b6I04oFEVA7wXBHYRk6r1S6zS13bFR9shBiQihTgWu70Q91MUNhOdNfTXHhShEMAnIKEFR-VcGdLqC1j_FcZLSijN-xOWz60ptbMD0A6y2nRLDI86m2JBlHHf9ny3GvmbKNmqnZ5vPj9dwFY3nmCtfwdjpHVoSC0w6JjkFEtgCHIsTS3gUJeVRc3e5EgvEmD3M2HJOCa4QdwLR6BWyWVQtTGpfCR8Z2L1IT5UZFaEF134OVymomT6tMFZ3csFk7SycoKfhhqVs9VtAHbaEt3SAI-vb25do0G00]--></g></svg>