<?xml version="1.0" encoding="us-ascii" standalone="no"?><svg xmlns="http://www.w3.org/2000/svg" xmlns:xlink="http://www.w3.org/1999/xlink" contentStyleType="text/css" height="1109px" preserveAspectRatio="none" style="width:2809px;height:1109px;background:#FFFFFF;" version="1.1" viewBox="0 0 2809 1109" width="2809px" zoomAndPan="magnify"><defs/><g><!--cluster org--><g id="cluster_org"><path d="M8.5,6.0137 L33.5,6.0137 A3.75,3.75 0 0 1 36,8.5137 L43,30.6348 L2030.5,30.6348 A2.5,2.5 0 0 1 2033,33.1348 L2033,364.5137 A2.5,2.5 0 0 1 2030.5,367.0137 L8.5,367.0137 A2.5,2.5 0 0 1 6,364.5137 L6,8.5137 A2.5,2.5 0 0 1 8.5,6.0137 " fill="none" style="stroke:#000000;stroke-width:1.5;"/><line style="stroke:#000000;stroke-width:1.5;" x1="6" x2="43" y1="30.6348" y2="30.6348"/><text fill="#000000" font-family="sans-serif" font-size="14" font-weight="bold" lengthAdjust="spacing" textLength="24" x="10" y="23.1211">org</text></g><!--cluster springframework--><g id="cluster_springframework"><path d="M32.5,51.0137 L152.5,51.0137 A3.75,3.75 0 0 1 155,53.5137 L162,75.6348 L2006.5,75.6348 A2.5,2.5 0 0 1 2009,78.1348 L2009,340.5137 A2.5,2.5 0 0 1 2006.5,343.0137 L32.5,343.0137 A2.5,2.5 0 0 1 30,340.5137 L30,53.5137 A2.5,2.5 0 0 1 32.5,51.0137 " fill="none" style="stroke:#000000;stroke-width:1.5;"/><line style="stroke:#000000;stroke-width:1.5;" x1="30" x2="162" y1="75.6348" y2="75.6348"/><text fill="#000000" font-family="sans-serif" font-size="14" font-weight="bold" lengthAdjust="spacing" textLength="119" x="34" y="68.1211">springframework</text></g><!--cluster web--><g id="cluster_web"><path d="M56.5,96.0137 L86.5,96.0137 A3.75,3.75 0 0 1 89,98.5137 L96,120.6348 L1380.5,120.6348 A2.5,2.5 0 0 1 1383,123.1348 L1383,316.5137 A2.5,2.5 0 0 1 1380.5,319.0137 L56.5,319.0137 A2.5,2.5 0 0 1 54,316.5137 L54,98.5137 A2.5,2.5 0 0 1 56.5,96.0137 " fill="none" style="stroke:#000000;stroke-width:1.5;"/><line style="stroke:#000000;stroke-width:1.5;" x1="54" x2="96" y1="120.6348" y2="120.6348"/><text fill="#000000" font-family="sans-serif" font-size="14" font-weight="bold" lengthAdjust="spacing" textLength="29" x="58" y="113.1211">web</text></g><!--cluster bind--><g id="cluster_bind"><path d="M80.5,141.0137 L112.5,141.0137 A3.75,3.75 0 0 1 115,143.5137 L122,165.6348 L1356.5,165.6348 A2.5,2.5 0 0 1 1359,168.1348 L1359,292.5137 A2.5,2.5 0 0 1 1356.5,295.0137 L80.5,295.0137 A2.5,2.5 0 0 1 78,292.5137 L78,143.5137 A2.5,2.5 0 0 1 80.5,141.0137 " fill="none" style="stroke:#000000;stroke-width:1.5;"/><line style="stroke:#000000;stroke-width:1.5;" x1="78" x2="122" y1="165.6348" y2="165.6348"/><text fill="#000000" font-family="sans-serif" font-size="14" font-weight="bold" lengthAdjust="spacing" textLength="31" x="82" y="158.1211">bind</text></g><!--cluster annotation--><g id="cluster_annotation"><path d="M104.5,186.0137 L180.5,186.0137 A3.75,3.75 0 0 1 183,188.5137 L190,210.6348 L1332.5,210.6348 A2.5,2.5 0 0 1 1335,213.1348 L1335,268.5137 A2.5,2.5 0 0 1 1332.5,271.0137 L104.5,271.0137 A2.5,2.5 0 0 1 102,268.5137 L102,188.5137 A2.5,2.5 0 0 1 104.5,186.0137 " fill="none" style="stroke:#000000;stroke-width:1.5;"/><line style="stroke:#000000;stroke-width:1.5;" x1="102" x2="190" y1="210.6348" y2="210.6348"/><text fill="#000000" font-family="sans-serif" font-size="14" font-weight="bold" lengthAdjust="spacing" textLength="75" x="106" y="203.1211">annotation</text></g><!--cluster http--><g id="cluster_http"><path d="M1409.5,186.0137 L1438.5,186.0137 A3.75,3.75 0 0 1 1441,188.5137 L1448,210.6348 L1578.5,210.6348 A2.5,2.5 0 0 1 1581,213.1348 L1581,268.5137 A2.5,2.5 0 0 1 1578.5,271.0137 L1409.5,271.0137 A2.5,2.5 0 0 1 1407,268.5137 L1407,188.5137 A2.5,2.5 0 0 1 1409.5,186.0137 " fill="none" style="stroke:#000000;stroke-width:1.5;"/><line style="stroke:#000000;stroke-width:1.5;" x1="1407" x2="1448" y1="210.6348" y2="210.6348"/><text fill="#000000" font-family="sans-serif" font-size="14" font-weight="bold" lengthAdjust="spacing" textLength="28" x="1411" y="203.1211">http</text></g><!--cluster hateoas--><g id="cluster_hateoas"><path d="M1607.5,186.0137 L1664.5,186.0137 A3.75,3.75 0 0 1 1667,188.5137 L1674,210.6348 L1778.5,210.6348 A2.5,2.5 0 0 1 1781,213.1348 L1781,268.5137 A2.5,2.5 0 0 1 1778.5,271.0137 L1607.5,271.0137 A2.5,2.5 0 0 1 1605,268.5137 L1605,188.5137 A2.5,2.5 0 0 1 1607.5,186.0137 " fill="none" style="stroke:#000000;stroke-width:1.5;"/><line style="stroke:#000000;stroke-width:1.5;" x1="1605" x2="1674" y1="210.6348" y2="210.6348"/><text fill="#000000" font-family="sans-serif" font-size="14" font-weight="bold" lengthAdjust="spacing" textLength="56" x="1609" y="203.1211">hateoas</text></g><!--cluster util--><g id="cluster_util"><path d="M1807.5,186.0137 L1830.5,186.0137 A3.75,3.75 0 0 1 1833,188.5137 L1840,210.6348 L1982.5,210.6348 A2.5,2.5 0 0 1 1985,213.1348 L1985,268.5137 A2.5,2.5 0 0 1 1982.5,271.0137 L1807.5,271.0137 A2.5,2.5 0 0 1 1805,268.5137 L1805,188.5137 A2.5,2.5 0 0 1 1807.5,186.0137 " fill="none" style="stroke:#000000;stroke-width:1.5;"/><line style="stroke:#000000;stroke-width:1.5;" x1="1805" x2="1840" y1="210.6348" y2="210.6348"/><text fill="#000000" font-family="sans-serif" font-size="14" font-weight="bold" lengthAdjust="spacing" textLength="22" x="1809" y="203.1211">util</text></g><!--cluster io--><g id="cluster_io"><path d="M2059.5,6.0137 L2073.5,6.0137 A3.75,3.75 0 0 1 2076,8.5137 L2083,30.6348 L2799.5,30.6348 A2.5,2.5 0 0 1 2802,33.1348 L2802,364.5137 A2.5,2.5 0 0 1 2799.5,367.0137 L2059.5,367.0137 A2.5,2.5 0 0 1 2057,364.5137 L2057,8.5137 A2.5,2.5 0 0 1 2059.5,6.0137 " fill="none" style="stroke:#000000;stroke-width:1.5;"/><line style="stroke:#000000;stroke-width:1.5;" x1="2057" x2="2083" y1="30.6348" y2="30.6348"/><text fill="#000000" font-family="sans-serif" font-size="14" font-weight="bold" lengthAdjust="spacing" textLength="13" x="2061" y="23.1211">io</text></g><!--cluster swagger--><g id="cluster_swagger"><path d="M2083.5,51.0137 L2144.5,51.0137 A3.75,3.75 0 0 1 2147,53.5137 L2154,75.6348 L2775.5,75.6348 A2.5,2.5 0 0 1 2778,78.1348 L2778,340.5137 A2.5,2.5 0 0 1 2775.5,343.0137 L2083.5,343.0137 A2.5,2.5 0 0 1 2081,340.5137 L2081,53.5137 A2.5,2.5 0 0 1 2083.5,51.0137 " fill="none" style="stroke:#000000;stroke-width:1.5;"/><line style="stroke:#000000;stroke-width:1.5;" x1="2081" x2="2154" y1="75.6348" y2="75.6348"/><text fill="#000000" font-family="sans-serif" font-size="14" font-weight="bold" lengthAdjust="spacing" textLength="60" x="2085" y="68.1211">swagger</text></g><!--cluster v3--><g id="cluster_v3"><path d="M2107.5,96.0137 L2125.5,96.0137 A3.75,3.75 0 0 1 2128,98.5137 L2135,120.6348 L2751.5,120.6348 A2.5,2.5 0 0 1 2754,123.1348 L2754,316.5137 A2.5,2.5 0 0 1 2751.5,319.0137 L2107.5,319.0137 A2.5,2.5 0 0 1 2105,316.5137 L2105,98.5137 A2.5,2.5 0 0 1 2107.5,96.0137 " fill="none" style="stroke:#000000;stroke-width:1.5;"/><line style="stroke:#000000;stroke-width:1.5;" x1="2105" x2="2135" y1="120.6348" y2="120.6348"/><text fill="#000000" font-family="sans-serif" font-size="14" font-weight="bold" lengthAdjust="spacing" textLength="17" x="2109" y="113.1211">v3</text></g><!--cluster oas--><g id="cluster_oas"><path d="M2131.5,141.0137 L2157.5,141.0137 A3.75,3.75 0 0 1 2160,143.5137 L2167,165.6348 L2727.5,165.6348 A2.5,2.5 0 0 1 2730,168.1348 L2730,292.5137 A2.5,2.5 0 0 1 2727.5,295.0137 L2131.5,295.0137 A2.5,2.5 0 0 1 2129,292.5137 L2129,143.5137 A2.5,2.5 0 0 1 2131.5,141.0137 " fill="none" style="stroke:#000000;stroke-width:1.5;"/><line style="stroke:#000000;stroke-width:1.5;" x1="2129" x2="2167" y1="165.6348" y2="165.6348"/><text fill="#000000" font-family="sans-serif" font-size="14" font-weight="bold" lengthAdjust="spacing" textLength="25" x="2133" y="158.1211">oas</text></g><!--cluster annotations--><g id="cluster_annotations"><path d="M2155.5,186.0137 L2239.5,186.0137 A3.75,3.75 0 0 1 2242,188.5137 L2249,210.6348 L2703.5,210.6348 A2.5,2.5 0 0 1 2706,213.1348 L2706,268.5137 A2.5,2.5 0 0 1 2703.5,271.0137 L2155.5,271.0137 A2.5,2.5 0 0 1 2153,268.5137 L2153,188.5137 A2.5,2.5 0 0 1 2155.5,186.0137 " fill="none" style="stroke:#000000;stroke-width:1.5;"/><line style="stroke:#000000;stroke-width:1.5;" x1="2153" x2="2249" y1="210.6348" y2="210.6348"/><text fill="#000000" font-family="sans-serif" font-size="14" font-weight="bold" lengthAdjust="spacing" textLength="83" x="2157" y="203.1211">annotations</text></g><!--cluster jakarta--><g id="cluster_jakarta"><path d="M480.5,463.5137 L528.5,463.5137 A3.75,3.75 0 0 1 531,466.0137 L538,488.1348 L757.5,488.1348 A2.5,2.5 0 0 1 760,490.6348 L760,684.0137 A2.5,2.5 0 0 1 757.5,686.5137 L480.5,686.5137 A2.5,2.5 0 0 1 478,684.0137 L478,466.0137 A2.5,2.5 0 0 1 480.5,463.5137 " fill="none" style="stroke:#000000;stroke-width:1.5;"/><line style="stroke:#000000;stroke-width:1.5;" x1="478" x2="538" y1="488.1348" y2="488.1348"/><text fill="#000000" font-family="sans-serif" font-size="14" font-weight="bold" lengthAdjust="spacing" textLength="47" x="482" y="480.6211">jakarta</text></g><!--cluster servlet--><g id="cluster_servlet"><path d="M504.5,508.5137 L555.5,508.5137 A3.75,3.75 0 0 1 558,511.0137 L565,533.1348 L733.5,533.1348 A2.5,2.5 0 0 1 736,535.6348 L736,660.0137 A2.5,2.5 0 0 1 733.5,662.5137 L504.5,662.5137 A2.5,2.5 0 0 1 502,660.0137 L502,511.0137 A2.5,2.5 0 0 1 504.5,508.5137 " fill="none" style="stroke:#000000;stroke-width:1.5;"/><line style="stroke:#000000;stroke-width:1.5;" x1="502" x2="565" y1="533.1348" y2="533.1348"/><text fill="#000000" font-family="sans-serif" font-size="14" font-weight="bold" lengthAdjust="spacing" textLength="50" x="506" y="525.6211">servlet</text></g><!--cluster http--><g id="cluster_http"><path d="M528.5,553.5137 L557.5,553.5137 A3.75,3.75 0 0 1 560,556.0137 L567,578.1348 L709.5,578.1348 A2.5,2.5 0 0 1 712,580.6348 L712,636.0137 A2.5,2.5 0 0 1 709.5,638.5137 L528.5,638.5137 A2.5,2.5 0 0 1 526,636.0137 L526,556.0137 A2.5,2.5 0 0 1 528.5,553.5137 " fill="none" style="stroke:#000000;stroke-width:1.5;"/><line style="stroke:#000000;stroke-width:1.5;" x1="526" x2="567" y1="578.1348" y2="578.1348"/><text fill="#000000" font-family="sans-serif" font-size="14" font-weight="bold" lengthAdjust="spacing" textLength="28" x="530" y="570.6211">http</text></g><!--cluster java--><g id="cluster_java"><path d="M600.5,733.0137 L630.5,733.0137 A3.75,3.75 0 0 1 633,735.5137 L640,757.6348 L739.5,757.6348 A2.5,2.5 0 0 1 742,760.1348 L742,884.5137 A2.5,2.5 0 0 1 739.5,887.0137 L600.5,887.0137 A2.5,2.5 0 0 1 598,884.5137 L598,735.5137 A2.5,2.5 0 0 1 600.5,733.0137 " fill="none" style="stroke:#000000;stroke-width:1.5;"/><line style="stroke:#000000;stroke-width:1.5;" x1="598" x2="640" y1="757.6348" y2="757.6348"/><text fill="#000000" font-family="sans-serif" font-size="14" font-weight="bold" lengthAdjust="spacing" textLength="29" x="602" y="750.1211">java</text></g><!--cluster util--><g id="cluster_util"><path d="M624.5,778.0137 L647.5,778.0137 A3.75,3.75 0 0 1 650,780.5137 L657,802.6348 L715.5,802.6348 A2.5,2.5 0 0 1 718,805.1348 L718,860.5137 A2.5,2.5 0 0 1 715.5,863.0137 L624.5,863.0137 A2.5,2.5 0 0 1 622,860.5137 L622,780.5137 A2.5,2.5 0 0 1 624.5,778.0137 " fill="none" style="stroke:#000000;stroke-width:1.5;"/><line style="stroke:#000000;stroke-width:1.5;" x1="622" x2="657" y1="802.6348" y2="802.6348"/><text fill="#000000" font-family="sans-serif" font-size="14" font-weight="bold" lengthAdjust="spacing" textLength="22" x="626" y="795.1211">util</text></g><!--cluster zspace--><g id="cluster_zspace"><path d="M786.5,400.0137 L836.5,400.0137 A3.75,3.75 0 0 1 839,402.5137 L846,424.6348 L1855.5,424.6348 A2.5,2.5 0 0 1 1858,427.1348 L1858,1079.5137 A2.5,2.5 0 0 1 1855.5,1082.0137 L786.5,1082.0137 A2.5,2.5 0 0 1 784,1079.5137 L784,402.5137 A2.5,2.5 0 0 1 786.5,400.0137 " fill="none" style="stroke:#000000;stroke-width:1.5;"/><line style="stroke:#000000;stroke-width:1.5;" x1="784" x2="846" y1="424.6348" y2="424.6348"/><text fill="#000000" font-family="sans-serif" font-size="14" font-weight="bold" lengthAdjust="spacing" textLength="49" x="788" y="417.1211">zspace</text></g><!--cluster zulieferer--><g id="cluster_zulieferer"><path d="M810.5,445.0137 L879.5,445.0137 A3.75,3.75 0 0 1 882,447.5137 L889,469.6348 L1831.5,469.6348 A2.5,2.5 0 0 1 1834,472.1348 L1834,1055.5137 A2.5,2.5 0 0 1 1831.5,1058.0137 L810.5,1058.0137 A2.5,2.5 0 0 1 808,1055.5137 L808,447.5137 A2.5,2.5 0 0 1 810.5,445.0137 " fill="none" style="stroke:#000000;stroke-width:1.5;"/><line style="stroke:#000000;stroke-width:1.5;" x1="808" x2="889" y1="469.6348" y2="469.6348"/><text fill="#000000" font-family="sans-serif" font-size="14" font-weight="bold" lengthAdjust="spacing" textLength="68" x="812" y="462.1211">zulieferer</text></g><!--cluster service--><g id="cluster_service"><path d="M1101.5,920.0137 L1155.5,920.0137 A3.75,3.75 0 0 1 1158,922.5137 L1165,944.6348 L1490.5,944.6348 A2.5,2.5 0 0 1 1493,947.1348 L1493,1031.5137 A2.5,2.5 0 0 1 1490.5,1034.0137 L1101.5,1034.0137 A2.5,2.5 0 0 1 1099,1031.5137 L1099,922.5137 A2.5,2.5 0 0 1 1101.5,920.0137 " fill="none" style="stroke:#000000;stroke-width:1.5;"/><line style="stroke:#000000;stroke-width:1.5;" x1="1099" x2="1165" y1="944.6348" y2="944.6348"/><text fill="#000000" font-family="sans-serif" font-size="14" font-weight="bold" lengthAdjust="spacing" textLength="53" x="1103" y="937.1211">service</text></g><!--cluster rest--><g id="cluster_rest"><path d="M834.5,490.0137 L863.5,490.0137 A3.75,3.75 0 0 1 866,492.5137 L873,514.6348 L1807.5,514.6348 A2.5,2.5 0 0 1 1810,517.1348 L1810,867.0137 A2.5,2.5 0 0 1 1807.5,869.5137 L834.5,869.5137 A2.5,2.5 0 0 1 832,867.0137 L832,492.5137 A2.5,2.5 0 0 1 834.5,490.0137 " fill="#DDDDDD" style="stroke:#000000;stroke-width:1.5;"/><line style="stroke:#000000;stroke-width:1.5;" x1="832" x2="873" y1="514.6348" y2="514.6348"/><text fill="#000000" font-family="sans-serif" font-size="14" font-weight="bold" lengthAdjust="spacing" textLength="28" x="836" y="507.1211">rest</text></g><!--class RestController--><g id="elem_RestController"><rect codeLine="6" fill="#F1F1F1" height="32" id="RestController" rx="2.5" ry="2.5" style="stroke:#181818;stroke-width:0.5;" width="137" x="1181.5" y="223.0137"/><ellipse cx="1196.5" cy="239.0137" fill="#B4A7E5" rx="11" ry="11" style="stroke:#181818;stroke-width:1.0;"/><path d="M1197.4531,235.6543 L1197.4531,242.3105 L1199.1719,242.3105 Q1199.7813,242.3105 1200.0469,242.5449 Q1200.3125,242.7793 1200.3125,243.1699 Q1200.3125,243.5449 1200.0469,243.7793 Q1199.7813,244.0137 1199.1719,244.0137 L1194.0313,244.0137 Q1193.4219,244.0137 1193.1563,243.7793 Q1192.8906,243.5449 1192.8906,243.1543 Q1192.8906,242.7793 1193.1563,242.5449 Q1193.4219,242.3105 1194.0313,242.3105 L1195.75,242.3105 L1195.75,235.6543 L1194.0313,235.6543 Q1193.4219,235.6543 1193.1563,235.4199 Q1192.8906,235.1855 1192.8906,234.7949 Q1192.8906,234.4199 1193.1563,234.1855 Q1193.4219,233.9512 1194.0313,233.9512 L1199.1719,233.9512 Q1199.7813,233.9512 1200.0469,234.1855 Q1200.3125,234.4199 1200.3125,234.7949 Q1200.3125,235.1855 1200.0469,235.4199 Q1199.7813,235.6543 1199.1719,235.6543 L1197.4531,235.6543 Z " fill="#000000"/><text fill="#000000" font-family="sans-serif" font-size="14" font-style="italic" lengthAdjust="spacing" textLength="105" x="1210.5" y="244.8105">@RestController</text></g><!--class RequestMapping--><g id="elem_RequestMapping"><rect codeLine="7" fill="#F1F1F1" height="32" id="RequestMapping" rx="2.5" ry="2.5" style="stroke:#181818;stroke-width:0.5;" width="154" x="992" y="223.0137"/><ellipse cx="1007" cy="239.0137" fill="#B4A7E5" rx="11" ry="11" style="stroke:#181818;stroke-width:1.0;"/><path d="M1007.9531,235.6543 L1007.9531,242.3105 L1009.6719,242.3105 Q1010.2813,242.3105 1010.5469,242.5449 Q1010.8125,242.7793 1010.8125,243.1699 Q1010.8125,243.5449 1010.5469,243.7793 Q1010.2813,244.0137 1009.6719,244.0137 L1004.5313,244.0137 Q1003.9219,244.0137 1003.6563,243.7793 Q1003.3906,243.5449 1003.3906,243.1543 Q1003.3906,242.7793 1003.6563,242.5449 Q1003.9219,242.3105 1004.5313,242.3105 L1006.25,242.3105 L1006.25,235.6543 L1004.5313,235.6543 Q1003.9219,235.6543 1003.6563,235.4199 Q1003.3906,235.1855 1003.3906,234.7949 Q1003.3906,234.4199 1003.6563,234.1855 Q1003.9219,233.9512 1004.5313,233.9512 L1009.6719,233.9512 Q1010.2813,233.9512 1010.5469,234.1855 Q1010.8125,234.4199 1010.8125,234.7949 Q1010.8125,235.1855 1010.5469,235.4199 Q1010.2813,235.6543 1009.6719,235.6543 L1007.9531,235.6543 Z " fill="#000000"/><text fill="#000000" font-family="sans-serif" font-size="14" font-style="italic" lengthAdjust="spacing" textLength="122" x="1021" y="244.8105">@RequestMapping</text></g><!--class PathVariable--><g id="elem_PathVariable"><rect codeLine="8" fill="#F1F1F1" height="32" id="PathVariable" rx="2.5" ry="2.5" style="stroke:#181818;stroke-width:0.5;" width="127" x="829.5" y="223.0137"/><ellipse cx="844.5" cy="239.0137" fill="#B4A7E5" rx="11" ry="11" style="stroke:#181818;stroke-width:1.0;"/><path d="M845.4531,235.6543 L845.4531,242.3105 L847.1719,242.3105 Q847.7813,242.3105 848.0469,242.5449 Q848.3125,242.7793 848.3125,243.1699 Q848.3125,243.5449 848.0469,243.7793 Q847.7813,244.0137 847.1719,244.0137 L842.0313,244.0137 Q841.4219,244.0137 841.1563,243.7793 Q840.8906,243.5449 840.8906,243.1543 Q840.8906,242.7793 841.1563,242.5449 Q841.4219,242.3105 842.0313,242.3105 L843.75,242.3105 L843.75,235.6543 L842.0313,235.6543 Q841.4219,235.6543 841.1563,235.4199 Q840.8906,235.1855 840.8906,234.7949 Q840.8906,234.4199 841.1563,234.1855 Q841.4219,233.9512 842.0313,233.9512 L847.1719,233.9512 Q847.7813,233.9512 848.0469,234.1855 Q848.3125,234.4199 848.3125,234.7949 Q848.3125,235.1855 848.0469,235.4199 Q847.7813,235.6543 847.1719,235.6543 L845.4531,235.6543 Z " fill="#000000"/><text fill="#000000" font-family="sans-serif" font-size="14" font-style="italic" lengthAdjust="spacing" textLength="95" x="858.5" y="244.8105">@PathVariable</text></g><!--class RequestParam--><g id="elem_RequestParam"><rect codeLine="9" fill="#F1F1F1" height="32" id="RequestParam" rx="2.5" ry="2.5" style="stroke:#181818;stroke-width:0.5;" width="140" x="277" y="223.0137"/><ellipse cx="292" cy="239.0137" fill="#B4A7E5" rx="11" ry="11" style="stroke:#181818;stroke-width:1.0;"/><path d="M292.9531,235.6543 L292.9531,242.3105 L294.6719,242.3105 Q295.2813,242.3105 295.5469,242.5449 Q295.8125,242.7793 295.8125,243.1699 Q295.8125,243.5449 295.5469,243.7793 Q295.2813,244.0137 294.6719,244.0137 L289.5313,244.0137 Q288.9219,244.0137 288.6563,243.7793 Q288.3906,243.5449 288.3906,243.1543 Q288.3906,242.7793 288.6563,242.5449 Q288.9219,242.3105 289.5313,242.3105 L291.25,242.3105 L291.25,235.6543 L289.5313,235.6543 Q288.9219,235.6543 288.6563,235.4199 Q288.3906,235.1855 288.3906,234.7949 Q288.3906,234.4199 288.6563,234.1855 Q288.9219,233.9512 289.5313,233.9512 L294.6719,233.9512 Q295.2813,233.9512 295.5469,234.1855 Q295.8125,234.4199 295.8125,234.7949 Q295.8125,235.1855 295.5469,235.4199 Q295.2813,235.6543 294.6719,235.6543 L292.9531,235.6543 Z " fill="#000000"/><text fill="#000000" font-family="sans-serif" font-size="14" font-style="italic" lengthAdjust="spacing" textLength="108" x="306" y="244.8105">@RequestParam</text></g><!--class ExceptionHandler--><g id="elem_ExceptionHandler"><rect codeLine="10" fill="#F1F1F1" height="32" id="ExceptionHandler" rx="2.5" ry="2.5" style="stroke:#181818;stroke-width:0.5;" width="157" x="637.5" y="223.0137"/><ellipse cx="652.5" cy="239.0137" fill="#B4A7E5" rx="11" ry="11" style="stroke:#181818;stroke-width:1.0;"/><path d="M653.4531,235.6543 L653.4531,242.3105 L655.1719,242.3105 Q655.7813,242.3105 656.0469,242.5449 Q656.3125,242.7793 656.3125,243.1699 Q656.3125,243.5449 656.0469,243.7793 Q655.7813,244.0137 655.1719,244.0137 L650.0313,244.0137 Q649.4219,244.0137 649.1563,243.7793 Q648.8906,243.5449 648.8906,243.1543 Q648.8906,242.7793 649.1563,242.5449 Q649.4219,242.3105 650.0313,242.3105 L651.75,242.3105 L651.75,235.6543 L650.0313,235.6543 Q649.4219,235.6543 649.1563,235.4199 Q648.8906,235.1855 648.8906,234.7949 Q648.8906,234.4199 649.1563,234.1855 Q649.4219,233.9512 650.0313,233.9512 L655.1719,233.9512 Q655.7813,233.9512 656.0469,234.1855 Q656.3125,234.4199 656.3125,234.7949 Q656.3125,235.1855 656.0469,235.4199 Q655.7813,235.6543 655.1719,235.6543 L653.4531,235.6543 Z " fill="#000000"/><text fill="#000000" font-family="sans-serif" font-size="14" font-style="italic" lengthAdjust="spacing" textLength="125" x="666.5" y="244.8105">@ExceptionHandler</text></g><!--class ResponseStatus--><g id="elem_ResponseStatus"><rect codeLine="11" fill="#F1F1F1" height="32" id="ResponseStatus" rx="2.5" ry="2.5" style="stroke:#181818;stroke-width:0.5;" width="150" x="452" y="223.0137"/><ellipse cx="467" cy="239.0137" fill="#B4A7E5" rx="11" ry="11" style="stroke:#181818;stroke-width:1.0;"/><path d="M467.9531,235.6543 L467.9531,242.3105 L469.6719,242.3105 Q470.2813,242.3105 470.5469,242.5449 Q470.8125,242.7793 470.8125,243.1699 Q470.8125,243.5449 470.5469,243.7793 Q470.2813,244.0137 469.6719,244.0137 L464.5313,244.0137 Q463.9219,244.0137 463.6563,243.7793 Q463.3906,243.5449 463.3906,243.1543 Q463.3906,242.7793 463.6563,242.5449 Q463.9219,242.3105 464.5313,242.3105 L466.25,242.3105 L466.25,235.6543 L464.5313,235.6543 Q463.9219,235.6543 463.6563,235.4199 Q463.3906,235.1855 463.3906,234.7949 Q463.3906,234.4199 463.6563,234.1855 Q463.9219,233.9512 464.5313,233.9512 L469.6719,233.9512 Q470.2813,233.9512 470.5469,234.1855 Q470.8125,234.4199 470.8125,234.7949 Q470.8125,235.1855 470.5469,235.4199 Q470.2813,235.6543 469.6719,235.6543 L467.9531,235.6543 Z " fill="#000000"/><text fill="#000000" font-family="sans-serif" font-size="14" font-style="italic" lengthAdjust="spacing" textLength="118" x="481" y="244.8105">@ResponseStatus</text></g><!--class GetMapping--><g id="elem_GetMapping"><rect codeLine="12" fill="#F1F1F1" height="32" id="GetMapping" rx="2.5" ry="2.5" style="stroke:#181818;stroke-width:0.5;" width="124" x="118" y="223.0137"/><ellipse cx="133" cy="239.0137" fill="#B4A7E5" rx="11" ry="11" style="stroke:#181818;stroke-width:1.0;"/><path d="M133.9531,235.6543 L133.9531,242.3105 L135.6719,242.3105 Q136.2813,242.3105 136.5469,242.5449 Q136.8125,242.7793 136.8125,243.1699 Q136.8125,243.5449 136.5469,243.7793 Q136.2813,244.0137 135.6719,244.0137 L130.5313,244.0137 Q129.9219,244.0137 129.6563,243.7793 Q129.3906,243.5449 129.3906,243.1543 Q129.3906,242.7793 129.6563,242.5449 Q129.9219,242.3105 130.5313,242.3105 L132.25,242.3105 L132.25,235.6543 L130.5313,235.6543 Q129.9219,235.6543 129.6563,235.4199 Q129.3906,235.1855 129.3906,234.7949 Q129.3906,234.4199 129.6563,234.1855 Q129.9219,233.9512 130.5313,233.9512 L135.6719,233.9512 Q136.2813,233.9512 136.5469,234.1855 Q136.8125,234.4199 136.8125,234.7949 Q136.8125,235.1855 136.5469,235.4199 Q136.2813,235.6543 135.6719,235.6543 L133.9531,235.6543 Z " fill="#000000"/><text fill="#000000" font-family="sans-serif" font-size="14" font-style="italic" lengthAdjust="spacing" textLength="92" x="147" y="244.8105">@GetMapping</text></g><!--class ResponseEntity--><g id="elem_ResponseEntity"><rect codeLine="16" fill="#F1F1F1" height="32" id="ResponseEntity" rx="2.5" ry="2.5" style="stroke:#181818;stroke-width:0.5;" width="142" x="1423" y="223.0137"/><ellipse cx="1438" cy="239.0137" fill="#ADD1B2" rx="11" ry="11" style="stroke:#181818;stroke-width:1.0;"/><path d="M1440.7656,234.8887 Q1440.9219,234.6699 1441.1094,234.5605 Q1441.2969,234.4512 1441.5156,234.4512 Q1441.8906,234.4512 1442.125,234.7168 Q1442.3594,234.9668 1442.3594,235.5762 L1442.3594,237.0293 Q1442.3594,237.6387 1442.125,237.9043 Q1441.8906,238.1699 1441.5156,238.1699 Q1441.1719,238.1699 1440.9688,237.9668 Q1440.7656,237.7793 1440.6563,237.2637 Q1440.6094,236.9043 1440.4219,236.7168 Q1440.0938,236.3418 1439.4844,236.123 Q1438.875,235.9043 1438.25,235.9043 Q1437.4844,235.9043 1436.8438,236.2324 Q1436.2188,236.5605 1435.7188,237.3105 Q1435.2344,238.0605 1435.2344,239.0918 L1435.2344,240.1855 Q1435.2344,241.4199 1436.125,242.248 Q1437.0156,243.0605 1438.6094,243.0605 Q1439.5469,243.0605 1440.2031,242.8105 Q1440.5938,242.6543 1441.0156,242.2168 Q1441.2813,241.9512 1441.4219,241.873 Q1441.5781,241.7949 1441.7813,241.7949 Q1442.1094,241.7949 1442.3594,242.0605 Q1442.625,242.3105 1442.625,242.6543 Q1442.625,242.998 1442.2813,243.4043 Q1441.7813,243.9824 1440.9844,244.3105 Q1439.9063,244.7637 1438.6094,244.7637 Q1437.0938,244.7637 1435.8906,244.1387 Q1434.9063,243.6387 1434.2188,242.5762 Q1433.5313,241.498 1433.5313,240.2168 L1433.5313,239.0605 Q1433.5313,237.7324 1434.1406,236.5918 Q1434.7656,235.4355 1435.8594,234.8262 Q1436.9531,234.2012 1438.1875,234.2012 Q1438.9219,234.2012 1439.5625,234.373 Q1440.2188,234.5293 1440.7656,234.8887 Z " fill="#000000"/><text fill="#000000" font-family="sans-serif" font-size="14" lengthAdjust="spacing" textLength="99" x="1452" y="244.8105">ResponseEntity</text><rect fill="#FFFFFF" height="17.9609" style="stroke:#181818;stroke-width:1.0;stroke-dasharray:2.0,2.0;" width="9" x="1559" y="220.0137"/><text fill="#000000" font-family="sans-serif" font-size="12" font-style="italic" lengthAdjust="spacing" textLength="7" x="1560" y="233.9629">T</text></g><!--class CollectionModel--><g id="elem_CollectionModel"><rect codeLine="19" fill="#F1F1F1" height="32" id="CollectionModel" rx="2.5" ry="2.5" style="stroke:#181818;stroke-width:0.5;" width="144" x="1621" y="223.0137"/><ellipse cx="1636" cy="239.0137" fill="#ADD1B2" rx="11" ry="11" style="stroke:#181818;stroke-width:1.0;"/><path d="M1638.7656,234.8887 Q1638.9219,234.6699 1639.1094,234.5605 Q1639.2969,234.4512 1639.5156,234.4512 Q1639.8906,234.4512 1640.125,234.7168 Q1640.3594,234.9668 1640.3594,235.5762 L1640.3594,237.0293 Q1640.3594,237.6387 1640.125,237.9043 Q1639.8906,238.1699 1639.5156,238.1699 Q1639.1719,238.1699 1638.9688,237.9668 Q1638.7656,237.7793 1638.6563,237.2637 Q1638.6094,236.9043 1638.4219,236.7168 Q1638.0938,236.3418 1637.4844,236.123 Q1636.875,235.9043 1636.25,235.9043 Q1635.4844,235.9043 1634.8438,236.2324 Q1634.2188,236.5605 1633.7188,237.3105 Q1633.2344,238.0605 1633.2344,239.0918 L1633.2344,240.1855 Q1633.2344,241.4199 1634.125,242.248 Q1635.0156,243.0605 1636.6094,243.0605 Q1637.5469,243.0605 1638.2031,242.8105 Q1638.5938,242.6543 1639.0156,242.2168 Q1639.2813,241.9512 1639.4219,241.873 Q1639.5781,241.7949 1639.7813,241.7949 Q1640.1094,241.7949 1640.3594,242.0605 Q1640.625,242.3105 1640.625,242.6543 Q1640.625,242.998 1640.2813,243.4043 Q1639.7813,243.9824 1638.9844,244.3105 Q1637.9063,244.7637 1636.6094,244.7637 Q1635.0938,244.7637 1633.8906,244.1387 Q1632.9063,243.6387 1632.2188,242.5762 Q1631.5313,241.498 1631.5313,240.2168 L1631.5313,239.0605 Q1631.5313,237.7324 1632.1406,236.5918 Q1632.7656,235.4355 1633.8594,234.8262 Q1634.9531,234.2012 1636.1875,234.2012 Q1636.9219,234.2012 1637.5625,234.373 Q1638.2188,234.5293 1638.7656,234.8887 Z " fill="#000000"/><text fill="#000000" font-family="sans-serif" font-size="14" lengthAdjust="spacing" textLength="100" x="1650" y="244.8105">CollectionModel</text><rect fill="#FFFFFF" height="17.9609" style="stroke:#181818;stroke-width:1.0;stroke-dasharray:2.0,2.0;" width="10" x="1758" y="220.0137"/><text fill="#000000" font-family="sans-serif" font-size="12" font-style="italic" lengthAdjust="spacing" textLength="8" x="1759" y="233.9629">E</text></g><!--class MultiValueMap--><g id="elem_MultiValueMap"><rect codeLine="22" fill="#F1F1F1" height="32" id="MultiValueMap" rx="2.5" ry="2.5" style="stroke:#181818;stroke-width:0.5;" width="147" x="1821.5" y="223.0137"/><ellipse cx="1836.5" cy="239.0137" fill="#ADD1B2" rx="11" ry="11" style="stroke:#181818;stroke-width:1.0;"/><path d="M1839.2656,234.8887 Q1839.4219,234.6699 1839.6094,234.5605 Q1839.7969,234.4512 1840.0156,234.4512 Q1840.3906,234.4512 1840.625,234.7168 Q1840.8594,234.9668 1840.8594,235.5762 L1840.8594,237.0293 Q1840.8594,237.6387 1840.625,237.9043 Q1840.3906,238.1699 1840.0156,238.1699 Q1839.6719,238.1699 1839.4688,237.9668 Q1839.2656,237.7793 1839.1563,237.2637 Q1839.1094,236.9043 1838.9219,236.7168 Q1838.5938,236.3418 1837.9844,236.123 Q1837.375,235.9043 1836.75,235.9043 Q1835.9844,235.9043 1835.3438,236.2324 Q1834.7188,236.5605 1834.2188,237.3105 Q1833.7344,238.0605 1833.7344,239.0918 L1833.7344,240.1855 Q1833.7344,241.4199 1834.625,242.248 Q1835.5156,243.0605 1837.1094,243.0605 Q1838.0469,243.0605 1838.7031,242.8105 Q1839.0938,242.6543 1839.5156,242.2168 Q1839.7813,241.9512 1839.9219,241.873 Q1840.0781,241.7949 1840.2813,241.7949 Q1840.6094,241.7949 1840.8594,242.0605 Q1841.125,242.3105 1841.125,242.6543 Q1841.125,242.998 1840.7813,243.4043 Q1840.2813,243.9824 1839.4844,244.3105 Q1838.4063,244.7637 1837.1094,244.7637 Q1835.5938,244.7637 1834.3906,244.1387 Q1833.4063,243.6387 1832.7188,242.5762 Q1832.0313,241.498 1832.0313,240.2168 L1832.0313,239.0605 Q1832.0313,237.7324 1832.6406,236.5918 Q1833.2656,235.4355 1834.3594,234.8262 Q1835.4531,234.2012 1836.6875,234.2012 Q1837.4219,234.2012 1838.0625,234.373 Q1838.7188,234.5293 1839.2656,234.8887 Z " fill="#000000"/><text fill="#000000" font-family="sans-serif" font-size="14" lengthAdjust="spacing" textLength="92" x="1850.5" y="244.8105">MultiValueMap</text><rect fill="#FFFFFF" height="17.9609" style="stroke:#181818;stroke-width:1.0;stroke-dasharray:2.0,2.0;" width="21" x="1950.5" y="220.0137"/><text fill="#000000" font-family="sans-serif" font-size="12" font-style="italic" lengthAdjust="spacing" textLength="19" x="1951.5" y="233.9629">K,V</text></g><!--class OpenAPIDefinition--><g id="elem_OpenAPIDefinition"><rect codeLine="27" fill="#F1F1F1" height="32" id="OpenAPIDefinition" rx="2.5" ry="2.5" style="stroke:#181818;stroke-width:0.5;" width="148" x="2542" y="223.0137"/><ellipse cx="2557" cy="239.0137" fill="#B4A7E5" rx="11" ry="11" style="stroke:#181818;stroke-width:1.0;"/><path d="M2557.9531,235.6543 L2557.9531,242.3105 L2559.6719,242.3105 Q2560.2813,242.3105 2560.5469,242.5449 Q2560.8125,242.7793 2560.8125,243.1699 Q2560.8125,243.5449 2560.5469,243.7793 Q2560.2813,244.0137 2559.6719,244.0137 L2554.5313,244.0137 Q2553.9219,244.0137 2553.6563,243.7793 Q2553.3906,243.5449 2553.3906,243.1543 Q2553.3906,242.7793 2553.6563,242.5449 Q2553.9219,242.3105 2554.5313,242.3105 L2556.25,242.3105 L2556.25,235.6543 L2554.5313,235.6543 Q2553.9219,235.6543 2553.6563,235.4199 Q2553.3906,235.1855 2553.3906,234.7949 Q2553.3906,234.4199 2553.6563,234.1855 Q2553.9219,233.9512 2554.5313,233.9512 L2559.6719,233.9512 Q2560.2813,233.9512 2560.5469,234.1855 Q2560.8125,234.4199 2560.8125,234.7949 Q2560.8125,235.1855 2560.5469,235.4199 Q2560.2813,235.6543 2559.6719,235.6543 L2557.9531,235.6543 Z " fill="#000000"/><text fill="#000000" font-family="sans-serif" font-size="14" font-style="italic" lengthAdjust="spacing" textLength="116" x="2571" y="244.8105">OpenAPIDefinition</text></g><!--class Operation--><g id="elem_Operation"><rect codeLine="28" fill="#F1F1F1" height="32" id="Operation" rx="2.5" ry="2.5" style="stroke:#181818;stroke-width:0.5;" width="95" x="2411.5" y="223.0137"/><ellipse cx="2426.5" cy="239.0137" fill="#B4A7E5" rx="11" ry="11" style="stroke:#181818;stroke-width:1.0;"/><path d="M2427.4531,235.6543 L2427.4531,242.3105 L2429.1719,242.3105 Q2429.7813,242.3105 2430.0469,242.5449 Q2430.3125,242.7793 2430.3125,243.1699 Q2430.3125,243.5449 2430.0469,243.7793 Q2429.7813,244.0137 2429.1719,244.0137 L2424.0313,244.0137 Q2423.4219,244.0137 2423.1563,243.7793 Q2422.8906,243.5449 2422.8906,243.1543 Q2422.8906,242.7793 2423.1563,242.5449 Q2423.4219,242.3105 2424.0313,242.3105 L2425.75,242.3105 L2425.75,235.6543 L2424.0313,235.6543 Q2423.4219,235.6543 2423.1563,235.4199 Q2422.8906,235.1855 2422.8906,234.7949 Q2422.8906,234.4199 2423.1563,234.1855 Q2423.4219,233.9512 2424.0313,233.9512 L2429.1719,233.9512 Q2429.7813,233.9512 2430.0469,234.1855 Q2430.3125,234.4199 2430.3125,234.7949 Q2430.3125,235.1855 2430.0469,235.4199 Q2429.7813,235.6543 2429.1719,235.6543 L2427.4531,235.6543 Z " fill="#000000"/><text fill="#000000" font-family="sans-serif" font-size="14" font-style="italic" lengthAdjust="spacing" textLength="63" x="2440.5" y="244.8105">Operation</text></g><!--class Info--><g id="elem_Info"><rect codeLine="29" fill="#F1F1F1" height="32" id="Info" rx="2.5" ry="2.5" style="stroke:#181818;stroke-width:0.5;" width="56" x="2320" y="223.0137"/><ellipse cx="2335" cy="239.0137" fill="#B4A7E5" rx="11" ry="11" style="stroke:#181818;stroke-width:1.0;"/><path d="M2335.9531,235.6543 L2335.9531,242.3105 L2337.6719,242.3105 Q2338.2813,242.3105 2338.5469,242.5449 Q2338.8125,242.7793 2338.8125,243.1699 Q2338.8125,243.5449 2338.5469,243.7793 Q2338.2813,244.0137 2337.6719,244.0137 L2332.5313,244.0137 Q2331.9219,244.0137 2331.6563,243.7793 Q2331.3906,243.5449 2331.3906,243.1543 Q2331.3906,242.7793 2331.6563,242.5449 Q2331.9219,242.3105 2332.5313,242.3105 L2334.25,242.3105 L2334.25,235.6543 L2332.5313,235.6543 Q2331.9219,235.6543 2331.6563,235.4199 Q2331.3906,235.1855 2331.3906,234.7949 Q2331.3906,234.4199 2331.6563,234.1855 Q2331.9219,233.9512 2332.5313,233.9512 L2337.6719,233.9512 Q2338.2813,233.9512 2338.5469,234.1855 Q2338.8125,234.4199 2338.8125,234.7949 Q2338.8125,235.1855 2338.5469,235.4199 Q2338.2813,235.6543 2337.6719,235.6543 L2335.9531,235.6543 Z " fill="#000000"/><text fill="#000000" font-family="sans-serif" font-size="14" font-style="italic" lengthAdjust="spacing" textLength="24" x="2349" y="244.8105">Info</text></g><!--class ApiResponse--><g id="elem_ApiResponse"><rect codeLine="30" fill="#F1F1F1" height="32" id="ApiResponse" rx="2.5" ry="2.5" style="stroke:#181818;stroke-width:0.5;" width="116" x="2169" y="223.0137"/><ellipse cx="2184" cy="239.0137" fill="#B4A7E5" rx="11" ry="11" style="stroke:#181818;stroke-width:1.0;"/><path d="M2184.9531,235.6543 L2184.9531,242.3105 L2186.6719,242.3105 Q2187.2813,242.3105 2187.5469,242.5449 Q2187.8125,242.7793 2187.8125,243.1699 Q2187.8125,243.5449 2187.5469,243.7793 Q2187.2813,244.0137 2186.6719,244.0137 L2181.5313,244.0137 Q2180.9219,244.0137 2180.6563,243.7793 Q2180.3906,243.5449 2180.3906,243.1543 Q2180.3906,242.7793 2180.6563,242.5449 Q2180.9219,242.3105 2181.5313,242.3105 L2183.25,242.3105 L2183.25,235.6543 L2181.5313,235.6543 Q2180.9219,235.6543 2180.6563,235.4199 Q2180.3906,235.1855 2180.3906,234.7949 Q2180.3906,234.4199 2180.6563,234.1855 Q2180.9219,233.9512 2181.5313,233.9512 L2186.6719,233.9512 Q2187.2813,233.9512 2187.5469,234.1855 Q2187.8125,234.4199 2187.8125,234.7949 Q2187.8125,235.1855 2187.5469,235.4199 Q2187.2813,235.6543 2186.6719,235.6543 L2184.9531,235.6543 Z " fill="#000000"/><text fill="#000000" font-family="sans-serif" font-size="14" font-style="italic" lengthAdjust="spacing" textLength="84" x="2198" y="244.8105">ApiResponse</text></g><!--class HttpServletRequest--><g id="elem_HttpServletRequest"><rect codeLine="34" fill="#F1F1F1" height="32" id="HttpServletRequest" rx="2.5" ry="2.5" style="stroke:#181818;stroke-width:0.5;" width="154" x="542" y="590.5137"/><ellipse cx="557" cy="606.5137" fill="#B4A7E5" rx="11" ry="11" style="stroke:#181818;stroke-width:1.0;"/><path d="M557.9531,603.1543 L557.9531,609.8105 L559.6719,609.8105 Q560.2813,609.8105 560.5469,610.0449 Q560.8125,610.2793 560.8125,610.6699 Q560.8125,611.0449 560.5469,611.2793 Q560.2813,611.5137 559.6719,611.5137 L554.5313,611.5137 Q553.9219,611.5137 553.6563,611.2793 Q553.3906,611.0449 553.3906,610.6543 Q553.3906,610.2793 553.6563,610.0449 Q553.9219,609.8105 554.5313,609.8105 L556.25,609.8105 L556.25,603.1543 L554.5313,603.1543 Q553.9219,603.1543 553.6563,602.9199 Q553.3906,602.6855 553.3906,602.2949 Q553.3906,601.9199 553.6563,601.6855 Q553.9219,601.4512 554.5313,601.4512 L559.6719,601.4512 Q560.2813,601.4512 560.5469,601.6855 Q560.8125,601.9199 560.8125,602.2949 Q560.8125,602.6855 560.5469,602.9199 Q560.2813,603.1543 559.6719,603.1543 L557.9531,603.1543 Z " fill="#000000"/><text fill="#000000" font-family="sans-serif" font-size="14" font-style="italic" lengthAdjust="spacing" textLength="122" x="571" y="612.3105">HttpServletRequest</text></g><!--class UUID--><g id="elem_UUID"><rect codeLine="38" fill="#F1F1F1" height="32" id="UUID" rx="2.5" ry="2.5" style="stroke:#181818;stroke-width:0.5;" width="63" x="638.5" y="815.0137"/><ellipse cx="653.5" cy="831.0137" fill="#ADD1B2" rx="11" ry="11" style="stroke:#181818;stroke-width:1.0;"/><path d="M656.2656,826.8887 Q656.4219,826.6699 656.6094,826.5605 Q656.7969,826.4512 657.0156,826.4512 Q657.3906,826.4512 657.625,826.7168 Q657.8594,826.9668 657.8594,827.5762 L657.8594,829.0293 Q657.8594,829.6387 657.625,829.9043 Q657.3906,830.1699 657.0156,830.1699 Q656.6719,830.1699 656.4688,829.9668 Q656.2656,829.7793 656.1563,829.2637 Q656.1094,828.9043 655.9219,828.7168 Q655.5938,828.3418 654.9844,828.123 Q654.375,827.9043 653.75,827.9043 Q652.9844,827.9043 652.3438,828.2324 Q651.7188,828.5605 651.2188,829.3105 Q650.7344,830.0605 650.7344,831.0918 L650.7344,832.1855 Q650.7344,833.4199 651.625,834.248 Q652.5156,835.0605 654.1094,835.0605 Q655.0469,835.0605 655.7031,834.8105 Q656.0938,834.6543 656.5156,834.2168 Q656.7813,833.9512 656.9219,833.873 Q657.0781,833.7949 657.2813,833.7949 Q657.6094,833.7949 657.8594,834.0605 Q658.125,834.3105 658.125,834.6543 Q658.125,834.998 657.7813,835.4043 Q657.2813,835.9824 656.4844,836.3105 Q655.4063,836.7637 654.1094,836.7637 Q652.5938,836.7637 651.3906,836.1387 Q650.4063,835.6387 649.7188,834.5762 Q649.0313,833.498 649.0313,832.2168 L649.0313,831.0605 Q649.0313,829.7324 649.6406,828.5918 Q650.2656,827.4355 651.3594,826.8262 Q652.4531,826.2012 653.6875,826.2012 Q654.4219,826.2012 655.0625,826.373 Q655.7188,826.5293 656.2656,826.8887 Z " fill="#000000"/><text fill="#000000" font-family="sans-serif" font-size="14" lengthAdjust="spacing" textLength="31" x="667.5" y="836.8105">UUID</text></g><!--class zuliefererReadService--><g id="elem_zuliefererReadService"><rect codeLine="44" fill="#F1F1F1" height="60.543" id="zuliefererReadService" rx="2.5" ry="2.5" style="stroke:#181818;stroke-width:0.5;" width="171" x="1115.5" y="957.0137"/><ellipse cx="1130.5" cy="987.2852" fill="#ADD1B2" rx="11" ry="11" style="stroke:#181818;stroke-width:1.0;"/><path d="M1133.2656,983.1602 Q1133.4219,982.9414 1133.6094,982.832 Q1133.7969,982.7227 1134.0156,982.7227 Q1134.3906,982.7227 1134.625,982.9883 Q1134.8594,983.2383 1134.8594,983.8477 L1134.8594,985.3008 Q1134.8594,985.9102 1134.625,986.1758 Q1134.3906,986.4414 1134.0156,986.4414 Q1133.6719,986.4414 1133.4688,986.2383 Q1133.2656,986.0508 1133.1563,985.5352 Q1133.1094,985.1758 1132.9219,984.9883 Q1132.5938,984.6133 1131.9844,984.3945 Q1131.375,984.1758 1130.75,984.1758 Q1129.9844,984.1758 1129.3438,984.5039 Q1128.7188,984.832 1128.2188,985.582 Q1127.7344,986.332 1127.7344,987.3633 L1127.7344,988.457 Q1127.7344,989.6914 1128.625,990.5195 Q1129.5156,991.332 1131.1094,991.332 Q1132.0469,991.332 1132.7031,991.082 Q1133.0938,990.9258 1133.5156,990.4883 Q1133.7813,990.2227 1133.9219,990.1445 Q1134.0781,990.0664 1134.2813,990.0664 Q1134.6094,990.0664 1134.8594,990.332 Q1135.125,990.582 1135.125,990.9258 Q1135.125,991.2695 1134.7813,991.6758 Q1134.2813,992.2539 1133.4844,992.582 Q1132.4063,993.0352 1131.1094,993.0352 Q1129.5938,993.0352 1128.3906,992.4102 Q1127.4063,991.9102 1126.7188,990.8477 Q1126.0313,989.7695 1126.0313,988.4883 L1126.0313,987.332 Q1126.0313,986.0039 1126.6406,984.8633 Q1127.2656,983.707 1128.3594,983.0977 Q1129.4531,982.4727 1130.6875,982.4727 Q1131.4219,982.4727 1132.0625,982.6445 Q1132.7188,982.8008 1133.2656,983.1602 Z " fill="#000000"/><text fill="#000000" font-family="sans-serif" font-size="12" font-style="italic" lengthAdjust="spacing" textLength="51" x="1188.5" y="974.9629">&#171;control&#187;</text><text fill="#000000" font-family="sans-serif" font-size="12" font-style="italic" lengthAdjust="spacing" textLength="67" x="1180.5" y="990.9238">&#171;@Service&#187;</text><text fill="#000000" font-family="sans-serif" font-size="14" lengthAdjust="spacing" textLength="139" x="1144.5" y="1009.043">zuliefererReadService</text></g><!--class NotFoundException--><g id="elem_NotFoundException"><rect codeLine="45" fill="#F1F1F1" height="32" id="NotFoundException" rx="2.5" ry="2.5" style="stroke:#181818;stroke-width:0.5;" width="155" x="1321.5" y="971.5137"/><ellipse cx="1336.5" cy="987.5137" fill="#ADD1B2" rx="11" ry="11" style="stroke:#181818;stroke-width:1.0;"/><path d="M1339.2656,983.3887 Q1339.4219,983.1699 1339.6094,983.0605 Q1339.7969,982.9512 1340.0156,982.9512 Q1340.3906,982.9512 1340.625,983.2168 Q1340.8594,983.4668 1340.8594,984.0762 L1340.8594,985.5293 Q1340.8594,986.1387 1340.625,986.4043 Q1340.3906,986.6699 1340.0156,986.6699 Q1339.6719,986.6699 1339.4688,986.4668 Q1339.2656,986.2793 1339.1563,985.7637 Q1339.1094,985.4043 1338.9219,985.2168 Q1338.5938,984.8418 1337.9844,984.623 Q1337.375,984.4043 1336.75,984.4043 Q1335.9844,984.4043 1335.3438,984.7324 Q1334.7188,985.0605 1334.2188,985.8105 Q1333.7344,986.5605 1333.7344,987.5918 L1333.7344,988.6855 Q1333.7344,989.9199 1334.625,990.748 Q1335.5156,991.5605 1337.1094,991.5605 Q1338.0469,991.5605 1338.7031,991.3105 Q1339.0938,991.1543 1339.5156,990.7168 Q1339.7813,990.4512 1339.9219,990.373 Q1340.0781,990.2949 1340.2813,990.2949 Q1340.6094,990.2949 1340.8594,990.5605 Q1341.125,990.8105 1341.125,991.1543 Q1341.125,991.498 1340.7813,991.9043 Q1340.2813,992.4824 1339.4844,992.8105 Q1338.4063,993.2637 1337.1094,993.2637 Q1335.5938,993.2637 1334.3906,992.6387 Q1333.4063,992.1387 1332.7188,991.0762 Q1332.0313,989.998 1332.0313,988.7168 L1332.0313,987.5605 Q1332.0313,986.2324 1332.6406,985.0918 Q1333.2656,983.9355 1334.3594,983.3262 Q1335.4531,982.7012 1336.6875,982.7012 Q1337.4219,982.7012 1338.0625,982.873 Q1338.7188,983.0293 1339.2656,983.3887 Z " fill="#000000"/><text fill="#000000" font-family="sans-serif" font-size="14" lengthAdjust="spacing" textLength="123" x="1350.5" y="993.3105">NotFoundException</text></g><!--class zuliefererModel--><g id="elem_zuliefererModel"><rect codeLine="49" fill="#F1F1F1" height="44.582" id="zuliefererModel" rx="2.5" ry="2.5" style="stroke:#181818;stroke-width:0.5;" width="128" x="1123" y="808.5137"/><ellipse cx="1138" cy="830.8047" fill="#ADD1B2" rx="11" ry="11" style="stroke:#181818;stroke-width:1.0;"/><path d="M1140.7656,826.6797 Q1140.9219,826.4609 1141.1094,826.3516 Q1141.2969,826.2422 1141.5156,826.2422 Q1141.8906,826.2422 1142.125,826.5078 Q1142.3594,826.7578 1142.3594,827.3672 L1142.3594,828.8203 Q1142.3594,829.4297 1142.125,829.6953 Q1141.8906,829.9609 1141.5156,829.9609 Q1141.1719,829.9609 1140.9688,829.7578 Q1140.7656,829.5703 1140.6563,829.0547 Q1140.6094,828.6953 1140.4219,828.5078 Q1140.0938,828.1328 1139.4844,827.9141 Q1138.875,827.6953 1138.25,827.6953 Q1137.4844,827.6953 1136.8438,828.0234 Q1136.2188,828.3516 1135.7188,829.1016 Q1135.2344,829.8516 1135.2344,830.8828 L1135.2344,831.9766 Q1135.2344,833.2109 1136.125,834.0391 Q1137.0156,834.8516 1138.6094,834.8516 Q1139.5469,834.8516 1140.2031,834.6016 Q1140.5938,834.4453 1141.0156,834.0078 Q1141.2813,833.7422 1141.4219,833.6641 Q1141.5781,833.5859 1141.7813,833.5859 Q1142.1094,833.5859 1142.3594,833.8516 Q1142.625,834.1016 1142.625,834.4453 Q1142.625,834.7891 1142.2813,835.1953 Q1141.7813,835.7734 1140.9844,836.1016 Q1139.9063,836.5547 1138.6094,836.5547 Q1137.0938,836.5547 1135.8906,835.9297 Q1134.9063,835.4297 1134.2188,834.3672 Q1133.5313,833.2891 1133.5313,832.0078 L1133.5313,830.8516 Q1133.5313,829.5234 1134.1406,828.3828 Q1134.7656,827.2266 1135.8594,826.6172 Q1136.9531,825.9922 1138.1875,825.9922 Q1138.9219,825.9922 1139.5625,826.1641 Q1140.2188,826.3203 1140.7656,826.6797 Z " fill="#000000"/><text fill="#000000" font-family="sans-serif" font-size="12" font-style="italic" lengthAdjust="spacing" textLength="43" x="1178.5" y="826.4629">&#171;entity&#187;</text><text fill="#000000" font-family="sans-serif" font-size="14" lengthAdjust="spacing" textLength="96" x="1152" y="844.582">zuliefererModel</text></g><!--class zuliefererGetController--><g id="elem_zuliefererGetController"><rect codeLine="51" fill="#F1F1F1" height="158.9883" id="zuliefererGetController" rx="2.5" ry="2.5" style="stroke:#181818;stroke-width:0.5;" width="945" x="848.5" y="527.0137"/><ellipse cx="1245.25" cy="565.2656" fill="#ADD1B2" rx="11" ry="11" style="stroke:#181818;stroke-width:1.0;"/><path d="M1248.0156,561.1406 Q1248.1719,560.9219 1248.3594,560.8125 Q1248.5469,560.7031 1248.7656,560.7031 Q1249.1406,560.7031 1249.375,560.9688 Q1249.6094,561.2188 1249.6094,561.8281 L1249.6094,563.2813 Q1249.6094,563.8906 1249.375,564.1563 Q1249.1406,564.4219 1248.7656,564.4219 Q1248.4219,564.4219 1248.2188,564.2188 Q1248.0156,564.0313 1247.9063,563.5156 Q1247.8594,563.1563 1247.6719,562.9688 Q1247.3438,562.5938 1246.7344,562.375 Q1246.125,562.1563 1245.5,562.1563 Q1244.7344,562.1563 1244.0938,562.4844 Q1243.4688,562.8125 1242.9688,563.5625 Q1242.4844,564.3125 1242.4844,565.3438 L1242.4844,566.4375 Q1242.4844,567.6719 1243.375,568.5 Q1244.2656,569.3125 1245.8594,569.3125 Q1246.7969,569.3125 1247.4531,569.0625 Q1247.8438,568.9063 1248.2656,568.4688 Q1248.5313,568.2031 1248.6719,568.125 Q1248.8281,568.0469 1249.0313,568.0469 Q1249.3594,568.0469 1249.6094,568.3125 Q1249.875,568.5625 1249.875,568.9063 Q1249.875,569.25 1249.5313,569.6563 Q1249.0313,570.2344 1248.2344,570.5625 Q1247.1563,571.0156 1245.8594,571.0156 Q1244.3438,571.0156 1243.1406,570.3906 Q1242.1563,569.8906 1241.4688,568.8281 Q1240.7813,567.75 1240.7813,566.4688 L1240.7813,565.3125 Q1240.7813,563.9844 1241.3906,562.8438 Q1242.0156,561.6875 1243.1094,561.0781 Q1244.2031,560.4531 1245.4375,560.4531 Q1246.1719,560.4531 1246.8125,560.625 Q1247.4688,560.7813 1248.0156,561.1406 Z " fill="#000000"/><text fill="#000000" font-family="sans-serif" font-size="12" font-style="italic" lengthAdjust="spacing" textLength="67" x="1303.75" y="544.9629">&#171;boundary&#187;</text><text fill="#000000" font-family="sans-serif" font-size="12" font-style="italic" lengthAdjust="spacing" textLength="105" x="1284.75" y="560.9238">&#171;@RestController&#187;</text><text fill="#000000" font-family="sans-serif" font-size="12" font-style="italic" lengthAdjust="spacing" textLength="119" x="1277.75" y="576.8848">&#171;@RequestMapping&#187;</text><text fill="#000000" font-family="sans-serif" font-size="14" lengthAdjust="spacing" textLength="143" x="1265.75" y="595.0039">zuliefererGetController</text><line style="stroke:#181818;stroke-width:0.5;" x1="849.5" x2="1792.5" y1="603.5176" y2="603.5176"/><text fill="#000000" font-family="sans-serif" font-size="14" lengthAdjust="spacing" textLength="698" x="854.5" y="622.625">+@GetMapping getById(@PathVariable id: UUID, version: String, request: HttpServletRequest): zuliefererModel</text><text fill="#000000" font-family="sans-serif" font-size="14" lengthAdjust="spacing" textLength="933" x="854.5" y="641.2461">+@GetMapping get(@RequestParam queryParams: MultiValueMap&lt;String, String&gt;, request: HttpServletRequest): CollectionModel&lt;zuliefererModel&gt;</text><text fill="#000000" font-family="sans-serif" font-size="14" lengthAdjust="spacing" textLength="651" x="854.5" y="659.8672">+@ExceptionHandler onNotFound(ex: NotFoundException, request: HttpServletRequest): ProblemDetail</text><text fill="#000000" font-family="sans-serif" font-size="14" lengthAdjust="spacing" textLength="549" x="854.5" y="678.4883">+zuliefererToModel(zulieferer: Zulieferer, request: HttpServletRequest): ZuliefererModel</text></g><!--reverse link HttpServletRequest to UUID--><!--link zuliefererGetController to zuliefererReadService--><g id="link_zuliefererGetController_zuliefererReadService"><path codeLine="58" d="M1315.04,700.6037 C1308.72,758.4737 1295.73,833.3437 1269,895.0137 C1261.22,912.9537 1249.32,930.6837 1237.63,945.6837 " fill="none" id="zuliefererGetController-zuliefererReadService" style="stroke:#181818;stroke-width:1.0;"/><polygon fill="none" points="1316.35,687.7837,1311.7576,693.3433,1315.1233,699.7208,1319.7157,694.1611,1316.35,687.7837" style="stroke:#181818;stroke-width:1.0;"/><polygon fill="#181818" points="1229.76,955.4037,1238.5312,950.9242,1232.9055,951.5171,1232.3126,945.8914,1229.76,955.4037" style="stroke:#181818;stroke-width:1.0;"/><line style="stroke:#181818;stroke-width:1.0;" x1="1232.9055" x2="1237.94" y1="951.5171" y2="945.2987"/><text fill="#000000" font-family="sans-serif" font-size="13" lengthAdjust="spacing" textLength="40" x="1312" y="836.542">service</text><text fill="#000000" font-family="sans-serif" font-size="13" lengthAdjust="spacing" textLength="7" x="1226.8239" y="945.5567">1</text></g><!--link zuliefererGetController to zuliefererModel--><g id="link_zuliefererGetController_zuliefererModel"><path codeLine="59" d="M1273.57,686.2737 C1249.15,726.8237 1220.92,773.6837 1203.52,802.5937 " fill="none" id="zuliefererGetController-to-zuliefererModel" style="stroke:#181818;stroke-width:1.0;stroke-dasharray:7.0,7.0;"/><polygon fill="#181818" points="1200.96,806.8237,1209.0288,801.1761,1203.5388,802.54,1202.1749,797.05,1200.96,806.8237" style="stroke:#181818;stroke-width:1.0;"/></g><!--link zuliefererGetController to NotFoundException--><g id="link_zuliefererGetController_NotFoundException"><path codeLine="60" d="M1358.28,686.3537 C1363.2,699.0637 1367.68,712.2437 1371,725.0137 C1393.58,811.8037 1397.99,919.3537 1398.82,964.7137 " fill="none" id="zuliefererGetController-to-NotFoundException" style="stroke:#181818;stroke-width:1.0;stroke-dasharray:7.0,7.0;"/><polygon fill="#181818" points="1398.9,969.6837,1402.7451,960.6164,1398.8143,964.6844,1394.7463,960.7536,1398.9,969.6837" style="stroke:#181818;stroke-width:1.0;"/></g><!--reverse link RestController to zuliefererGetController--><g id="link_RestController_zuliefererGetController"><path codeLine="62" d="M1254.2,261.6237 C1264.08,312.4937 1289.22,441.9237 1305.69,526.6837 " fill="none" id="RestController-backto-zuliefererGetController" style="stroke:#181818;stroke-width:1.0;stroke-dasharray:7.0,7.0;"/><polygon fill="#181818" points="1253.25,256.7437,1251.0444,266.3424,1254.2059,261.6515,1258.8968,264.813,1253.25,256.7437" style="stroke:#181818;stroke-width:1.0;"/></g><!--reverse link RequestMapping to zuliefererGetController--><g id="link_RequestMapping_zuliefererGetController"><path codeLine="63" d="M1083.05,260.3937 C1117.52,310.3837 1207.74,441.2337 1266.65,526.6837 " fill="none" id="RequestMapping-backto-zuliefererGetController" style="stroke:#181818;stroke-width:1.0;stroke-dasharray:7.0,7.0;"/><polygon fill="#181818" points="1080.37,256.5037,1082.1797,266.1848,1083.2057,260.6218,1088.7687,261.6478,1080.37,256.5037" style="stroke:#181818;stroke-width:1.0;"/></g><!--reverse link PathVariable to zuliefererGetController--><g id="link_PathVariable_zuliefererGetController"><path codeLine="64" d="M902.13,260.9037 C915.23,289.1737 941.51,340.0937 975,375.0137 C1032.2,434.6637 1107.45,487.0637 1173.16,526.7637 " fill="none" id="PathVariable-backto-zuliefererGetController" style="stroke:#181818;stroke-width:1.0;stroke-dasharray:7.0,7.0;"/><polygon fill="#181818" points="900.17,256.6037,900.2783,266.4519,902.2508,261.1501,907.5526,263.1226,900.17,256.6037" style="stroke:#181818;stroke-width:1.0;"/></g><!--reverse link ExceptionHandler to zuliefererGetController--><g id="link_ExceptionHandler_zuliefererGetController"><path codeLine="65" d="M726.27,260.8537 C741.46,289.8437 772.46,342.4437 812,375.0137 C890.25,439.4537 989.43,489.6937 1079.42,526.5937 " fill="none" id="ExceptionHandler-backto-zuliefererGetController" style="stroke:#181818;stroke-width:1.0;stroke-dasharray:7.0,7.0;"/><polygon fill="#181818" points="724.14,256.7237,724.7254,266.5551,726.4387,261.164,731.8298,262.8772,724.14,256.7237" style="stroke:#181818;stroke-width:1.0;"/></g><!--reverse link ResponseStatus to zuliefererGetController--><g id="link_ResponseStatus_zuliefererGetController"><path codeLine="66" d="M535.15,260.8037 C548.2,291.1437 576.79,347.0037 620,375.0137 C654.89,397.6337 671.82,381.3237 712,392.0137 C850.73,428.9137 1003.14,482.3537 1120.79,526.5437 " fill="none" id="ResponseStatus-backto-zuliefererGetController" style="stroke:#181818;stroke-width:1.0;stroke-dasharray:7.0,7.0;"/><polygon fill="#181818" points="533.34,256.4837,533.146,266.3306,535.2803,261.0918,540.5191,263.2262,533.34,256.4837" style="stroke:#181818;stroke-width:1.0;"/></g><!--reverse link RequestParam to zuliefererGetController--><g id="link_RequestParam_zuliefererGetController"><path codeLine="67" d="M353.65,260.9737 C364.75,292.0337 390.24,349.3937 434,375.0137 C487.41,406.2837 651.33,379.7737 712,392.0137 C859.3,421.7437 1019.42,478.9237 1138.5,526.6337 " fill="none" id="RequestParam-backto-zuliefererGetController" style="stroke:#181818;stroke-width:1.0;stroke-dasharray:7.0,7.0;"/><polygon fill="#181818" points="352.12,256.5537,351.2952,266.3679,353.7609,261.2767,358.8521,263.7424,352.12,256.5537" style="stroke:#181818;stroke-width:1.0;"/></g><!--reverse link ResponseEntity to zuliefererGetController--><g id="link_ResponseEntity_zuliefererGetController"><path codeLine="68" d="M1484.07,261.0037 C1460.19,311.4437 1398.59,441.5837 1358.31,526.6837 " fill="none" id="ResponseEntity-backto-zuliefererGetController" style="stroke:#181818;stroke-width:1.0;stroke-dasharray:7.0,7.0;"/><polygon fill="#181818" points="1486.14,256.6237,1478.667,263.0389,1483.9959,261.1406,1485.8941,266.4695,1486.14,256.6237" style="stroke:#181818;stroke-width:1.0;"/></g><!--reverse link MultiValueMap to zuliefererGetController--><g id="link_MultiValueMap_zuliefererGetController"><path codeLine="69" d="M1881.69,260.5037 C1862.31,289.0837 1823.93,341.2137 1781,375.0137 C1703.01,436.4237 1606.05,487.9537 1521.29,526.6037 " fill="none" id="MultiValueMap-backto-zuliefererGetController" style="stroke:#181818;stroke-width:1.0;stroke-dasharray:7.0,7.0;"/><polygon fill="#181818" points="1884.46,256.3737,1876.127,261.6235,1881.6766,260.5273,1882.7728,266.0769,1884.46,256.3737" style="stroke:#181818;stroke-width:1.0;"/></g><!--reverse link CollectionModel to zuliefererGetController--><g id="link_CollectionModel_zuliefererGetController"><path codeLine="70" d="M1677.7,260.3637 C1656.93,287.5137 1618.13,336.6537 1581,375.0137 C1529.4,428.3337 1467.36,483.6237 1416.83,526.6837 " fill="none" id="CollectionModel-backto-zuliefererGetController" style="stroke:#181818;stroke-width:1.0;stroke-dasharray:7.0,7.0;"/><polygon fill="#181818" points="1680.69,256.4337,1672.0518,261.1646,1677.6581,260.4095,1678.4132,266.0157,1680.69,256.4337" style="stroke:#181818;stroke-width:1.0;"/></g><!--link zuliefererGetController to HttpServletRequest--><g id="link_zuliefererGetController_HttpServletRequest"><path codeLine="71" d="M848.03,606.5137 C799.68,606.5137 751.33,606.5137 702.98,606.5137 " fill="none" id="zuliefererGetController-to-HttpServletRequest" style="stroke:#181818;stroke-width:1.0;stroke-dasharray:7.0,7.0;"/><polygon fill="#181818" points="697.98,606.5137,706.98,610.5137,702.98,606.5137,706.98,602.5137,697.98,606.5137" style="stroke:#181818;stroke-width:1.0;"/></g><!--reverse link GetMapping to zuliefererGetController--><g id="link_GetMapping_zuliefererGetController"><path codeLine="72" d="M185.52,261.3737 C194.84,292.5437 216.92,349.5537 259,375.0137 C302.09,401.0937 662.48,382.8037 712,392.0137 C861.25,419.7637 1023.12,477.9537 1142.44,526.5837 " fill="none" id="GetMapping-backto-zuliefererGetController" style="stroke:#181818;stroke-width:1.0;stroke-dasharray:7.0,7.0;"/><polygon fill="#181818" points="184.14,256.5837,182.7932,266.34,185.5268,261.3875,190.4793,264.1211,184.14,256.5837" style="stroke:#181818;stroke-width:1.0;"/></g><!--reverse link OpenAPIDefinition to zuliefererGetController--><g id="link_OpenAPIDefinition_zuliefererGetController"><path codeLine="74" d="M2607.77,261.2337 C2594.82,291.6337 2566.68,346.9937 2524,375.0137 C2404.18,453.6837 2076.94,513.4137 1793.97,552.3437 " fill="none" id="OpenAPIDefinition-backto-zuliefererGetController" style="stroke:#181818;stroke-width:1.0;stroke-dasharray:7.0,7.0;"/><polygon fill="#181818" points="2609.58,256.9037,2602.4187,263.665,2607.6519,261.5169,2609.8,266.7501,2609.58,256.9037" style="stroke:#181818;stroke-width:1.0;"/></g><!--reverse link Operation to zuliefererGetController--><g id="link_Operation_zuliefererGetController"><path codeLine="75" d="M2454.86,261.3637 C2447.84,291.5337 2430.64,346.1737 2394,375.0137 C2299.26,449.5837 2035.93,506.7637 1793.87,545.5137 " fill="none" id="Operation-backto-zuliefererGetController" style="stroke:#181818;stroke-width:1.0;stroke-dasharray:7.0,7.0;"/><polygon fill="#181818" points="2455.87,256.7937,2450.008,264.708,2454.7823,261.6739,2457.8164,266.4483,2455.87,256.7937" style="stroke:#181818;stroke-width:1.0;"/></g><!--reverse link Info to zuliefererGetController--><g id="link_Info_zuliefererGetController"><path codeLine="76" d="M2347.08,261.4637 C2344.6,291.3837 2335.57,345.2837 2303,375.0137 C2225.6,445.6637 2005.92,500.6337 1793.92,539.1437 " fill="none" id="Info-backto-zuliefererGetController" style="stroke:#181818;stroke-width:1.0;stroke-dasharray:7.0,7.0;"/><polygon fill="#181818" points="2347.43,256.6237,2342.7989,265.3158,2347.0738,261.611,2350.7786,265.8858,2347.43,256.6237" style="stroke:#181818;stroke-width:1.0;"/></g><!--reverse link ApiResponse to zuliefererGetController--><g id="link_ApiResponse_zuliefererGetController"><path codeLine="77" d="M2197.14,258.9237 C2152.31,286.7937 2064.35,339.4337 1985,375.0137 C1855.28,433.1737 1706.12,486.1337 1582.07,526.5837 " fill="none" id="ApiResponse-backto-zuliefererGetController" style="stroke:#181818;stroke-width:1.0;stroke-dasharray:7.0,7.0;"/><polygon fill="#181818" points="2201.37,256.2837,2191.6193,257.6705,2197.1324,258.9375,2195.8654,264.4507,2201.37,256.2837" style="stroke:#181818;stroke-width:1.0;"/></g><!--link zuliefererGetController to UUID--><g id="link_zuliefererGetController_UUID"><path codeLine="79" d="M937.16,686.4437 C901.08,697.8237 865.5,710.6337 832,725.0137 C779.01,747.7537 724.08,787.3537 693.74,810.8837 " fill="none" id="zuliefererGetController-to-UUID" style="stroke:#181818;stroke-width:1.0;stroke-dasharray:7.0,7.0;"/><polygon fill="#181818" points="689.92,813.8637,699.4781,811.4884,693.8645,810.791,694.5619,805.1773,689.92,813.8637" style="stroke:#181818;stroke-width:1.0;"/></g><!--link zuliefererModel to zuliefererReadService--><text fill="#888888" font-family="sans-serif" font-size="10" lengthAdjust="spacing" textLength="104" x="1345.5" y="1098.8047">(c) Ahmad Alabdullah</text><!--SRC=[ZLRFRzem5Bxdhx3OXMgjjMct24LbfLlHr0sLjeTEEpZ98tW4EtCSMbhrVvyT276CGv8BpkDzVj_xdNn5MKO4MQCe9Na-bbBGi90mZJYRqrT0dpml8z6A982uI72U2SgIXGB0CnShzEOXzLGQpn3YaB8O4yQu999ojjVG3sKIn894W0QNTv3BAywau6aAOe18ZfgY5jI_GcdTaYnJBFOeK-H4pOXSFX91IPX2YJ45f-pCT61CAwN0YRX-YI3J_juG5bSUsSAsI6ISvJ1NyIhoAXA6o8dw3eqerA-bzhlNICjIoip8GvdfWv5h9gdSZkw3FR8191Aukjx6NkaKHTgpMnv3EhfsWGj9qoFaRP5A-aZI0XJVqO_pnmhvNjSPvJX_9aa20c- -O6NVAAUAInsBNncmyMmwWGLbLAiS_o-8Gpvb2sw9nXcjecBo-KjMH4Y2Sn2R52GsmbbZRvHmlbFO5qlpYWt1Ha1smNXuc4xALtr0kCX-BsaS0_k3WuxxNdDr0lnQf1GM841OZQYfKiNA3dyDk0CIp_TQen6ATes7Wa2_NLR_185rmKykl_62nOVITjMRK6pHXqdvdA1Greuo1sK5AbEjcggywycW2OQQ0n7RYczpTjHISpPeQKr6Fn-HqKSe0VbrEus7ZNc1QEoNwJb76n2vSjX7SwbduBboixpUT-JgpBVzF6rus1WvI1t5jZpcljKobV7TRz35mkvKYrLWqx975kAiIlaGNlpZ_7SHc0ckmhYUW2JK3a9DvfwNT8Qrn4TFXtENZQUMKB_N5TLMI_pY8a23puEMpl2hJkgy2AkURKlvASnnGtN3Yam1MzPb5yYvBK-3dEloDAHrytNwv5fylNngxkP-TdQxhoUeqOSzCLRxTQC4JPRIFVxxMJI-17eYt0kq5yvOhDtwXuNRhMekulunAzUfGtstPx2nN9tDNd-8A4L0iCxa5grX7QgvxtaBpjMgHyFe38sNQnAZSKh2k4XJilJ-0m00]--></g></svg>