<?xml version="1.0" encoding="us-ascii" standalone="no"?><svg xmlns="http://www.w3.org/2000/svg" xmlns:xlink="http://www.w3.org/1999/xlink" contentStyleType="text/css" height="604.2px" preserveAspectRatio="none" style="width:1579px;height:604px;background:#FFFFFF;" version="1.1" viewBox="0 0 1579 604" width="1579.8px" zoomAndPan="magnify"><defs/><g><!--cluster org--><g id="cluster_org"><path d="M5.1,26.478 L20.1,26.478 A2.25,2.25 0 0 1 21.6,27.978 L25.8,41.2507 L1160.7,41.2507 A1.5,1.5 0 0 1 1162.2,42.7507 L1162.2,282.978 A1.5,1.5 0 0 1 1160.7,284.478 L5.1,284.478 A1.5,1.5 0 0 1 3.6,282.978 L3.6,27.978 A1.5,1.5 0 0 1 5.1,26.478 " fill="none" style="stroke:#000000;stroke-width:0.8999999999999999;"/><line style="stroke:#000000;stroke-width:0.8999999999999999;" x1="3.6" x2="25.8" y1="41.2507" y2="41.2507"/><text fill="#000000" font-family="sans-serif" font-size="8.4" font-weight="bold" lengthAdjust="spacing" textLength="14.4" x="6" y="36.7425">org</text></g><!--cluster springframework--><g id="cluster_springframework"><path d="M19.5,53.478 L91.5,53.478 A2.25,2.25 0 0 1 93,54.978 L97.2,68.2507 L1146.3,68.2507 A1.5,1.5 0 0 1 1147.8,69.7507 L1147.8,268.578 A1.5,1.5 0 0 1 1146.3,270.078 L19.5,270.078 A1.5,1.5 0 0 1 18,268.578 L18,54.978 A1.5,1.5 0 0 1 19.5,53.478 " fill="none" style="stroke:#000000;stroke-width:0.8999999999999999;"/><line style="stroke:#000000;stroke-width:0.8999999999999999;" x1="18" x2="97.2" y1="68.2507" y2="68.2507"/><text fill="#000000" font-family="sans-serif" font-size="8.4" font-weight="bold" lengthAdjust="spacing" textLength="71.4" x="20.4" y="63.7425">springframework</text></g><!--cluster stereotype--><g id="cluster_stereotype"><path d="M33.9,161.478 L80.1,161.478 A2.25,2.25 0 0 1 81.6,162.978 L85.8,176.2507 L96.9,176.2507 A1.5,1.5 0 0 1 98.4,177.7507 L98.4,210.978 A1.5,1.5 0 0 1 96.9,212.478 L33.9,212.478 A1.5,1.5 0 0 1 32.4,210.978 L32.4,162.978 A1.5,1.5 0 0 1 33.9,161.478 " fill="none" style="stroke:#000000;stroke-width:0.8999999999999999;"/><line style="stroke:#000000;stroke-width:0.8999999999999999;" x1="32.4" x2="85.8" y1="176.2507" y2="176.2507"/><text fill="#000000" font-family="sans-serif" font-size="8.4" font-weight="bold" lengthAdjust="spacing" textLength="45.6" x="34.8" y="171.7425">stereotype</text></g><!--cluster graphql--><g id="cluster_graphql"><path d="M729.3,134.478 L762.3,134.478 A2.25,2.25 0 0 1 763.8,135.978 L768,149.2507 L1131.9,149.2507 A1.5,1.5 0 0 1 1133.4,150.7507 L1133.4,225.378 A1.5,1.5 0 0 1 1131.9,226.878 L729.3,226.878 A1.5,1.5 0 0 1 727.8,225.378 L727.8,135.978 A1.5,1.5 0 0 1 729.3,134.478 " fill="none" style="stroke:#000000;stroke-width:0.8999999999999999;"/><line style="stroke:#000000;stroke-width:0.8999999999999999;" x1="727.8" x2="768" y1="149.2507" y2="149.2507"/><text fill="#000000" font-family="sans-serif" font-size="8.4" font-weight="bold" lengthAdjust="spacing" textLength="32.4" x="730.2" y="144.7425">graphql</text></g><!--cluster client--><g id="cluster_client"><path d="M743.7,161.478 L767.7,161.478 A2.25,2.25 0 0 1 769.2,162.978 L773.4,176.2507 L1117.5,176.2507 A1.5,1.5 0 0 1 1119,177.7507 L1119,210.978 A1.5,1.5 0 0 1 1117.5,212.478 L743.7,212.478 A1.5,1.5 0 0 1 742.2,210.978 L742.2,162.978 A1.5,1.5 0 0 1 743.7,161.478 " fill="none" style="stroke:#000000;stroke-width:0.8999999999999999;"/><line style="stroke:#000000;stroke-width:0.8999999999999999;" x1="742.2" x2="773.4" y1="176.2507" y2="176.2507"/><text fill="#000000" font-family="sans-serif" font-size="8.4" font-weight="bold" lengthAdjust="spacing" textLength="23.4" x="744.6" y="171.7425">client</text></g><!--cluster http--><g id="cluster_http"><path d="M616.5,161.478 L633.9,161.478 A2.25,2.25 0 0 1 635.4,162.978 L639.6,176.2507 L711.9,176.2507 A1.5,1.5 0 0 1 713.4,177.7507 L713.4,210.978 A1.5,1.5 0 0 1 711.9,212.478 L616.5,212.478 A1.5,1.5 0 0 1 615,210.978 L615,162.978 A1.5,1.5 0 0 1 616.5,161.478 " fill="none" style="stroke:#000000;stroke-width:0.8999999999999999;"/><line style="stroke:#000000;stroke-width:0.8999999999999999;" x1="615" x2="639.6" y1="176.2507" y2="176.2507"/><text fill="#000000" font-family="sans-serif" font-size="8.4" font-weight="bold" lengthAdjust="spacing" textLength="16.8" x="617.4" y="171.7425">http</text></g><!--cluster transaction--><g id="cluster_transaction"><path d="M483.3,134.478 L531.3,134.478 A2.25,2.25 0 0 1 532.8,135.978 L537,149.2507 L599.1,149.2507 A1.5,1.5 0 0 1 600.6,150.7507 L600.6,225.378 A1.5,1.5 0 0 1 599.1,226.878 L483.3,226.878 A1.5,1.5 0 0 1 481.8,225.378 L481.8,135.978 A1.5,1.5 0 0 1 483.3,134.478 " fill="none" style="stroke:#000000;stroke-width:0.8999999999999999;"/><line style="stroke:#000000;stroke-width:0.8999999999999999;" x1="481.8" x2="537" y1="149.2507" y2="149.2507"/><text fill="#000000" font-family="sans-serif" font-size="8.4" font-weight="bold" lengthAdjust="spacing" textLength="47.4" x="484.2" y="144.7425">transaction</text></g><!--cluster annotation--><g id="cluster_annotation"><path d="M497.7,161.478 L543.3,161.478 A2.25,2.25 0 0 1 544.8,162.978 L549,176.2507 L584.7,176.2507 A1.5,1.5 0 0 1 586.2,177.7507 L586.2,210.978 A1.5,1.5 0 0 1 584.7,212.478 L497.7,212.478 A1.5,1.5 0 0 1 496.2,210.978 L496.2,162.978 A1.5,1.5 0 0 1 497.7,161.478 " fill="none" style="stroke:#000000;stroke-width:0.8999999999999999;"/><line style="stroke:#000000;stroke-width:0.8999999999999999;" x1="496.2" x2="549" y1="176.2507" y2="176.2507"/><text fill="#000000" font-family="sans-serif" font-size="8.4" font-weight="bold" lengthAdjust="spacing" textLength="45" x="498.6" y="171.7425">annotation</text></g><!--cluster web--><g id="cluster_web"><path d="M114.3,80.478 L132.3,80.478 A2.25,2.25 0 0 1 133.8,81.978 L138,95.2507 L465.9,95.2507 A1.5,1.5 0 0 1 467.4,96.7507 L467.4,254.178 A1.5,1.5 0 0 1 465.9,255.678 L114.3,255.678 A1.5,1.5 0 0 1 112.8,254.178 L112.8,81.978 A1.5,1.5 0 0 1 114.3,80.478 " fill="none" style="stroke:#000000;stroke-width:0.8999999999999999;"/><line style="stroke:#000000;stroke-width:0.8999999999999999;" x1="112.8" x2="138" y1="95.2507" y2="95.2507"/><text fill="#000000" font-family="sans-serif" font-size="8.4" font-weight="bold" lengthAdjust="spacing" textLength="17.4" x="115.2" y="90.7425">web</text></g><!--cluster reactive--><g id="cluster_reactive"><path d="M128.7,107.478 L164.1,107.478 A2.25,2.25 0 0 1 165.6,108.978 L169.8,122.2507 L451.5,122.2507 A1.5,1.5 0 0 1 453,123.7507 L453,239.778 A1.5,1.5 0 0 1 451.5,241.278 L128.7,241.278 A1.5,1.5 0 0 1 127.2,239.778 L127.2,108.978 A1.5,1.5 0 0 1 128.7,107.478 " fill="none" style="stroke:#000000;stroke-width:0.8999999999999999;"/><line style="stroke:#000000;stroke-width:0.8999999999999999;" x1="127.2" x2="169.8" y1="122.2507" y2="122.2507"/><text fill="#000000" font-family="sans-serif" font-size="8.4" font-weight="bold" lengthAdjust="spacing" textLength="34.8" x="129.6" y="117.7425">reactive</text></g><!--cluster function--><g id="cluster_function"><path d="M143.1,134.478 L178.5,134.478 A2.25,2.25 0 0 1 180,135.978 L184.2,149.2507 L437.1,149.2507 A1.5,1.5 0 0 1 438.6,150.7507 L438.6,225.378 A1.5,1.5 0 0 1 437.1,226.878 L143.1,226.878 A1.5,1.5 0 0 1 141.6,225.378 L141.6,135.978 A1.5,1.5 0 0 1 143.1,134.478 " fill="none" style="stroke:#000000;stroke-width:0.8999999999999999;"/><line style="stroke:#000000;stroke-width:0.8999999999999999;" x1="141.6" x2="184.2" y1="149.2507" y2="149.2507"/><text fill="#000000" font-family="sans-serif" font-size="8.4" font-weight="bold" lengthAdjust="spacing" textLength="34.8" x="144" y="144.7425">function</text></g><!--cluster client--><g id="cluster_client"><path d="M157.5,161.478 L181.5,161.478 A2.25,2.25 0 0 1 183,162.978 L187.2,176.2507 L422.7,176.2507 A1.5,1.5 0 0 1 424.2,177.7507 L424.2,210.978 A1.5,1.5 0 0 1 422.7,212.478 L157.5,212.478 A1.5,1.5 0 0 1 156,210.978 L156,162.978 A1.5,1.5 0 0 1 157.5,161.478 " fill="none" style="stroke:#000000;stroke-width:0.8999999999999999;"/><line style="stroke:#000000;stroke-width:0.8999999999999999;" x1="156" x2="187.2" y1="176.2507" y2="176.2507"/><text fill="#000000" font-family="sans-serif" font-size="8.4" font-weight="bold" lengthAdjust="spacing" textLength="23.4" x="158.4" y="171.7425">client</text></g><!--cluster jakarta--><g id="cluster_jakarta"><path d="M1453.5,326.478 L1482.3,326.478 A2.25,2.25 0 0 1 1483.8,327.978 L1488,341.2507 L1574.1,341.2507 A1.5,1.5 0 0 1 1575.6,342.7507 L1575.6,458.778 A1.5,1.5 0 0 1 1574.1,460.278 L1453.5,460.278 A1.5,1.5 0 0 1 1452,458.778 L1452,327.978 A1.5,1.5 0 0 1 1453.5,326.478 " fill="none" style="stroke:#000000;stroke-width:0.8999999999999999;"/><line style="stroke:#000000;stroke-width:0.8999999999999999;" x1="1452" x2="1488" y1="341.2507" y2="341.2507"/><text fill="#000000" font-family="sans-serif" font-size="8.4" font-weight="bold" lengthAdjust="spacing" textLength="28.2" x="1454.4" y="336.7425">jakarta</text></g><!--cluster validation--><g id="cluster_validation"><path d="M1467.9,353.478 L1509.9,353.478 A2.25,2.25 0 0 1 1511.4,354.978 L1515.6,368.2507 L1559.7,368.2507 A1.5,1.5 0 0 1 1561.2,369.7507 L1561.2,444.378 A1.5,1.5 0 0 1 1559.7,445.878 L1467.9,445.878 A1.5,1.5 0 0 1 1466.4,444.378 L1466.4,354.978 A1.5,1.5 0 0 1 1467.9,353.478 " fill="none" style="stroke:#000000;stroke-width:0.8999999999999999;"/><line style="stroke:#000000;stroke-width:0.8999999999999999;" x1="1466.4" x2="1515.6" y1="368.2507" y2="368.2507"/><text fill="#000000" font-family="sans-serif" font-size="8.4" font-weight="bold" lengthAdjust="spacing" textLength="41.4" x="1468.8" y="363.7425">validation</text></g><!--cluster constraints--><g id="cluster_constraints"><path d="M1482.3,380.478 L1530.3,380.478 A2.25,2.25 0 0 1 1531.8,381.978 L1536,395.2507 L1545.3,395.2507 A1.5,1.5 0 0 1 1546.8,396.7507 L1546.8,429.978 A1.5,1.5 0 0 1 1545.3,431.478 L1482.3,431.478 A1.5,1.5 0 0 1 1480.8,429.978 L1480.8,381.978 A1.5,1.5 0 0 1 1482.3,380.478 " fill="none" style="stroke:#000000;stroke-width:0.8999999999999999;"/><line style="stroke:#000000;stroke-width:0.8999999999999999;" x1="1480.8" x2="1536" y1="395.2507" y2="395.2507"/><text fill="#000000" font-family="sans-serif" font-size="8.4" font-weight="bold" lengthAdjust="spacing" textLength="47.4" x="1483.2" y="390.7425">constraints</text></g><!--cluster lombock--><g id="cluster_lombock"><path d="M1138.5,326.478 L1174.5,326.478 A2.25,2.25 0 0 1 1176,327.978 L1180.2,341.2507 L1436.1,341.2507 A1.5,1.5 0 0 1 1437.6,342.7507 L1437.6,458.778 A1.5,1.5 0 0 1 1436.1,460.278 L1138.5,460.278 A1.5,1.5 0 0 1 1137,458.778 L1137,327.978 A1.5,1.5 0 0 1 1138.5,326.478 " fill="none" style="stroke:#000000;stroke-width:0.8999999999999999;"/><line style="stroke:#000000;stroke-width:0.8999999999999999;" x1="1137" x2="1180.2" y1="341.2507" y2="341.2507"/><text fill="#000000" font-family="sans-serif" font-size="8.4" font-weight="bold" lengthAdjust="spacing" textLength="35.4" x="1139.4" y="336.7425">lombock</text></g><!--cluster extern--><g id="cluster_extern"><path d="M1341.9,353.478 L1370.1,353.478 A2.25,2.25 0 0 1 1371.6,354.978 L1375.8,368.2507 L1421.7,368.2507 A1.5,1.5 0 0 1 1423.2,369.7507 L1423.2,444.378 A1.5,1.5 0 0 1 1421.7,445.878 L1341.9,445.878 A1.5,1.5 0 0 1 1340.4,444.378 L1340.4,354.978 A1.5,1.5 0 0 1 1341.9,353.478 " fill="none" style="stroke:#000000;stroke-width:0.8999999999999999;"/><line style="stroke:#000000;stroke-width:0.8999999999999999;" x1="1340.4" x2="1375.8" y1="368.2507" y2="368.2507"/><text fill="#000000" font-family="sans-serif" font-size="8.4" font-weight="bold" lengthAdjust="spacing" textLength="27.6" x="1342.8" y="363.7425">extern</text></g><!--cluster slf4j--><g id="cluster_slf4j"><path d="M1356.3,380.478 L1374.3,380.478 A2.25,2.25 0 0 1 1375.8,381.978 L1380,395.2507 L1407.3,395.2507 A1.5,1.5 0 0 1 1408.8,396.7507 L1408.8,429.978 A1.5,1.5 0 0 1 1407.3,431.478 L1356.3,431.478 A1.5,1.5 0 0 1 1354.8,429.978 L1354.8,381.978 A1.5,1.5 0 0 1 1356.3,380.478 " fill="none" style="stroke:#000000;stroke-width:0.8999999999999999;"/><line style="stroke:#000000;stroke-width:0.8999999999999999;" x1="1354.8" x2="1380" y1="395.2507" y2="395.2507"/><text fill="#000000" font-family="sans-serif" font-size="8.4" font-weight="bold" lengthAdjust="spacing" textLength="17.4" x="1357.2" y="390.7425">slf4j</text></g><!--cluster java--><g id="cluster_java"><path d="M1178.1,134.478 L1196.1,134.478 A2.25,2.25 0 0 1 1197.6,135.978 L1201.8,149.2507 L1392.3,149.2507 A1.5,1.5 0 0 1 1393.8,150.7507 L1393.8,225.378 A1.5,1.5 0 0 1 1392.3,226.878 L1178.1,226.878 A1.5,1.5 0 0 1 1176.6,225.378 L1176.6,135.978 A1.5,1.5 0 0 1 1178.1,134.478 " fill="none" style="stroke:#000000;stroke-width:0.8999999999999999;"/><line style="stroke:#000000;stroke-width:0.8999999999999999;" x1="1176.6" x2="1201.8" y1="149.2507" y2="149.2507"/><text fill="#000000" font-family="sans-serif" font-size="8.4" font-weight="bold" lengthAdjust="spacing" textLength="17.4" x="1179" y="144.7425">java</text></g><!--cluster util--><g id="cluster_util"><path d="M1192.5,161.478 L1206.3,161.478 A2.25,2.25 0 0 1 1207.8,162.978 L1212,176.2507 L1377.9,176.2507 A1.5,1.5 0 0 1 1379.4,177.7507 L1379.4,210.978 A1.5,1.5 0 0 1 1377.9,212.478 L1192.5,212.478 A1.5,1.5 0 0 1 1191,210.978 L1191,162.978 A1.5,1.5 0 0 1 1192.5,161.478 " fill="none" style="stroke:#000000;stroke-width:0.8999999999999999;"/><line style="stroke:#000000;stroke-width:0.8999999999999999;" x1="1191" x2="1212" y1="176.2507" y2="176.2507"/><text fill="#000000" font-family="sans-serif" font-size="8.4" font-weight="bold" lengthAdjust="spacing" textLength="13.2" x="1193.4" y="171.7425">util</text></g><!--cluster zspace--><g id="cluster_zspace"><path d="M610.5,304.278 L640.5,304.278 A2.25,2.25 0 0 1 642,305.778 L646.2,319.0507 L1121.1,319.0507 A1.5,1.5 0 0 1 1122.6,320.5507 L1122.6,586.578 A1.5,1.5 0 0 1 1121.1,588.078 L610.5,588.078 A1.5,1.5 0 0 1 609,586.578 L609,305.778 A1.5,1.5 0 0 1 610.5,304.278 " fill="none" style="stroke:#000000;stroke-width:0.8999999999999999;"/><line style="stroke:#000000;stroke-width:0.8999999999999999;" x1="609" x2="646.2" y1="319.0507" y2="319.0507"/><text fill="#000000" font-family="sans-serif" font-size="8.4" font-weight="bold" lengthAdjust="spacing" textLength="29.4" x="611.4" y="314.5425">zspace</text></g><!--cluster zulieferer--><g id="cluster_zulieferer"><path d="M624.9,331.278 L666.3,331.278 A2.25,2.25 0 0 1 667.8,332.778 L672,346.0507 L1106.7,346.0507 A1.5,1.5 0 0 1 1108.2,347.5507 L1108.2,572.178 A1.5,1.5 0 0 1 1106.7,573.678 L624.9,573.678 A1.5,1.5 0 0 1 623.4,572.178 L623.4,332.778 A1.5,1.5 0 0 1 624.9,331.278 " fill="none" style="stroke:#000000;stroke-width:0.8999999999999999;"/><line style="stroke:#000000;stroke-width:0.8999999999999999;" x1="623.4" x2="672" y1="346.0507" y2="346.0507"/><text fill="#000000" font-family="sans-serif" font-size="8.4" font-weight="bold" lengthAdjust="spacing" textLength="40.8" x="625.8" y="341.5425">zulieferer</text></g><!--cluster entity--><g id="cluster_entity"><path d="M1020.9,376.578 L1044.9,376.578 A2.25,2.25 0 0 1 1046.4,378.078 L1050.6,391.3507 L1092.3,391.3507 A1.5,1.5 0 0 1 1093.8,392.8507 L1093.8,433.878 A1.5,1.5 0 0 1 1092.3,435.378 L1020.9,435.378 A1.5,1.5 0 0 1 1019.4,433.878 L1019.4,378.078 A1.5,1.5 0 0 1 1020.9,376.578 " fill="none" style="stroke:#000000;stroke-width:0.8999999999999999;"/><line style="stroke:#000000;stroke-width:0.8999999999999999;" x1="1019.4" x2="1050.6" y1="391.3507" y2="391.3507"/><text fill="#000000" font-family="sans-serif" font-size="8.4" font-weight="bold" lengthAdjust="spacing" textLength="23.4" x="1021.8" y="386.8425">entity</text></g><!--cluster repository--><g id="cluster_repository"><path d="M657.3,490.878 L701.1,490.878 A2.25,2.25 0 0 1 702.6,492.378 L706.8,505.6507 L1073.7,505.6507 A1.5,1.5 0 0 1 1075.2,507.1507 L1075.2,557.778 A1.5,1.5 0 0 1 1073.7,559.278 L657.3,559.278 A1.5,1.5 0 0 1 655.8,557.778 L655.8,492.378 A1.5,1.5 0 0 1 657.3,490.878 " fill="none" style="stroke:#000000;stroke-width:0.8999999999999999;"/><line style="stroke:#000000;stroke-width:0.8999999999999999;" x1="655.8" x2="706.8" y1="505.6507" y2="505.6507"/><text fill="#000000" font-family="sans-serif" font-size="8.4" font-weight="bold" lengthAdjust="spacing" textLength="43.2" x="658.2" y="501.1425">repository</text></g><!--cluster service--><g id="cluster_service"><path d="M639.3,358.278 L671.7,358.278 A2.25,2.25 0 0 1 673.2,359.778 L677.4,373.0507 L1003.5,373.0507 A1.5,1.5 0 0 1 1005,374.5507 L1005,452.178 A1.5,1.5 0 0 1 1003.5,453.678 L639.3,453.678 A1.5,1.5 0 0 1 637.8,452.178 L637.8,359.778 A1.5,1.5 0 0 1 639.3,358.278 " fill="#DDDDDD" style="stroke:#000000;stroke-width:0.8999999999999999;"/><line style="stroke:#000000;stroke-width:0.8999999999999999;" x1="637.8" x2="677.4" y1="373.0507" y2="373.0507"/><text fill="#000000" font-family="sans-serif" font-size="8.4" font-weight="bold" lengthAdjust="spacing" textLength="31.8" x="640.2" y="368.5425">service</text></g><!--class Service--><g id="elem_Service"><rect codeLine="5" fill="#F1F1F1" height="19.2" id="Service" rx="1.5" ry="1.5" style="stroke:#181818;stroke-width:0.3;" width="46.8" x="42" y="183.678"/><ellipse cx="51" cy="193.278" fill="#B4A7E5" rx="6.6" ry="6.6" style="stroke:#181818;stroke-width:0.6;"/><path d="M51.5719,191.2624 L51.5719,195.2561 L52.6031,195.2561 Q52.9688,195.2561 53.1281,195.3968 Q53.2875,195.5374 53.2875,195.7718 Q53.2875,195.9968 53.1281,196.1374 Q52.9688,196.278 52.6031,196.278 L49.5188,196.278 Q49.1531,196.278 48.9938,196.1374 Q48.8344,195.9968 48.8344,195.7624 Q48.8344,195.5374 48.9938,195.3968 Q49.1531,195.2561 49.5188,195.2561 L50.55,195.2561 L50.55,191.2624 L49.5188,191.2624 Q49.1531,191.2624 48.9938,191.1218 Q48.8344,190.9811 48.8344,190.7468 Q48.8344,190.5218 48.9938,190.3811 Q49.1531,190.2405 49.5188,190.2405 L52.6031,190.2405 Q52.9688,190.2405 53.1281,190.3811 Q53.2875,190.5218 53.2875,190.7468 Q53.2875,190.9811 53.1281,191.1218 Q52.9688,191.2624 52.6031,191.2624 L51.5719,191.2624 Z " fill="#000000"/><text fill="#000000" font-family="sans-serif" font-size="8.4" font-style="italic" lengthAdjust="spacing" textLength="27.6" x="59.4" y="196.7561">Service</text></g><!--class FieldAccessException--><g id="elem_FieldAccessException"><rect codeLine="10" fill="#F1F1F1" height="19.2" id="FieldAccessException" rx="1.5" ry="1.5" style="stroke:#181818;stroke-width:0.3;" width="101.4" x="898.5" y="183.678"/><ellipse cx="907.5" cy="193.278" fill="#ADD1B2" rx="6.6" ry="6.6" style="stroke:#181818;stroke-width:0.6;"/><path d="M909.1594,190.803 Q909.2531,190.6718 909.3656,190.6061 Q909.4781,190.5405 909.6094,190.5405 Q909.8344,190.5405 909.975,190.6999 Q910.1156,190.8499 910.1156,191.2155 L910.1156,192.0874 Q910.1156,192.453 909.975,192.6124 Q909.8344,192.7718 909.6094,192.7718 Q909.4031,192.7718 909.2813,192.6499 Q909.1594,192.5374 909.0938,192.228 Q909.0656,192.0124 908.9531,191.8999 Q908.7563,191.6749 908.3906,191.5436 Q908.025,191.4124 907.65,191.4124 Q907.1906,191.4124 906.8063,191.6093 Q906.4313,191.8061 906.1313,192.2561 Q905.8406,192.7061 905.8406,193.3249 L905.8406,193.9811 Q905.8406,194.7218 906.375,195.2186 Q906.9094,195.7061 907.8656,195.7061 Q908.4281,195.7061 908.8219,195.5561 Q909.0563,195.4624 909.3094,195.1999 Q909.4688,195.0405 909.5531,194.9936 Q909.6469,194.9467 909.7688,194.9467 Q909.9656,194.9467 910.1156,195.1061 Q910.275,195.2561 910.275,195.4624 Q910.275,195.6686 910.0688,195.9124 Q909.7688,196.2592 909.2906,196.4561 Q908.6438,196.728 907.8656,196.728 Q906.9563,196.728 906.2344,196.353 Q905.6438,196.053 905.2312,195.4155 Q904.8188,194.7686 904.8188,193.9999 L904.8188,193.3061 Q904.8188,192.5092 905.1844,191.8249 Q905.5594,191.1311 906.2156,190.7655 Q906.8719,190.3905 907.6125,190.3905 Q908.0531,190.3905 908.4375,190.4936 Q908.8313,190.5874 909.1594,190.803 Z " fill="#000000"/><text fill="#000000" font-family="sans-serif" font-size="8.4" lengthAdjust="spacing" textLength="82.2" x="915.9" y="196.7561">FieldAccessException</text></g><!--class GraphQlTransportException--><g id="elem_GraphQlTransportException"><rect codeLine="11" fill="#F1F1F1" height="19.2" id="GraphQlTransportException" rx="1.5" ry="1.5" style="stroke:#181818;stroke-width:0.3;" width="125.4" x="752.1" y="183.678"/><ellipse cx="761.1" cy="193.278" fill="#ADD1B2" rx="6.6" ry="6.6" style="stroke:#181818;stroke-width:0.6;"/><path d="M762.7594,190.803 Q762.8531,190.6718 762.9656,190.6061 Q763.0781,190.5405 763.2094,190.5405 Q763.4344,190.5405 763.575,190.6999 Q763.7156,190.8499 763.7156,191.2155 L763.7156,192.0874 Q763.7156,192.453 763.575,192.6124 Q763.4344,192.7718 763.2094,192.7718 Q763.0031,192.7718 762.8813,192.6499 Q762.7594,192.5374 762.6938,192.228 Q762.6656,192.0124 762.5531,191.8999 Q762.3562,191.6749 761.9906,191.5436 Q761.625,191.4124 761.25,191.4124 Q760.7906,191.4124 760.4063,191.6093 Q760.0313,191.8061 759.7312,192.2561 Q759.4406,192.7061 759.4406,193.3249 L759.4406,193.9811 Q759.4406,194.7218 759.975,195.2186 Q760.5094,195.7061 761.4656,195.7061 Q762.0281,195.7061 762.4219,195.5561 Q762.6563,195.4624 762.9094,195.1999 Q763.0688,195.0405 763.1531,194.9936 Q763.2469,194.9467 763.3688,194.9467 Q763.5656,194.9467 763.7156,195.1061 Q763.875,195.2561 763.875,195.4624 Q763.875,195.6686 763.6687,195.9124 Q763.3688,196.2592 762.8906,196.4561 Q762.2438,196.728 761.4656,196.728 Q760.5563,196.728 759.8344,196.353 Q759.2438,196.053 758.8313,195.4155 Q758.4187,194.7686 758.4187,193.9999 L758.4187,193.3061 Q758.4187,192.5092 758.7844,191.8249 Q759.1594,191.1311 759.8156,190.7655 Q760.4719,190.3905 761.2125,190.3905 Q761.6531,190.3905 762.0375,190.4936 Q762.4313,190.5874 762.7594,190.803 Z " fill="#000000"/><text fill="#000000" font-family="sans-serif" font-size="8.4" lengthAdjust="spacing" textLength="106.2" x="769.5" y="196.7561">GraphQlTransportException</text></g><!--class HttpGraphQlClient--><g id="elem_HttpGraphQlClient"><rect codeLine="12" fill="#F1F1F1" height="19.2" id="HttpGraphQlClient" rx="1.5" ry="1.5" style="stroke:#181818;stroke-width:0.3;" width="88.2" x="1020.9" y="183.678"/><ellipse cx="1029.9" cy="193.278" fill="#ADD1B2" rx="6.6" ry="6.6" style="stroke:#181818;stroke-width:0.6;"/><path d="M1031.5594,190.803 Q1031.6531,190.6718 1031.7656,190.6061 Q1031.8781,190.5405 1032.0094,190.5405 Q1032.2344,190.5405 1032.375,190.6999 Q1032.5156,190.8499 1032.5156,191.2155 L1032.5156,192.0874 Q1032.5156,192.453 1032.375,192.6124 Q1032.2344,192.7718 1032.0094,192.7718 Q1031.8031,192.7718 1031.6812,192.6499 Q1031.5594,192.5374 1031.4937,192.228 Q1031.4656,192.0124 1031.3531,191.8999 Q1031.1563,191.6749 1030.7906,191.5436 Q1030.425,191.4124 1030.05,191.4124 Q1029.5906,191.4124 1029.2063,191.6093 Q1028.8313,191.8061 1028.5313,192.2561 Q1028.2406,192.7061 1028.2406,193.3249 L1028.2406,193.9811 Q1028.2406,194.7218 1028.775,195.2186 Q1029.3094,195.7061 1030.2656,195.7061 Q1030.8281,195.7061 1031.2219,195.5561 Q1031.4563,195.4624 1031.7094,195.1999 Q1031.8687,195.0405 1031.9531,194.9936 Q1032.0469,194.9467 1032.1688,194.9467 Q1032.3656,194.9467 1032.5156,195.1061 Q1032.675,195.2561 1032.675,195.4624 Q1032.675,195.6686 1032.4688,195.9124 Q1032.1688,196.2592 1031.6906,196.4561 Q1031.0438,196.728 1030.2656,196.728 Q1029.3563,196.728 1028.6344,196.353 Q1028.0438,196.053 1027.6313,195.4155 Q1027.2188,194.7686 1027.2188,193.9999 L1027.2188,193.3061 Q1027.2188,192.5092 1027.5844,191.8249 Q1027.9594,191.1311 1028.6156,190.7655 Q1029.2719,190.3905 1030.0125,190.3905 Q1030.4531,190.3905 1030.8375,190.4936 Q1031.2313,190.5874 1031.5594,190.803 Z " fill="#000000"/><text fill="#000000" font-family="sans-serif" font-size="8.4" lengthAdjust="spacing" textLength="69" x="1038.3" y="196.7561">HttpGraphQlClient</text></g><!--class ResponseEntity--><g id="elem_ResponseEntity"><rect codeLine="15" fill="#F1F1F1" height="19.2" id="ResponseEntity" rx="1.5" ry="1.5" style="stroke:#181818;stroke-width:0.3;" width="78.6" x="624.9" y="183.678"/><ellipse cx="633.9" cy="193.278" fill="#ADD1B2" rx="6.6" ry="6.6" style="stroke:#181818;stroke-width:0.6;"/><path d="M635.5594,190.803 Q635.6531,190.6718 635.7656,190.6061 Q635.8781,190.5405 636.0094,190.5405 Q636.2344,190.5405 636.375,190.6999 Q636.5156,190.8499 636.5156,191.2155 L636.5156,192.0874 Q636.5156,192.453 636.375,192.6124 Q636.2344,192.7718 636.0094,192.7718 Q635.8031,192.7718 635.6813,192.6499 Q635.5594,192.5374 635.4938,192.228 Q635.4656,192.0124 635.3531,191.8999 Q635.1563,191.6749 634.7906,191.5436 Q634.425,191.4124 634.05,191.4124 Q633.5906,191.4124 633.2063,191.6093 Q632.8313,191.8061 632.5313,192.2561 Q632.2406,192.7061 632.2406,193.3249 L632.2406,193.9811 Q632.2406,194.7218 632.775,195.2186 Q633.3094,195.7061 634.2656,195.7061 Q634.8281,195.7061 635.2219,195.5561 Q635.4563,195.4624 635.7094,195.1999 Q635.8688,195.0405 635.9531,194.9936 Q636.0469,194.9467 636.1687,194.9467 Q636.3656,194.9467 636.5156,195.1061 Q636.675,195.2561 636.675,195.4624 Q636.675,195.6686 636.4688,195.9124 Q636.1687,196.2592 635.6906,196.4561 Q635.0437,196.728 634.2656,196.728 Q633.3562,196.728 632.6344,196.353 Q632.0437,196.053 631.6313,195.4155 Q631.2188,194.7686 631.2188,193.9999 L631.2188,193.3061 Q631.2188,192.5092 631.5844,191.8249 Q631.9594,191.1311 632.6156,190.7655 Q633.2719,190.3905 634.0125,190.3905 Q634.4531,190.3905 634.8375,190.4936 Q635.2312,190.5874 635.5594,190.803 Z " fill="#000000"/><text fill="#000000" font-family="sans-serif" font-size="8.4" lengthAdjust="spacing" textLength="59.4" x="642.3" y="196.7561">ResponseEntity</text></g><!--class Transactional--><g id="elem_Transactional"><rect codeLine="18" fill="#F1F1F1" height="19.2" id="Transactional" rx="1.5" ry="1.5" style="stroke:#181818;stroke-width:0.3;" width="70.8" x="505.8" y="183.678"/><ellipse cx="514.8" cy="193.278" fill="#B4A7E5" rx="6.6" ry="6.6" style="stroke:#181818;stroke-width:0.6;"/><path d="M515.3719,191.2624 L515.3719,195.2561 L516.4031,195.2561 Q516.7688,195.2561 516.9281,195.3968 Q517.0875,195.5374 517.0875,195.7718 Q517.0875,195.9968 516.9281,196.1374 Q516.7688,196.278 516.4031,196.278 L513.3188,196.278 Q512.9531,196.278 512.7937,196.1374 Q512.6344,195.9968 512.6344,195.7624 Q512.6344,195.5374 512.7937,195.3968 Q512.9531,195.2561 513.3188,195.2561 L514.35,195.2561 L514.35,191.2624 L513.3188,191.2624 Q512.9531,191.2624 512.7937,191.1218 Q512.6344,190.9811 512.6344,190.7468 Q512.6344,190.5218 512.7937,190.3811 Q512.9531,190.2405 513.3188,190.2405 L516.4031,190.2405 Q516.7688,190.2405 516.9281,190.3811 Q517.0875,190.5218 517.0875,190.7468 Q517.0875,190.9811 516.9281,191.1218 Q516.7688,191.2624 516.4031,191.2624 L515.3719,191.2624 Z " fill="#000000"/><text fill="#000000" font-family="sans-serif" font-size="8.4" font-style="italic" lengthAdjust="spacing" textLength="51.6" x="523.2" y="196.7561">Transactional</text></g><!--class WebClientException--><g id="elem_WebClientException"><rect codeLine="21" fill="#F1F1F1" height="19.2" id="WebClientException" rx="1.5" ry="1.5" style="stroke:#181818;stroke-width:0.3;" width="94.8" x="165.6" y="183.678"/><ellipse cx="174.6" cy="193.278" fill="#ADD1B2" rx="6.6" ry="6.6" style="stroke:#181818;stroke-width:0.6;"/><path d="M176.2594,190.803 Q176.3531,190.6718 176.4656,190.6061 Q176.5781,190.5405 176.7094,190.5405 Q176.9344,190.5405 177.075,190.6999 Q177.2156,190.8499 177.2156,191.2155 L177.2156,192.0874 Q177.2156,192.453 177.075,192.6124 Q176.9344,192.7718 176.7094,192.7718 Q176.5031,192.7718 176.3813,192.6499 Q176.2594,192.5374 176.1938,192.228 Q176.1656,192.0124 176.0531,191.8999 Q175.8563,191.6749 175.4906,191.5436 Q175.125,191.4124 174.75,191.4124 Q174.2906,191.4124 173.9063,191.6093 Q173.5313,191.8061 173.2313,192.2561 Q172.9406,192.7061 172.9406,193.3249 L172.9406,193.9811 Q172.9406,194.7218 173.475,195.2186 Q174.0094,195.7061 174.9656,195.7061 Q175.5281,195.7061 175.9219,195.5561 Q176.1563,195.4624 176.4094,195.1999 Q176.5688,195.0405 176.6531,194.9936 Q176.7469,194.9467 176.8688,194.9467 Q177.0656,194.9467 177.2156,195.1061 Q177.375,195.2561 177.375,195.4624 Q177.375,195.6686 177.1688,195.9124 Q176.8688,196.2592 176.3906,196.4561 Q175.7438,196.728 174.9656,196.728 Q174.0563,196.728 173.3344,196.353 Q172.7438,196.053 172.3312,195.4155 Q171.9188,194.7686 171.9188,193.9999 L171.9188,193.3061 Q171.9188,192.5092 172.2844,191.8249 Q172.6594,191.1311 173.3156,190.7655 Q173.9719,190.3905 174.7125,190.3905 Q175.1531,190.3905 175.5375,190.4936 Q175.9313,190.5874 176.2594,190.803 Z " fill="#000000"/><text fill="#000000" font-family="sans-serif" font-size="8.4" lengthAdjust="spacing" textLength="75.6" x="183" y="196.7561">WebClientException</text></g><!--class WebClientResponseException--><g id="elem_WebClientResponseException"><rect codeLine="22" fill="#F1F1F1" height="19.2" id="WebClientResponseException" rx="1.5" ry="1.5" style="stroke:#181818;stroke-width:0.3;" width="133.2" x="281.4" y="183.678"/><ellipse cx="290.4" cy="193.278" fill="#ADD1B2" rx="6.6" ry="6.6" style="stroke:#181818;stroke-width:0.6;"/><path d="M292.0594,190.803 Q292.1531,190.6718 292.2656,190.6061 Q292.3781,190.5405 292.5094,190.5405 Q292.7344,190.5405 292.875,190.6999 Q293.0156,190.8499 293.0156,191.2155 L293.0156,192.0874 Q293.0156,192.453 292.875,192.6124 Q292.7344,192.7718 292.5094,192.7718 Q292.3031,192.7718 292.1813,192.6499 Q292.0594,192.5374 291.9938,192.228 Q291.9656,192.0124 291.8531,191.8999 Q291.6563,191.6749 291.2906,191.5436 Q290.925,191.4124 290.55,191.4124 Q290.0906,191.4124 289.7063,191.6093 Q289.3313,191.8061 289.0313,192.2561 Q288.7406,192.7061 288.7406,193.3249 L288.7406,193.9811 Q288.7406,194.7218 289.275,195.2186 Q289.8094,195.7061 290.7656,195.7061 Q291.3281,195.7061 291.7219,195.5561 Q291.9563,195.4624 292.2094,195.1999 Q292.3688,195.0405 292.4531,194.9936 Q292.5469,194.9467 292.6688,194.9467 Q292.8656,194.9467 293.0156,195.1061 Q293.175,195.2561 293.175,195.4624 Q293.175,195.6686 292.9688,195.9124 Q292.6688,196.2592 292.1906,196.4561 Q291.5438,196.728 290.7656,196.728 Q289.8563,196.728 289.1344,196.353 Q288.5438,196.053 288.1312,195.4155 Q287.7188,194.7686 287.7188,193.9999 L287.7188,193.3061 Q287.7188,192.5092 288.0844,191.8249 Q288.4594,191.1311 289.1156,190.7655 Q289.7719,190.3905 290.5125,190.3905 Q290.9531,190.3905 291.3375,190.4936 Q291.7313,190.5874 292.0594,190.803 Z " fill="#000000"/><text fill="#000000" font-family="sans-serif" font-size="8.4" lengthAdjust="spacing" textLength="114" x="298.8" y="196.7561">WebClientResponseException</text></g><!--class NotNull--><g id="elem_NotNull"><rect codeLine="27" fill="#F1F1F1" height="19.2" id="NotNull" rx="1.5" ry="1.5" style="stroke:#181818;stroke-width:0.3;" width="46.8" x="1490.4" y="402.678"/><ellipse cx="1499.4" cy="412.278" fill="#B4A7E5" rx="6.6" ry="6.6" style="stroke:#181818;stroke-width:0.6;"/><path d="M1499.9719,410.2624 L1499.9719,414.2561 L1501.0031,414.2561 Q1501.3687,414.2561 1501.5281,414.3968 Q1501.6875,414.5374 1501.6875,414.7718 Q1501.6875,414.9967 1501.5281,415.1374 Q1501.3687,415.278 1501.0031,415.278 L1497.9188,415.278 Q1497.5531,415.278 1497.3938,415.1374 Q1497.2344,414.9967 1497.2344,414.7624 Q1497.2344,414.5374 1497.3938,414.3968 Q1497.5531,414.2561 1497.9188,414.2561 L1498.95,414.2561 L1498.95,410.2624 L1497.9188,410.2624 Q1497.5531,410.2624 1497.3938,410.1217 Q1497.2344,409.9811 1497.2344,409.7467 Q1497.2344,409.5218 1497.3938,409.3811 Q1497.5531,409.2405 1497.9188,409.2405 L1501.0031,409.2405 Q1501.3687,409.2405 1501.5281,409.3811 Q1501.6875,409.5218 1501.6875,409.7467 Q1501.6875,409.9811 1501.5281,410.1217 Q1501.3687,410.2624 1501.0031,410.2624 L1499.9719,410.2624 Z " fill="#000000"/><text fill="#000000" font-family="sans-serif" font-size="8.4" font-style="italic" lengthAdjust="spacing" textLength="27.6" x="1507.8" y="415.7561">NotNull</text></g><!--class NotNull--><g id="elem_NotNull"><rect codeLine="31" fill="#F1F1F1" height="19.2" id="NotNull" rx="1.5" ry="1.5" style="stroke:#181818;stroke-width:0.3;" width="46.8" x="1146.6" y="402.678"/><ellipse cx="1155.6" cy="412.278" fill="#B4A7E5" rx="6.6" ry="6.6" style="stroke:#181818;stroke-width:0.6;"/><path d="M1156.1719,410.2624 L1156.1719,414.2561 L1157.2031,414.2561 Q1157.5688,414.2561 1157.7281,414.3968 Q1157.8875,414.5374 1157.8875,414.7718 Q1157.8875,414.9967 1157.7281,415.1374 Q1157.5688,415.278 1157.2031,415.278 L1154.1187,415.278 Q1153.7531,415.278 1153.5938,415.1374 Q1153.4344,414.9967 1153.4344,414.7624 Q1153.4344,414.5374 1153.5938,414.3968 Q1153.7531,414.2561 1154.1187,414.2561 L1155.15,414.2561 L1155.15,410.2624 L1154.1187,410.2624 Q1153.7531,410.2624 1153.5938,410.1217 Q1153.4344,409.9811 1153.4344,409.7467 Q1153.4344,409.5218 1153.5938,409.3811 Q1153.7531,409.2405 1154.1187,409.2405 L1157.2031,409.2405 Q1157.5688,409.2405 1157.7281,409.3811 Q1157.8875,409.5218 1157.8875,409.7467 Q1157.8875,409.9811 1157.7281,410.1217 Q1157.5688,410.2624 1157.2031,410.2624 L1156.1719,410.2624 Z " fill="#000000"/><text fill="#000000" font-family="sans-serif" font-size="8.4" font-style="italic" lengthAdjust="spacing" textLength="27.6" x="1164" y="415.7561">NotNull</text></g><!--class RequiredArgsConstructor--><g id="elem_RequiredArgsConstructor"><rect codeLine="32" fill="#F1F1F1" height="19.2" id="RequiredArgsConstructor" rx="1.5" ry="1.5" style="stroke:#181818;stroke-width:0.3;" width="115.8" x="1214.7" y="402.678"/><ellipse cx="1223.7" cy="412.278" fill="#B4A7E5" rx="6.6" ry="6.6" style="stroke:#181818;stroke-width:0.6;"/><path d="M1224.2719,410.2624 L1224.2719,414.2561 L1225.3031,414.2561 Q1225.6688,414.2561 1225.8281,414.3968 Q1225.9875,414.5374 1225.9875,414.7718 Q1225.9875,414.9967 1225.8281,415.1374 Q1225.6688,415.278 1225.3031,415.278 L1222.2188,415.278 Q1221.8531,415.278 1221.6938,415.1374 Q1221.5344,414.9967 1221.5344,414.7624 Q1221.5344,414.5374 1221.6938,414.3968 Q1221.8531,414.2561 1222.2188,414.2561 L1223.25,414.2561 L1223.25,410.2624 L1222.2188,410.2624 Q1221.8531,410.2624 1221.6938,410.1217 Q1221.5344,409.9811 1221.5344,409.7467 Q1221.5344,409.5218 1221.6938,409.3811 Q1221.8531,409.2405 1222.2188,409.2405 L1225.3031,409.2405 Q1225.6688,409.2405 1225.8281,409.3811 Q1225.9875,409.5218 1225.9875,409.7467 Q1225.9875,409.9811 1225.8281,410.1217 Q1225.6688,410.2624 1225.3031,410.2624 L1224.2719,410.2624 Z " fill="#000000"/><text fill="#000000" font-family="sans-serif" font-size="8.4" font-style="italic" lengthAdjust="spacing" textLength="96.6" x="1232.1" y="415.7561">RequiredArgsConstructor</text></g><!--class slf4j--><g id="elem_slf4j"><rect codeLine="34" fill="#F1F1F1" height="19.2" id="slf4j" rx="1.5" ry="1.5" style="stroke:#181818;stroke-width:0.3;" width="34.2" x="1364.7" y="402.678"/><ellipse cx="1373.7" cy="412.278" fill="#B4A7E5" rx="6.6" ry="6.6" style="stroke:#181818;stroke-width:0.6;"/><path d="M1374.2719,410.2624 L1374.2719,414.2561 L1375.3031,414.2561 Q1375.6688,414.2561 1375.8281,414.3968 Q1375.9875,414.5374 1375.9875,414.7718 Q1375.9875,414.9967 1375.8281,415.1374 Q1375.6688,415.278 1375.3031,415.278 L1372.2188,415.278 Q1371.8531,415.278 1371.6938,415.1374 Q1371.5344,414.9967 1371.5344,414.7624 Q1371.5344,414.5374 1371.6938,414.3968 Q1371.8531,414.2561 1372.2188,414.2561 L1373.25,414.2561 L1373.25,410.2624 L1372.2188,410.2624 Q1371.8531,410.2624 1371.6938,410.1217 Q1371.5344,409.9811 1371.5344,409.7467 Q1371.5344,409.5218 1371.6938,409.3811 Q1371.8531,409.2405 1372.2188,409.2405 L1375.3031,409.2405 Q1375.6688,409.2405 1375.8281,409.3811 Q1375.9875,409.5218 1375.9875,409.7467 Q1375.9875,409.9811 1375.8281,410.1217 Q1375.6688,410.2624 1375.3031,410.2624 L1374.2719,410.2624 Z " fill="#000000"/><text fill="#000000" font-family="sans-serif" font-size="8.4" font-style="italic" lengthAdjust="spacing" textLength="15" x="1382.1" y="415.7561">slf4j</text></g><!--class List--><g id="elem_List"><rect codeLine="39" fill="#F1F1F1" height="19.2" id="List" rx="1.5" ry="1.5" style="stroke:#181818;stroke-width:0.3;" width="39" x="1330.5" y="183.678"/><ellipse cx="1339.5" cy="193.278" fill="#B4A7E5" rx="6.6" ry="6.6" style="stroke:#181818;stroke-width:0.6;"/><path d="M1340.0719,191.2624 L1340.0719,195.2561 L1341.1031,195.2561 Q1341.4688,195.2561 1341.6281,195.3968 Q1341.7875,195.5374 1341.7875,195.7718 Q1341.7875,195.9968 1341.6281,196.1374 Q1341.4688,196.278 1341.1031,196.278 L1338.0188,196.278 Q1337.6531,196.278 1337.4937,196.1374 Q1337.3344,195.9968 1337.3344,195.7624 Q1337.3344,195.5374 1337.4937,195.3968 Q1337.6531,195.2561 1338.0188,195.2561 L1339.05,195.2561 L1339.05,191.2624 L1338.0188,191.2624 Q1337.6531,191.2624 1337.4937,191.1218 Q1337.3344,190.9811 1337.3344,190.7468 Q1337.3344,190.5218 1337.4937,190.3811 Q1337.6531,190.2405 1338.0188,190.2405 L1341.1031,190.2405 Q1341.4688,190.2405 1341.6281,190.3811 Q1341.7875,190.5218 1341.7875,190.7468 Q1341.7875,190.9811 1341.6281,191.1218 Q1341.4688,191.2624 1341.1031,191.2624 L1340.0719,191.2624 Z " fill="#000000"/><text fill="#000000" font-family="sans-serif" font-size="8.4" font-style="italic" lengthAdjust="spacing" textLength="13.2" x="1347.9" y="196.7561">List</text><rect fill="#FFFFFF" height="10.7766" style="stroke:#181818;stroke-width:0.6;stroke-dasharray:2.0,2.0;" width="5.4" x="1365.9" y="181.878"/><text fill="#000000" font-family="sans-serif" font-size="7.2" font-style="italic" lengthAdjust="spacing" textLength="4.2" x="1366.5" y="190.2475">T</text></g><!--class Map--><g id="elem_Map"><rect codeLine="40" fill="#F1F1F1" height="19.2" id="Map" rx="1.5" ry="1.5" style="stroke:#181818;stroke-width:0.3;" width="49.8" x="1259.7" y="183.678"/><ellipse cx="1268.7" cy="193.278" fill="#B4A7E5" rx="6.6" ry="6.6" style="stroke:#181818;stroke-width:0.6;"/><path d="M1269.2719,191.2624 L1269.2719,195.2561 L1270.3031,195.2561 Q1270.6688,195.2561 1270.8281,195.3968 Q1270.9875,195.5374 1270.9875,195.7718 Q1270.9875,195.9968 1270.8281,196.1374 Q1270.6688,196.278 1270.3031,196.278 L1267.2188,196.278 Q1266.8531,196.278 1266.6938,196.1374 Q1266.5344,195.9968 1266.5344,195.7624 Q1266.5344,195.5374 1266.6938,195.3968 Q1266.8531,195.2561 1267.2188,195.2561 L1268.25,195.2561 L1268.25,191.2624 L1267.2188,191.2624 Q1266.8531,191.2624 1266.6938,191.1218 Q1266.5344,190.9811 1266.5344,190.7468 Q1266.5344,190.5218 1266.6938,190.3811 Q1266.8531,190.2405 1267.2188,190.2405 L1270.3031,190.2405 Q1270.6688,190.2405 1270.8281,190.3811 Q1270.9875,190.5218 1270.9875,190.7468 Q1270.9875,190.9811 1270.8281,191.1218 Q1270.6688,191.2624 1270.3031,191.2624 L1269.2719,191.2624 Z " fill="#000000"/><text fill="#000000" font-family="sans-serif" font-size="8.4" font-style="italic" lengthAdjust="spacing" textLength="16.8" x="1277.1" y="196.7561">Map</text><rect fill="#FFFFFF" height="10.7766" style="stroke:#181818;stroke-width:0.6;stroke-dasharray:2.0,2.0;" width="12.6" x="1298.7" y="181.878"/><text fill="#000000" font-family="sans-serif" font-size="7.2" font-style="italic" lengthAdjust="spacing" textLength="11.4" x="1299.3" y="190.2475">K,V</text></g><!--class UUID--><g id="elem_UUID"><rect codeLine="41" fill="#F1F1F1" height="19.2" id="UUID" rx="1.5" ry="1.5" style="stroke:#181818;stroke-width:0.3;" width="37.8" x="1200.9" y="183.678"/><ellipse cx="1209.9" cy="193.278" fill="#ADD1B2" rx="6.6" ry="6.6" style="stroke:#181818;stroke-width:0.6;"/><path d="M1211.5594,190.803 Q1211.6531,190.6718 1211.7656,190.6061 Q1211.8781,190.5405 1212.0094,190.5405 Q1212.2344,190.5405 1212.375,190.6999 Q1212.5156,190.8499 1212.5156,191.2155 L1212.5156,192.0874 Q1212.5156,192.453 1212.375,192.6124 Q1212.2344,192.7718 1212.0094,192.7718 Q1211.8031,192.7718 1211.6812,192.6499 Q1211.5594,192.5374 1211.4937,192.228 Q1211.4656,192.0124 1211.3531,191.8999 Q1211.1563,191.6749 1210.7906,191.5436 Q1210.425,191.4124 1210.05,191.4124 Q1209.5906,191.4124 1209.2063,191.6093 Q1208.8313,191.8061 1208.5313,192.2561 Q1208.2406,192.7061 1208.2406,193.3249 L1208.2406,193.9811 Q1208.2406,194.7218 1208.775,195.2186 Q1209.3094,195.7061 1210.2656,195.7061 Q1210.8281,195.7061 1211.2219,195.5561 Q1211.4563,195.4624 1211.7094,195.1999 Q1211.8687,195.0405 1211.9531,194.9936 Q1212.0469,194.9467 1212.1688,194.9467 Q1212.3656,194.9467 1212.5156,195.1061 Q1212.675,195.2561 1212.675,195.4624 Q1212.675,195.6686 1212.4688,195.9124 Q1212.1688,196.2592 1211.6906,196.4561 Q1211.0438,196.728 1210.2656,196.728 Q1209.3563,196.728 1208.6344,196.353 Q1208.0438,196.053 1207.6313,195.4155 Q1207.2188,194.7686 1207.2188,193.9999 L1207.2188,193.3061 Q1207.2188,192.5092 1207.5844,191.8249 Q1207.9594,191.1311 1208.6156,190.7655 Q1209.2719,190.3905 1210.0125,190.3905 Q1210.4531,190.3905 1210.8375,190.4936 Q1211.2313,190.5874 1211.5594,190.803 Z " fill="#000000"/><text fill="#000000" font-family="sans-serif" font-size="8.4" lengthAdjust="spacing" textLength="18.6" x="1218.3" y="196.7561">UUID</text></g><!--class Zulieferer--><g id="elem_Zulieferer"><rect codeLine="48" fill="#F1F1F1" height="26.7492" id="Zulieferer" rx="1.5" ry="1.5" style="stroke:#181818;stroke-width:0.3;" width="55.2" x="1029" y="398.778"/><ellipse cx="1038" cy="412.1526" fill="#ADD1B2" rx="6.6" ry="6.6" style="stroke:#181818;stroke-width:0.6;"/><path d="M1039.6594,409.6776 Q1039.7531,409.5464 1039.8656,409.4807 Q1039.9781,409.4151 1040.1094,409.4151 Q1040.3344,409.4151 1040.475,409.5745 Q1040.6156,409.7245 1040.6156,410.0901 L1040.6156,410.962 Q1040.6156,411.3276 1040.475,411.487 Q1040.3344,411.6464 1040.1094,411.6464 Q1039.9031,411.6464 1039.7813,411.5245 Q1039.6594,411.412 1039.5938,411.1026 Q1039.5656,410.887 1039.4531,410.7745 Q1039.2563,410.5495 1038.8906,410.4182 Q1038.525,410.287 1038.15,410.287 Q1037.6906,410.287 1037.3062,410.4839 Q1036.9312,410.6807 1036.6313,411.1307 Q1036.3406,411.5807 1036.3406,412.1995 L1036.3406,412.8557 Q1036.3406,413.5964 1036.875,414.0932 Q1037.4094,414.5807 1038.3656,414.5807 Q1038.9281,414.5807 1039.3219,414.4307 Q1039.5562,414.337 1039.8094,414.0745 Q1039.9688,413.9151 1040.0531,413.8682 Q1040.1469,413.8214 1040.2688,413.8214 Q1040.4656,413.8214 1040.6156,413.9807 Q1040.775,414.1307 1040.775,414.337 Q1040.775,414.5432 1040.5688,414.787 Q1040.2688,415.1339 1039.7906,415.3307 Q1039.1438,415.6026 1038.3656,415.6026 Q1037.4563,415.6026 1036.7344,415.2276 Q1036.1438,414.9276 1035.7313,414.2901 Q1035.3188,413.6432 1035.3188,412.8745 L1035.3188,412.1807 Q1035.3188,411.3839 1035.6844,410.6995 Q1036.0594,410.0057 1036.7156,409.6401 Q1037.3719,409.2651 1038.1125,409.2651 Q1038.5531,409.2651 1038.9375,409.3682 Q1039.3313,409.462 1039.6594,409.6776 Z " fill="#000000"/><text fill="#000000" font-family="sans-serif" font-size="7.2" font-style="italic" lengthAdjust="spacing" textLength="25.8" x="1051.5" y="409.5475">&#171;entity&#187;</text><text fill="#000000" font-family="sans-serif" font-size="8.4" lengthAdjust="spacing" textLength="36" x="1046.4" y="420.419">Zulieferer</text></g><!--class ZuliefererRepository--><g id="elem_ZuliefererRepository"><rect codeLine="54" fill="#F1F1F1" height="36.3258" id="ZuliefererRepository" rx="1.5" ry="1.5" style="stroke:#181818;stroke-width:0.3;" width="96" x="665.4" y="513.078"/><ellipse cx="674.4" cy="531.2409" fill="#ADD1B2" rx="6.6" ry="6.6" style="stroke:#181818;stroke-width:0.6;"/><path d="M676.0594,528.7659 Q676.1531,528.6346 676.2656,528.569 Q676.3781,528.5034 676.5094,528.5034 Q676.7344,528.5034 676.875,528.6628 Q677.0156,528.8128 677.0156,529.1784 L677.0156,530.0503 Q677.0156,530.4159 676.875,530.5753 Q676.7344,530.7346 676.5094,530.7346 Q676.3031,530.7346 676.1813,530.6128 Q676.0594,530.5003 675.9938,530.1909 Q675.9656,529.9753 675.8531,529.8628 Q675.6563,529.6378 675.2906,529.5065 Q674.925,529.3753 674.55,529.3753 Q674.0906,529.3753 673.7063,529.5721 Q673.3313,529.769 673.0313,530.219 Q672.7406,530.669 672.7406,531.2878 L672.7406,531.944 Q672.7406,532.6846 673.275,533.1815 Q673.8094,533.669 674.7656,533.669 Q675.3281,533.669 675.7219,533.519 Q675.9563,533.4253 676.2094,533.1628 Q676.3688,533.0034 676.4531,532.9565 Q676.5469,532.9096 676.6687,532.9096 Q676.8656,532.9096 677.0156,533.069 Q677.175,533.219 677.175,533.4253 Q677.175,533.6315 676.9688,533.8753 Q676.6687,534.2221 676.1906,534.419 Q675.5437,534.6909 674.7656,534.6909 Q673.8562,534.6909 673.1344,534.3159 Q672.5437,534.0159 672.1313,533.3784 Q671.7188,532.7315 671.7188,531.9628 L671.7188,531.269 Q671.7188,530.4721 672.0844,529.7878 Q672.4594,529.094 673.1156,528.7284 Q673.7719,528.3534 674.5125,528.3534 Q674.9531,528.3534 675.3375,528.4565 Q675.7312,528.5503 676.0594,528.7659 Z " fill="#000000"/><text fill="#000000" font-family="sans-serif" font-size="7.2" font-style="italic" lengthAdjust="spacing" textLength="30.6" x="705.9" y="523.8475">&#171;control&#187;</text><text fill="#000000" font-family="sans-serif" font-size="7.2" font-style="italic" lengthAdjust="spacing" textLength="51" x="695.7" y="533.4241">&#171;@Repository&#187;</text><text fill="#000000" font-family="sans-serif" font-size="8.4" lengthAdjust="spacing" textLength="76.8" x="682.8" y="544.2956">ZuliefererRepository</text></g><!--class Baecker--><g id="elem_Baecker"><rect codeLine="55" fill="#F1F1F1" height="26.7492" id="Baecker" rx="1.5" ry="1.5" style="stroke:#181818;stroke-width:0.3;" width="50.4" x="782.4" y="517.878"/><ellipse cx="791.4" cy="531.2526" fill="#ADD1B2" rx="6.6" ry="6.6" style="stroke:#181818;stroke-width:0.6;"/><path d="M793.0594,528.7776 Q793.1531,528.6464 793.2656,528.5807 Q793.3781,528.5151 793.5094,528.5151 Q793.7344,528.5151 793.875,528.6745 Q794.0156,528.8245 794.0156,529.1901 L794.0156,530.062 Q794.0156,530.4276 793.875,530.587 Q793.7344,530.7464 793.5094,530.7464 Q793.3031,530.7464 793.1813,530.6245 Q793.0594,530.512 792.9938,530.2026 Q792.9656,529.987 792.8531,529.8745 Q792.6563,529.6495 792.2906,529.5182 Q791.925,529.387 791.55,529.387 Q791.0906,529.387 790.7063,529.5839 Q790.3313,529.7807 790.0313,530.2307 Q789.7406,530.6807 789.7406,531.2995 L789.7406,531.9557 Q789.7406,532.6964 790.275,533.1932 Q790.8094,533.6807 791.7656,533.6807 Q792.3281,533.6807 792.7219,533.5307 Q792.9563,533.437 793.2094,533.1745 Q793.3688,533.0151 793.4531,532.9682 Q793.5469,532.9214 793.6687,532.9214 Q793.8656,532.9214 794.0156,533.0807 Q794.175,533.2307 794.175,533.437 Q794.175,533.6432 793.9688,533.887 Q793.6687,534.2339 793.1906,534.4307 Q792.5437,534.7026 791.7656,534.7026 Q790.8562,534.7026 790.1344,534.3276 Q789.5437,534.0276 789.1313,533.3901 Q788.7188,532.7432 788.7188,531.9745 L788.7188,531.2807 Q788.7188,530.4839 789.0844,529.7995 Q789.4594,529.1057 790.1156,528.7401 Q790.7719,528.3651 791.5125,528.3651 Q791.9531,528.3651 792.3375,528.4682 Q792.7312,528.562 793.0594,528.7776 Z " fill="#000000"/><text fill="#000000" font-family="sans-serif" font-size="7.2" font-style="italic" lengthAdjust="spacing" textLength="29.4" x="800.7" y="528.6475">&#171;record&#187;</text><text fill="#000000" font-family="sans-serif" font-size="8.4" lengthAdjust="spacing" textLength="31.2" x="799.8" y="539.519">Baecker</text></g><!--class BaeckerRestRepository--><g id="elem_BaeckerRestRepository"><rect codeLine="56" fill="#F1F1F1" height="26.7492" id="BaeckerRestRepository" rx="1.5" ry="1.5" style="stroke:#181818;stroke-width:0.3;" width="108.6" x="854.1" y="517.878"/><ellipse cx="863.1" cy="531.2526" fill="#ADD1B2" rx="6.6" ry="6.6" style="stroke:#181818;stroke-width:0.6;"/><path d="M864.7594,528.7776 Q864.8531,528.6464 864.9656,528.5807 Q865.0781,528.5151 865.2094,528.5151 Q865.4344,528.5151 865.575,528.6745 Q865.7156,528.8245 865.7156,529.1901 L865.7156,530.062 Q865.7156,530.4276 865.575,530.587 Q865.4344,530.7464 865.2094,530.7464 Q865.0031,530.7464 864.8813,530.6245 Q864.7594,530.512 864.6938,530.2026 Q864.6656,529.987 864.5531,529.8745 Q864.3562,529.6495 863.9906,529.5182 Q863.625,529.387 863.25,529.387 Q862.7906,529.387 862.4063,529.5839 Q862.0313,529.7807 861.7312,530.2307 Q861.4406,530.6807 861.4406,531.2995 L861.4406,531.9557 Q861.4406,532.6964 861.975,533.1932 Q862.5094,533.6807 863.4656,533.6807 Q864.0281,533.6807 864.4219,533.5307 Q864.6563,533.437 864.9094,533.1745 Q865.0688,533.0151 865.1531,532.9682 Q865.2469,532.9214 865.3688,532.9214 Q865.5656,532.9214 865.7156,533.0807 Q865.875,533.2307 865.875,533.437 Q865.875,533.6432 865.6687,533.887 Q865.3688,534.2339 864.8906,534.4307 Q864.2438,534.7026 863.4656,534.7026 Q862.5563,534.7026 861.8344,534.3276 Q861.2438,534.0276 860.8313,533.3901 Q860.4187,532.7432 860.4187,531.9745 L860.4187,531.2807 Q860.4187,530.4839 860.7844,529.7995 Q861.1594,529.1057 861.8156,528.7401 Q862.4719,528.3651 863.2125,528.3651 Q863.6531,528.3651 864.0375,528.4682 Q864.4313,528.562 864.7594,528.7776 Z " fill="#000000"/><text fill="#000000" font-family="sans-serif" font-size="7.2" font-style="italic" lengthAdjust="spacing" textLength="51" x="890.7" y="528.6475">&#171;@Repository&#187;</text><text fill="#000000" font-family="sans-serif" font-size="8.4" lengthAdjust="spacing" textLength="89.4" x="871.5" y="539.519">BaeckerRestRepository</text></g><!--class PredicateBuilder--><g id="elem_PredicateBuilder"><rect codeLine="57" fill="#F1F1F1" height="19.2" id="PredicateBuilder" rx="1.5" ry="1.5" style="stroke:#181818;stroke-width:0.3;" width="81.6" x="984" y="521.778"/><ellipse cx="993" cy="531.378" fill="#ADD1B2" rx="6.6" ry="6.6" style="stroke:#181818;stroke-width:0.6;"/><path d="M994.6594,528.903 Q994.7531,528.7718 994.8656,528.7061 Q994.9781,528.6405 995.1094,528.6405 Q995.3344,528.6405 995.475,528.7999 Q995.6156,528.9499 995.6156,529.3155 L995.6156,530.1874 Q995.6156,530.553 995.475,530.7124 Q995.3344,530.8718 995.1094,530.8718 Q994.9031,530.8718 994.7813,530.7499 Q994.6594,530.6374 994.5938,530.328 Q994.5656,530.1124 994.4531,529.9999 Q994.2562,529.7749 993.8906,529.6436 Q993.525,529.5124 993.15,529.5124 Q992.6906,529.5124 992.3063,529.7093 Q991.9313,529.9061 991.6312,530.3561 Q991.3406,530.8061 991.3406,531.4249 L991.3406,532.0811 Q991.3406,532.8218 991.875,533.3186 Q992.4094,533.8061 993.3656,533.8061 Q993.9281,533.8061 994.3219,533.6561 Q994.5563,533.5624 994.8094,533.2999 Q994.9688,533.1405 995.0531,533.0936 Q995.1469,533.0468 995.2688,533.0468 Q995.4656,533.0468 995.6156,533.2061 Q995.775,533.3561 995.775,533.5624 Q995.775,533.7686 995.5687,534.0124 Q995.2688,534.3593 994.7906,534.5561 Q994.1438,534.828 993.3656,534.828 Q992.4563,534.828 991.7344,534.453 Q991.1438,534.153 990.7312,533.5155 Q990.3187,532.8686 990.3187,532.0999 L990.3187,531.4061 Q990.3187,530.6093 990.6844,529.9249 Q991.0594,529.2311 991.7156,528.8655 Q992.3719,528.4905 993.1125,528.4905 Q993.5531,528.4905 993.9375,528.5936 Q994.3313,528.6874 994.6594,528.903 Z " fill="#000000"/><text fill="#000000" font-family="sans-serif" font-size="8.4" lengthAdjust="spacing" textLength="62.4" x="1001.4" y="534.8561">PredicateBuilder</text></g><!--class ZuliefererReadService--><g id="elem_ZuliefererReadService"><rect codeLine="61" fill="#F1F1F1" height="63.4711" id="ZuliefererReadService" rx="1.5" ry="1.5" style="stroke:#181818;stroke-width:0.3;" width="225.6" x="769.8" y="380.478"/><ellipse cx="837.75" cy="398.6409" fill="#ADD1B2" rx="6.6" ry="6.6" style="stroke:#181818;stroke-width:0.6;"/><path d="M839.4094,396.1659 Q839.5031,396.0346 839.6156,395.969 Q839.7281,395.9034 839.8594,395.9034 Q840.0844,395.9034 840.225,396.0628 Q840.3656,396.2128 840.3656,396.5784 L840.3656,397.4503 Q840.3656,397.8159 840.225,397.9753 Q840.0844,398.1346 839.8594,398.1346 Q839.6531,398.1346 839.5313,398.0128 Q839.4094,397.9003 839.3438,397.5909 Q839.3156,397.3753 839.2031,397.2628 Q839.0063,397.0378 838.6406,396.9065 Q838.275,396.7753 837.9,396.7753 Q837.4406,396.7753 837.0563,396.9721 Q836.6813,397.169 836.3813,397.619 Q836.0906,398.069 836.0906,398.6878 L836.0906,399.344 Q836.0906,400.0846 836.625,400.5815 Q837.1594,401.069 838.1156,401.069 Q838.6781,401.069 839.0719,400.919 Q839.3063,400.8253 839.5594,400.5628 Q839.7188,400.4034 839.8031,400.3565 Q839.8969,400.3096 840.0188,400.3096 Q840.2156,400.3096 840.3656,400.469 Q840.525,400.619 840.525,400.8253 Q840.525,401.0315 840.3188,401.2753 Q840.0188,401.6221 839.5406,401.819 Q838.8938,402.0909 838.1156,402.0909 Q837.2063,402.0909 836.4844,401.7159 Q835.8938,401.4159 835.4812,400.7784 Q835.0688,400.1315 835.0688,399.3628 L835.0688,398.669 Q835.0688,397.8721 835.4344,397.1878 Q835.8094,396.494 836.4656,396.1284 Q837.1219,395.7534 837.8625,395.7534 Q838.3031,395.7534 838.6875,395.8565 Q839.0813,395.9503 839.4094,396.1659 Z " fill="#000000"/><text fill="#000000" font-family="sans-serif" font-size="7.2" font-style="italic" lengthAdjust="spacing" textLength="30.6" x="877.05" y="391.2475">&#171;control&#187;</text><text fill="#000000" font-family="sans-serif" font-size="7.2" font-style="italic" lengthAdjust="spacing" textLength="40.2" x="872.25" y="400.8241">&#171;@Service&#187;</text><text fill="#000000" font-family="sans-serif" font-size="8.4" lengthAdjust="spacing" textLength="84.6" x="850.05" y="411.6956">ZuliefererReadService</text><line style="stroke:#181818;stroke-width:0.3;" x1="770.4" x2="994.8" y1="416.8038" y2="416.8038"/><text fill="#000000" font-family="sans-serif" font-size="8.4" lengthAdjust="spacing" textLength="111.6" x="773.4" y="428.2682">+findById(id: UUID): Zulieferer</text><text fill="#000000" font-family="sans-serif" font-size="8.4" lengthAdjust="spacing" textLength="218.4" x="773.4" y="439.4409">+find(queryParams: Map&lt;String, String&gt;): List&lt;Zulieferer&gt;</text></g><!--class NotNull--><g id="elem_NotNull"><rect fill="#F1F1F1" height="19.2" id="NotNull" rx="1.5" ry="1.5" style="stroke:#181818;stroke-width:0.3;" width="45.6" x="703.2" y="402.678"/><ellipse cx="712.2" cy="412.278" fill="#ADD1B2" rx="6.6" ry="6.6" style="stroke:#181818;stroke-width:0.6;"/><path d="M713.8594,409.803 Q713.9531,409.6718 714.0656,409.6061 Q714.1781,409.5405 714.3094,409.5405 Q714.5344,409.5405 714.675,409.6999 Q714.8156,409.8499 714.8156,410.2155 L714.8156,411.0874 Q714.8156,411.453 714.675,411.6124 Q714.5344,411.7718 714.3094,411.7718 Q714.1031,411.7718 713.9812,411.6499 Q713.8594,411.5374 713.7937,411.228 Q713.7656,411.0124 713.6531,410.8999 Q713.4563,410.6749 713.0906,410.5436 Q712.725,410.4124 712.35,410.4124 Q711.8906,410.4124 711.5063,410.6093 Q711.1313,410.8061 710.8313,411.2561 Q710.5406,411.7061 710.5406,412.3249 L710.5406,412.9811 Q710.5406,413.7218 711.075,414.2186 Q711.6094,414.7061 712.5656,414.7061 Q713.1281,414.7061 713.5219,414.5561 Q713.7563,414.4624 714.0094,414.1999 Q714.1687,414.0405 714.2531,413.9936 Q714.3469,413.9468 714.4688,413.9468 Q714.6656,413.9468 714.8156,414.1061 Q714.975,414.2561 714.975,414.4624 Q714.975,414.6686 714.7688,414.9124 Q714.4688,415.2593 713.9906,415.4561 Q713.3438,415.728 712.5656,415.728 Q711.6563,415.728 710.9344,415.353 Q710.3438,415.053 709.9313,414.4155 Q709.5188,413.7686 709.5188,412.9999 L709.5188,412.3061 Q709.5188,411.5093 709.8844,410.8249 Q710.2594,410.1311 710.9156,409.7655 Q711.5719,409.3905 712.3125,409.3905 Q712.7531,409.3905 713.1375,409.4936 Q713.5313,409.5874 713.8594,409.803 Z " fill="#000000"/><text fill="#000000" font-family="sans-serif" font-size="8.4" lengthAdjust="spacing" textLength="26.4" x="720.6" y="415.7561">NotNull</text></g><!--class slf4j--><g id="elem_slf4j"><rect fill="#F1F1F1" height="19.2" id="slf4j" rx="1.5" ry="1.5" style="stroke:#181818;stroke-width:0.3;" width="34.2" x="647.7" y="402.678"/><ellipse cx="656.7" cy="412.278" fill="#ADD1B2" rx="6.6" ry="6.6" style="stroke:#181818;stroke-width:0.6;"/><path d="M658.3594,409.803 Q658.4531,409.6718 658.5656,409.6061 Q658.6781,409.5405 658.8094,409.5405 Q659.0344,409.5405 659.175,409.6999 Q659.3156,409.8499 659.3156,410.2155 L659.3156,411.0874 Q659.3156,411.453 659.175,411.6124 Q659.0344,411.7718 658.8094,411.7718 Q658.6031,411.7718 658.4812,411.6499 Q658.3594,411.5374 658.2937,411.228 Q658.2656,411.0124 658.1531,410.8999 Q657.9563,410.6749 657.5906,410.5436 Q657.225,410.4124 656.85,410.4124 Q656.3906,410.4124 656.0063,410.6093 Q655.6313,410.8061 655.3313,411.2561 Q655.0406,411.7061 655.0406,412.3249 L655.0406,412.9811 Q655.0406,413.7218 655.575,414.2186 Q656.1094,414.7061 657.0656,414.7061 Q657.6281,414.7061 658.0219,414.5561 Q658.2563,414.4624 658.5094,414.1999 Q658.6687,414.0405 658.7531,413.9936 Q658.8469,413.9468 658.9688,413.9468 Q659.1656,413.9468 659.3156,414.1061 Q659.475,414.2561 659.475,414.4624 Q659.475,414.6686 659.2688,414.9124 Q658.9688,415.2593 658.4906,415.4561 Q657.8438,415.728 657.0656,415.728 Q656.1563,415.728 655.4344,415.353 Q654.8438,415.053 654.4313,414.4155 Q654.0188,413.7686 654.0188,412.9999 L654.0188,412.3061 Q654.0188,411.5093 654.3844,410.8249 Q654.7594,410.1311 655.4156,409.7655 Q656.0719,409.3905 656.8125,409.3905 Q657.2531,409.3905 657.6375,409.4936 Q658.0313,409.5874 658.3594,409.803 Z " fill="#000000"/><text fill="#000000" font-family="sans-serif" font-size="8.4" lengthAdjust="spacing" textLength="15" x="665.1" y="415.7561">slf4j</text></g><!--reverse link Service to UUID--><!--reverse link List to Zulieferer--><!--link ZuliefererReadService to ZuliefererRepository--><g id="link_ZuliefererReadService_ZuliefererRepository"><path codeLine="66" d="M826.62,448.986 C809.04,460.596 789.666,473.67 772.2,486.078 C762.618,492.882 752.364,500.544 743.142,507.576 " fill="none" id="ZuliefererReadService-ZuliefererRepository" style="stroke:#181818;stroke-width:0.6;"/><polygon fill="none" points="833.016,444.78,828.6894,444.7576,827.0046,448.7428,831.3312,448.7652,833.016,444.78" style="stroke:#181818;stroke-width:0.6;"/><polygon fill="#181818" points="737.046,512.256,742.7911,510.8728,739.4261,510.4297,739.8691,507.0647,737.046,512.256" style="stroke:#181818;stroke-width:0.6;"/><line style="stroke:#181818;stroke-width:0.6;" x1="739.4261" x2="743.232" y1="510.4297" y2="507.51"/><text fill="#000000" font-family="sans-serif" font-size="7.8" lengthAdjust="spacing" textLength="15" x="793.2" y="478.895">repo</text></g><!--link ZuliefererReadService to Zulieferer--><g id="link_ZuliefererReadService_Zulieferer"><path codeLine="67" d="M995.598,433.998 C1005.432,432.39 1015.266,429.864 1025.1,426.42 " fill="none" id="ZuliefererReadService-to-Zulieferer" style="stroke:#181818;stroke-width:0.6;stroke-dasharray:7.0,7.0;"/><polygon fill="#181818" points="1027.866,425.424,1021.9716,425.0038,1025.0449,426.4444,1023.6043,429.5176,1027.866,425.424" style="stroke:#181818;stroke-width:0.6;"/></g><!--reverse link Service to ZuliefererReadService--><g id="link_Service_ZuliefererReadService"><path codeLine="68" d="M72.6,206.298 C85.89,227.838 116.55,271.536 156,289.278 C188.124,303.726 279.186,293.886 314.4,294.678 C326.766,294.954 748.092,294.948 759.6,299.478 C801.018,315.786 837.114,353.076 859.308,380.202 " fill="none" id="Service-backto-ZuliefererReadService" style="stroke:#181818;stroke-width:0.6;stroke-dasharray:7.0,7.0;"/><polygon fill="#181818" points="71.088,203.814,71.8456,209.6745,72.6478,206.3766,75.9458,207.1788,71.088,203.814" style="stroke:#181818;stroke-width:0.6;"/></g><!--reverse link UUID to ZuliefererReadService--><g id="link_UUID_ZuliefererReadService"><path codeLine="69" d="M1211.472,206.166 C1196.124,227.628 1161.048,271.374 1119,289.278 C1098.246,298.116 1038.534,285.672 1017.6,294.078 C972.462,312.21 932.058,352.122 907.47,380.412 " fill="none" id="UUID-backto-ZuliefererReadService" style="stroke:#181818;stroke-width:0.6;stroke-dasharray:7.0,7.0;"/><polygon fill="#181818" points="1213.068,203.91,1207.9924,206.9362,1211.3373,206.3604,1211.913,209.7053,1213.068,203.91" style="stroke:#181818;stroke-width:0.6;"/></g><!--reverse link List to ZuliefererReadService--><g id="link_List_ZuliefererReadService"><path codeLine="70" d="M1350.282,206.874 C1349.946,228.096 1345.824,269.772 1320,289.278 C1312.362,295.044 1157.364,293.742 1147.8,294.078 C1133.532,294.576 1032.744,294.39 1019.4,299.478 C975.348,316.284 934.938,353.274 909.642,380.202 " fill="none" id="List-backto-ZuliefererReadService" style="stroke:#181818;stroke-width:0.6;stroke-dasharray:7.0,7.0;"/><polygon fill="#181818" points="1350.294,204.066,1347.8632,209.4522,1350.2769,207.066,1352.6631,209.4796,1350.294,204.066" style="stroke:#181818;stroke-width:0.6;"/></g><!--reverse link Map to ZuliefererReadService--><g id="link_Map_ZuliefererReadService"><path codeLine="71" d="M1284.144,206.64 C1282.614,227.88 1276.146,270.06 1249.2,289.278 C1239.972,295.86 1056.462,292.776 1045.2,294.078 C1033.56,295.422 1029.966,294.42 1019.4,299.478 C977.706,319.446 937.758,354.714 911.91,380.388 " fill="none" id="Map-backto-ZuliefererReadService" style="stroke:#181818;stroke-width:0.6;stroke-dasharray:7.0,7.0;"/><polygon fill="#181818" points="1284.318,203.832,1281.583,209.0703,1284.1293,206.8261,1286.3735,209.3723,1284.318,203.832" style="stroke:#181818;stroke-width:0.6;"/></g><!--reverse link WebClientException to ZuliefererReadService--><g id="link_WebClientException_ZuliefererReadService"><path codeLine="72" d="M216.36,206.598 C222.798,228.09 239.106,271.032 270.6,289.278 C294.114,302.898 734.358,289.416 759.6,299.478 C800.946,315.96 837.06,353.214 859.272,380.286 " fill="none" id="WebClientException-backto-ZuliefererReadService" style="stroke:#181818;stroke-width:0.6;stroke-dasharray:7.0,7.0;"/><polygon fill="#181818" points="215.592,203.964,214.8,209.82,216.432,206.844,219.408,208.476,215.592,203.964" style="stroke:#181818;stroke-width:0.6;"/></g><!--reverse link WebClientResponseException to ZuliefererReadService--><g id="link_WebClientResponseException_ZuliefererReadService"><path codeLine="73" d="M360.762,205.56 C385.002,226.89 440.274,271.578 496.2,289.278 C551.928,306.912 569.196,292.416 627.6,294.678 C642.264,295.248 746.016,293.928 759.6,299.478 C800.67,316.26 836.712,353.256 858.99,380.19 " fill="none" id="WebClientResponseException-backto-ZuliefererReadService" style="stroke:#181818;stroke-width:0.6;stroke-dasharray:7.0,7.0;"/><polygon fill="#181818" points="358.644,203.676,361.0957,209.0527,360.89,205.6648,364.2779,205.4591,358.644,203.676" style="stroke:#181818;stroke-width:0.6;"/></g><!--reverse link Transactional to ZuliefererReadService--><g id="link_Transactional_ZuliefererReadService"><path codeLine="74" d="M546.69,206.526 C556.728,227.904 580.272,270.69 615,289.278 C643.404,304.476 729.99,286.788 759.6,299.478 C800.244,316.902 836.244,353.574 858.63,380.268 " fill="none" id="Transactional-backto-ZuliefererReadService" style="stroke:#181818;stroke-width:0.6;stroke-dasharray:7.0,7.0;"/><polygon fill="#181818" points="545.46,203.862,545.532,209.7709,546.7117,206.5884,549.8942,207.7681,545.46,203.862" style="stroke:#181818;stroke-width:0.6;"/></g><!--reverse link ResponseEntity to ZuliefererReadService--><g id="link_ResponseEntity_ZuliefererReadService"><path codeLine="75" d="M672.072,206.094 C684.984,225.456 712.236,263.64 742.2,289.278 C749.01,295.104 752.382,294.162 759.6,299.478 C793.11,324.162 827.838,356.58 851.814,380.214 " fill="none" id="ResponseEntity-backto-ZuliefererReadService" style="stroke:#181818;stroke-width:0.6;stroke-dasharray:7.0,7.0;"/><polygon fill="#181818" points="670.476,203.682,671.4514,209.5103,672.1302,206.1847,675.4557,206.8635,670.476,203.682" style="stroke:#181818;stroke-width:0.6;"/></g><!--reverse link GraphQlTransportException to ZuliefererReadService--><g id="link_GraphQlTransportException_ZuliefererReadService"><path codeLine="76" d="M818.748,206.568 C829.182,240.072 857.688,331.656 872.838,380.316 " fill="none" id="GraphQlTransportException-backto-ZuliefererReadService" style="stroke:#181818;stroke-width:0.6;stroke-dasharray:7.0,7.0;"/><polygon fill="#181818" points="817.896,203.826,817.2099,209.6954,818.7879,206.6904,821.7929,208.2683,817.896,203.826" style="stroke:#181818;stroke-width:0.6;"/></g><!--reverse link FieldAccessException to ZuliefererReadService--><g id="link_FieldAccessException_ZuliefererReadService"><path codeLine="77" d="M945.318,206.568 C935.076,240.072 907.068,331.656 892.188,380.316 " fill="none" id="FieldAccessException-backto-ZuliefererReadService" style="stroke:#181818;stroke-width:0.6;stroke-dasharray:7.0,7.0;"/><polygon fill="#181818" points="946.158,203.826,942.277,208.2822,945.2763,206.6935,946.865,209.6929,946.158,203.826" style="stroke:#181818;stroke-width:0.6;"/></g><!--reverse link HttpGraphQlClient to ZuliefererReadService--><g id="link_HttpGraphQlClient_ZuliefererReadService"><path codeLine="78" d="M1061.436,206.52 C1054.92,227.232 1039.038,268.182 1010.4,289.278 C1002.48,295.11 997.296,289.128 988.8,294.078 C952.314,315.336 921.402,353.382 902.496,380.442 " fill="none" id="HttpGraphQlClient-backto-ZuliefererReadService" style="stroke:#181818;stroke-width:0.6;stroke-dasharray:7.0,7.0;"/><polygon fill="#181818" points="1062.282,203.766,1058.401,208.2222,1061.4003,206.6335,1062.989,209.6329,1062.282,203.766" style="stroke:#181818;stroke-width:0.6;"/></g><!--reverse link NotNull to ZuliefererReadService--><g id="link_NotNull_ZuliefererReadService"><path codeLine="79" d="M752.952,412.278 C758.532,412.278 764.112,412.278 769.692,412.278 " fill="none" id="NotNull-backto-ZuliefererReadService" style="stroke:#181818;stroke-width:0.6;stroke-dasharray:7.0,7.0;"/><polygon fill="#181818" points="750,412.278,755.4,414.678,753,412.278,755.4,409.878,750,412.278" style="stroke:#181818;stroke-width:0.6;"/></g><!--reverse link RequiredArgsConstructor to ZuliefererReadService--><g id="link_RequiredArgsConstructor_ZuliefererReadService"><path codeLine="80" d="M1267.488,398.922 C1258.092,375.93 1236.096,328.542 1204.2,299.478 C1200.366,295.986 1198.758,295.542 1193.7,294.378 C1175.964,290.298 1047.636,290.298 1029.9,294.378 C978.666,306.162 933.774,349.512 907.41,380.22 " fill="none" id="RequiredArgsConstructor-backto-ZuliefererReadService" style="stroke:#181818;stroke-width:0.6;stroke-dasharray:7.0,7.0;"/><polygon fill="#181818" points="1268.544,401.556,1268.7512,395.6503,1267.4225,398.7735,1264.2992,397.4448,1268.544,401.556" style="stroke:#181818;stroke-width:0.6;"/></g><!--reverse link slf4j to ZuliefererReadService--><g id="link_slf4j_ZuliefererReadService"><path codeLine="81" d="M663.48,398.628 C661.512,369.672 661.794,303.972 703.5,294.378 C727.902,288.768 738.894,285.402 759.6,299.478 C794.34,323.1 829.188,356.154 852.876,380.37 " fill="none" id="slf4j-backto-ZuliefererReadService" style="stroke:#181818;stroke-width:0.6;stroke-dasharray:7.0,7.0;"/><polygon fill="#181818" points="663.696,401.55,665.6882,395.9866,663.4731,398.5583,660.9015,396.3432,663.696,401.55" style="stroke:#181818;stroke-width:0.6;"/></g><!--reverse link NotNull to ZuliefererReadService--><g id="link_NotNull_ZuliefererReadService"><path codeLine="82" d="M1507.326,399.042 C1492.644,370.998 1453.734,307.128 1398.3,294.378 C1378.356,289.788 1049.844,289.788 1029.9,294.378 C978.666,306.162 933.774,349.512 907.41,380.22 " fill="none" id="NotNull-backto-ZuliefererReadService-1" style="stroke:#181818;stroke-width:0.6;stroke-dasharray:7.0,7.0;"/><polygon fill="#181818" points="1508.664,401.628,1508.3128,395.7291,1507.2848,398.9638,1504.0501,397.9359,1508.664,401.628" style="stroke:#181818;stroke-width:0.6;"/></g><!--reverse link slf4j to ZuliefererReadService--><g id="link_slf4j_ZuliefererReadService"><path codeLine="83" d="M1384.146,398.598 C1388.292,369.588 1392.966,303.78 1352.1,294.378 C1334.658,290.364 1047.342,290.364 1029.9,294.378 C978.666,306.162 933.774,349.512 907.41,380.22 " fill="none" id="slf4j-backto-ZuliefererReadService-1" style="stroke:#181818;stroke-width:0.6;stroke-dasharray:7.0,7.0;"/><polygon fill="#181818" points="1383.708,401.538,1386.8839,396.5547,1384.1539,398.5713,1382.1372,395.8413,1383.708,401.538" style="stroke:#181818;stroke-width:0.6;"/></g><!--reverse link NotNull to ZuliefererReadService--><g id="link_NotNull_ZuliefererReadService"><path codeLine="84" d="M1163.904,398.946 C1152.84,375.99 1127.442,328.65 1093.8,299.478 C1089.882,296.076 1088.358,295.542 1083.3,294.378 C1060.17,289.056 1053.03,289.056 1029.9,294.378 C978.666,306.162 933.774,349.512 907.41,380.22 " fill="none" id="NotNull-backto-ZuliefererReadService-2" style="stroke:#181818;stroke-width:0.6;stroke-dasharray:7.0,7.0;"/><polygon fill="#181818" points="1165.17,401.592,1165.0225,395.6845,1163.8835,398.8818,1160.6862,397.7429,1165.17,401.592" style="stroke:#181818;stroke-width:0.6;"/></g><!--link ZuliefererReadService to Baecker--><g id="link_ZuliefererReadService_Baecker"><path codeLine="85" d="M862.602,444.318 C848.262,466.86 829.524,496.314 818.034,514.374 " fill="none" id="ZuliefererReadService-to-Baecker" style="stroke:#181818;stroke-width:0.6;stroke-dasharray:7.0,7.0;"/><polygon fill="#181818" points="816.462,516.846,821.3881,513.582,818.0743,514.3161,817.3402,511.0023,816.462,516.846" style="stroke:#181818;stroke-width:0.6;"/></g><!--link ZuliefererReadService to BaeckerRestRepository--><g id="link_ZuliefererReadService_BaeckerRestRepository"><path codeLine="86" d="M889.482,444.318 C894.372,466.674 900.75,495.828 904.71,513.924 " fill="none" id="ZuliefererReadService-to-BaeckerRestRepository" style="stroke:#181818;stroke-width:0.6;stroke-dasharray:7.0,7.0;"/><polygon fill="#181818" points="905.322,516.72,906.5222,510.9339,904.6858,513.7882,901.8314,511.9518,905.322,516.72" style="stroke:#181818;stroke-width:0.6;"/></g><!--link ZuliefererReadService to PredicateBuilder--><g id="link_ZuliefererReadService_PredicateBuilder"><path codeLine="87" d="M922.086,444.294 C938.058,457.128 956.604,472.194 973.2,486.078 C986.412,497.13 1001.25,510.042 1011.618,519.138 " fill="none" id="ZuliefererReadService-to-PredicateBuilder" style="stroke:#181818;stroke-width:0.6;stroke-dasharray:7.0,7.0;"/><polygon fill="#181818" points="1013.73,520.998,1011.2566,515.6312,1011.476,519.0182,1008.089,519.2376,1013.73,520.998" style="stroke:#181818;stroke-width:0.6;"/></g><text fill="#888888" font-family="sans-serif" font-size="6" lengthAdjust="spacing" textLength="62.4" x="754.5" y="598.1526">(c) Ahmad Alabdullah</text><!--SRC=[bLLRJzim57xFhx2q5z30siEUgYfQkMn3sn2Zi4cRzk3Q9wsfQmVRAHJK_xwJf2L9SPAIbrpyVT-vvXmtbpfbbYq8LyovaVTMJZ8F5zpeiNm2yY6AKiRdR0h4s2brgPLwcY017eoTK-V1Wl6h5CXpHF2I6hyaZ0CPWrrA3j6wKw5aRG5JozBPlQ9SIT2-FCklmZdoMO8I8yx1kVD73gcNHkz0lkG2FzMDPTgbnlest5VlqmtsjB1LdAyRpimGi-l2DQ2iTd2klVIh0CddbXdFJLAcjV4iVwnaglpSL4Yc0aeFCA4MSi0IQ9BfKZEScTymASDeY_S5y1900xYkL-cEpPdrZ2wPaeALLf62aQ7pRhVCbyPVPahL1PHPJ0oVjo6RNw_XFfCMnCXEtMbX9kFUs4Ogu17HcZgLVBmBfR8u20MoP3JpKhtgpU_I-U5DlFFr1qk7tuv-bP_BlDtUNfn5nNl-HAY2nF-TII50_wDngCUV73u1VSemtGd-79OqMnoApY6x5VnJuOV3BIYEenTO3K2pjEP37iiczeOX2wbn4bFPPUow0g5PBBEtHg7T_ErJxJ2EToHE6F1vwQm5RgneXM37-OQPckuhpXLsWkJCmqacbG0R2ioLIIVlpeghCpecDYKAXBSzmTTA8h_UaqHgSRAw40TI38hA7mvgiW7mmNq6TdMLJr8tA1ffxFCvTqJAUum2HTDLAbNewr2LwxwRu-CuNBH1KUOUEhLoElCq3eNGmiZIMdVlWor-b5vWhLlx1367VRZyPqHan_3RanWUYlq2hqTuFoUmGVf9_Mkjcz-vERkfuKtPpwjF-tsoqhu5-jdL_E_7Tcyt-ZQtDvkErXSKVOitMu4zpGhpe96rcQnlGpVdy9xSbdcC4miN42wpHOfhQW6B2LWNHOanc0Tom0_9QBPWWemKcmYCYysY_m00]--></g></svg>